{"glyphs":{"0":{"ha":833,"x_min":35,"x_max":843,"o":"m 553 1000 q 745 931 678 1000 q 828 743 813 861 q 811 478 843 625 l 804 446 q 697 175 768 279 q 526 22 625 71 q 310 -28 428 -28 q 162 10 221 -28 q 72 113 103 47 q 38 263 40 179 q 58 439 35 347 l 92 561 q 267 888 150 776 q 553 1000 383 1000 m 519 746 q 469 730 492 746 q 424 663 446 714 q 376 508 403 613 l 364 458 q 334 322 344 378 q 322 226 324 265 l 350 226 q 403 242 379 226 q 451 310 428 258 q 499 464 475 361 l 510 511 q 540 649 529 590 q 551 746 551 708 l 519 746 z "},"1":{"ha":833,"x_min":-14,"x_max":771,"o":"m 50 278 l 329 278 l 331 286 q 301 440 260 328 q 359 574 324 503 q 418 735 394 646 l 410 735 q 360 663 383 693 q 311 604 336 633 q 236 542 276 565 q 160 519 196 519 q 119 556 125 519 q 132 671 113 593 l 171 825 q 245 851 210 836 q 311 883 281 865 q 377 924 344 903 q 440 972 410 946 q 585 986 496 986 q 731 942 692 986 q 754 824 771 899 q 694 656 736 742 q 611 476 653 569 q 549 278 569 383 l 589 278 q 720 229 685 278 q 739 115 756 181 q 716 46 728 72 q 692 0 704 19 l 113 0 q 40 8 64 0 q 4 31 15 15 q -11 75 -8 47 q -4 144 -14 103 q 21 216 6 182 q 50 278 36 250 z "},"2":{"ha":833,"x_min":-7,"x_max":868,"o":"m 531 1000 q 747 960 672 1000 q 845 856 822 921 q 853 718 868 792 l 851 711 q 797 570 835 628 q 695 472 760 513 q 535 399 631 432 q 388 343 443 368 q 303 292 333 318 q 256 235 274 267 l 263 229 q 333 259 297 249 q 417 274 369 269 q 536 278 465 278 l 607 278 q 712 244 681 278 q 726 143 743 211 q 701 67 717 104 q 668 0 686 29 l 133 0 q 30 54 67 0 q 14 214 -7 108 l 17 228 q 106 403 36 326 q 315 538 175 479 q 469 605 415 579 q 547 648 524 631 q 575 683 569 665 l 576 688 q 579 706 579 699 q 528 713 557 710 q 468 715 500 715 q 326 700 392 715 q 194 653 260 685 l 186 653 q 183 792 168 717 q 208 868 192 832 q 264 935 225 904 q 369 985 307 969 q 531 1000 431 1000 z "},"3":{"ha":833,"x_min":-32,"x_max":881,"o":"m 511 1000 q 739 963 657 1000 q 851 870 821 926 q 868 757 881 814 l 865 744 q 773 588 842 653 q 565 486 704 524 l 564 478 q 729 372 688 444 q 749 218 771 300 l 744 203 q 609 25 710 78 q 313 -28 508 -28 q 117 -7 190 -28 q 18 46 44 14 q 3 224 -32 106 q 30 288 13 256 q 65 342 47 319 l 74 342 q 192 287 131 303 q 331 271 254 271 q 549 313 478 271 l 550 318 q 460 367 515 350 q 310 383 406 383 q 247 486 222 383 q 276 560 257 525 q 465 585 388 560 q 581 654 542 610 l 582 660 q 424 703 547 703 q 294 688 351 703 q 183 639 236 674 l 175 639 q 164 714 165 669 q 172 797 163 758 q 201 869 182 833 q 263 939 221 906 q 367 987 307 974 q 511 1000 426 1000 z "},"4":{"ha":833,"x_min":-10,"x_max":901,"o":"m 569 597 l 578 597 q 732 522 750 597 l 711 438 q 797 403 779 438 q 799 300 814 368 q 774 222 788 253 q 743 167 760 190 l 643 167 l 640 156 q 623 68 626 103 q 619 0 619 33 q 461 -10 543 -10 q 320 22 351 -10 q 307 118 289 53 q 319 167 314 143 l 81 167 q 10 232 29 167 q 18 401 -10 297 l 22 417 q 71 525 35 461 q 158 660 107 589 q 269 795 210 731 q 385 904 328 860 q 509 978 451 957 q 638 1000 567 1000 q 776 967 707 1000 q 901 869 846 935 l 900 864 q 567 683 731 797 q 282 415 404 568 l 281 407 q 421 432 356 425 q 490 521 451 478 q 569 597 528 564 z "},"5":{"ha":833,"x_min":-17,"x_max":899,"o":"m 242 972 l 765 972 q 870 931 842 972 q 875 797 899 889 q 857 744 868 771 q 831 694 846 718 l 449 694 l 446 686 q 449 607 475 661 q 430 570 439 588 q 410 526 421 553 l 418 526 q 498 572 458 558 q 583 586 538 586 q 706 549 657 586 q 774 449 754 511 q 774 313 793 388 l 769 296 q 677 103 739 174 q 519 2 615 32 q 292 -28 424 -28 q 141 -15 199 -28 q 53 16 83 -3 q 10 53 22 35 q -11 110 -6 76 q -6 192 -17 144 q 22 265 6 235 q 57 319 38 294 l 65 319 q 185 272 128 286 q 315 257 243 257 q 455 271 397 257 q 546 319 513 285 l 546 322 q 408 372 517 372 l 244 372 q 143 394 164 372 q 132 453 122 417 q 185 585 151 522 q 260 706 218 649 q 197 756 211 721 q 197 851 183 792 q 219 919 207 890 q 242 972 231 949 z "},"6":{"ha":833,"x_min":15,"x_max":879,"o":"m 653 1000 q 781 983 732 1000 q 847 944 829 967 q 873 891 867 922 q 868 818 879 860 q 811 699 850 749 l 803 699 q 597 736 706 736 q 515 731 549 736 q 456 715 482 726 q 410 621 431 672 q 368 500 389 569 l 378 500 q 576 592 454 592 q 749 512 697 592 q 769 303 801 432 l 763 275 q 678 94 735 161 q 540 0 622 28 q 351 -28 458 -28 q 155 20 236 -28 q 44 168 74 68 q 54 422 15 268 l 67 471 q 192 776 115 660 q 383 946 269 892 q 653 1000 497 1000 m 322 239 q 347 233 333 235 q 378 232 361 232 q 493 311 481 232 l 494 319 q 490 375 499 347 q 458 381 475 379 q 417 383 442 383 q 336 374 374 383 l 329 347 q 319 287 321 314 q 322 239 318 260 z "},"7":{"ha":833,"x_min":92,"x_max":906,"o":"m 457 0 q 385 -21 431 -14 q 288 -28 340 -28 q 167 14 201 -28 q 147 124 133 56 q 183 210 157 168 q 262 306 208 251 q 407 443 315 361 q 532 571 488 515 q 607 688 576 626 l 608 696 q 499 678 549 682 q 394 674 450 674 l 392 674 q 378 626 385 650 q 365 581 371 603 q 300 568 339 572 q 219 564 261 564 q 122 593 151 564 q 113 707 92 622 q 160 848 129 774 q 232 1000 190 922 q 358 989 307 1000 q 435 958 408 978 l 810 958 q 871 922 849 958 q 899 831 893 885 q 892 725 906 778 l 890 719 q 863 643 881 681 q 813 558 846 606 q 721 443 779 511 q 598 294 647 358 q 519 181 549 231 q 476 88 490 131 q 457 0 461 44 z "},"8":{"ha":833,"x_min":-8,"x_max":878,"o":"m 546 1000 q 739 962 664 1000 q 846 862 814 924 q 863 728 878 800 l 861 721 q 782 569 842 619 q 629 503 722 519 l 626 494 q 737 385 711 454 q 743 246 763 315 l 738 226 q 656 74 710 129 q 519 -5 603 18 q 319 -28 436 -28 q 69 44 146 -28 q 26 256 -8 117 l 29 267 q 105 386 46 336 q 257 457 164 436 l 260 465 q 153 576 185 508 q 144 739 121 643 l 149 756 q 218 881 167 825 q 353 968 269 936 q 546 1000 436 1000 m 403 669 q 463 561 385 600 q 574 682 554 606 l 575 688 q 578 739 582 717 q 514 750 550 750 q 443 733 472 750 q 406 681 414 715 l 403 669 m 303 300 q 315 258 297 275 q 382 242 333 242 q 437 247 410 242 q 483 261 464 251 l 490 269 q 449 376 514 349 l 390 403 q 328 350 349 375 q 304 307 307 325 l 303 300 z "},"9":{"ha":833,"x_min":7,"x_max":856,"o":"m 519 1000 q 694 963 624 1000 q 803 863 765 926 q 849 719 842 800 q 833 550 856 638 l 819 496 q 726 238 779 340 q 603 78 672 136 q 448 -4 535 19 q 253 -28 361 -28 q 110 -10 164 -28 q 36 33 56 7 q 13 86 18 57 q 17 153 7 115 q 42 219 26 189 q 79 274 58 249 l 88 274 q 201 244 143 253 q 313 236 258 236 q 377 240 344 236 q 440 254 410 244 q 473 332 457 288 q 506 435 489 376 l 497 435 q 410 365 456 383 q 310 347 364 347 q 177 388 229 347 q 108 503 125 429 q 115 675 90 576 l 118 686 q 255 915 154 829 q 519 1000 356 1000 m 386 564 q 418 557 401 558 q 456 556 435 556 q 542 567 494 556 l 553 611 q 563 733 569 676 q 538 735 550 735 q 508 736 525 736 q 429 714 457 736 q 389 647 401 692 l 386 638 q 381 600 381 619 q 386 564 382 581 z "}," ":{"ha":417,"x_min":0,"x_max":0,"o":""}," ":{"ha":417,"x_min":0,"x_max":0,"o":"z "}," ":{"ha":833,"x_min":0,"x_max":0,"o":""}," ":{"ha":417,"x_min":0,"x_max":0,"o":""}," ":{"ha":69,"x_min":0,"x_max":0,"o":""}," ":{"ha":69,"x_min":0,"x_max":0,"o":""},"A":{"ha":903,"x_min":11,"x_max":838,"o":"m 314 0 q 259 -10 288 -7 q 203 -14 231 -14 q 89 8 126 -14 q 43 72 51 29 q 46 182 35 115 q 47 190 47 186 q 16 256 21 204 q 26 375 11 308 l 40 435 l 108 435 q 252 744 167 607 q 432 974 338 882 q 508 983 474 981 q 579 986 543 986 q 747 942 694 986 q 817 807 799 899 q 837 542 836 694 q 806 189 838 389 q 794 89 796 129 q 800 0 793 49 q 740 -10 768 -7 q 688 -14 711 -14 q 535 28 578 -14 q 514 185 492 69 l 335 185 q 320 85 325 132 q 314 0 315 39 m 421 435 q 495 419 465 435 q 539 379 525 403 l 547 381 q 559 557 558 472 q 551 718 560 642 l 544 719 q 463 577 499 649 q 403 435 428 506 l 421 435 z "},"À":{"ha":903,"x_min":11,"x_max":838,"o":"m 314 0 q 259 -10 288 -7 q 203 -14 231 -14 q 89 8 126 -14 q 43 72 51 29 q 46 182 35 115 q 47 190 47 186 q 16 256 21 204 q 26 375 11 308 l 40 435 l 108 435 q 252 744 167 607 q 432 974 338 882 q 508 983 474 981 q 579 986 543 986 q 747 942 694 986 q 817 807 799 899 q 837 542 836 694 q 806 189 838 389 q 794 89 796 129 q 800 0 793 49 q 740 -10 768 -7 q 688 -14 711 -14 q 535 28 578 -14 q 514 185 492 69 l 335 185 q 320 85 325 132 q 314 0 315 39 m 421 435 q 495 419 465 435 q 539 379 525 403 l 547 381 q 559 557 558 472 q 551 718 560 642 l 544 719 q 463 577 499 649 q 403 435 428 506 l 421 435 m 663 1311 q 690 1190 669 1243 q 758 1076 711 1138 q 678 1061 724 1065 q 601 1057 632 1057 q 543 1063 568 1057 q 504 1076 518 1068 q 436 1142 461 1104 q 401 1231 411 1181 q 409 1263 399 1246 q 442 1286 419 1279 q 555 1307 494 1303 q 663 1311 615 1311 z "},"Á":{"ha":903,"x_min":11,"x_max":907,"o":"m 314 0 q 259 -10 288 -7 q 203 -14 231 -14 q 89 8 126 -14 q 43 72 51 29 q 46 182 35 115 q 47 190 47 186 q 16 256 21 204 q 26 375 11 308 l 40 435 l 108 435 q 252 744 167 607 q 432 974 338 882 q 508 983 474 981 q 579 986 543 986 q 747 942 694 986 q 817 807 799 899 q 837 542 836 694 q 806 189 838 389 q 794 89 796 129 q 800 0 793 49 q 740 -10 768 -7 q 688 -14 711 -14 q 535 28 578 -14 q 514 185 492 69 l 335 185 q 320 85 325 132 q 314 0 315 39 m 421 435 q 495 419 465 435 q 539 379 525 403 l 547 381 q 559 557 558 472 q 551 718 560 642 l 544 719 q 463 577 499 649 q 403 435 428 506 l 421 435 m 663 1311 q 781 1306 724 1310 q 883 1286 839 1303 q 906 1263 904 1279 q 896 1231 907 1246 q 817 1134 856 1168 q 729 1076 778 1100 q 677 1063 711 1068 q 610 1057 643 1057 q 536 1061 579 1057 q 461 1076 493 1065 q 549 1151 514 1118 q 609 1221 583 1183 q 663 1311 635 1258 z "},"Â":{"ha":903,"x_min":11,"x_max":911,"o":"m 314 0 q 259 -10 288 -7 q 203 -14 231 -14 q 89 8 126 -14 q 43 72 51 29 q 46 182 35 115 q 47 190 47 186 q 16 256 21 204 q 26 375 11 308 l 40 435 l 108 435 q 252 744 167 607 q 432 974 338 882 q 508 983 474 981 q 579 986 543 986 q 747 942 694 986 q 817 807 799 899 q 837 542 836 694 q 806 189 838 389 q 794 89 796 129 q 800 0 793 49 q 740 -10 768 -7 q 688 -14 711 -14 q 535 28 578 -14 q 514 185 492 69 l 335 185 q 320 85 325 132 q 314 0 315 39 m 421 435 q 495 419 465 435 q 539 379 525 403 l 547 381 q 559 557 558 472 q 551 718 560 642 l 544 719 q 463 577 499 649 q 403 435 428 506 l 421 435 m 594 1333 q 630 1338 610 1336 q 660 1339 650 1339 q 733 1331 703 1339 q 796 1286 763 1322 q 862 1197 832 1247 q 911 1082 892 1147 q 771 1043 835 1043 q 729 1056 743 1043 q 700 1093 715 1068 q 678 1126 690 1110 q 649 1161 667 1143 l 640 1161 q 567 1100 596 1129 q 521 1049 539 1071 l 513 1049 q 399 1058 438 1049 q 349 1081 361 1067 q 340 1111 336 1094 q 355 1145 343 1125 q 389 1189 367 1165 q 486 1270 429 1231 q 594 1333 543 1310 z "},"Ã":{"ha":903,"x_min":11,"x_max":944,"o":"m 314 0 q 259 -10 288 -7 q 203 -14 231 -14 q 89 8 126 -14 q 43 72 51 29 q 46 182 35 115 q 47 190 47 186 q 16 256 21 204 q 26 375 11 308 l 40 435 l 108 435 q 252 744 167 607 q 432 974 338 882 q 508 983 474 981 q 579 986 543 986 q 747 942 694 986 q 817 807 799 899 q 837 542 836 694 q 806 189 838 389 q 794 89 796 129 q 800 0 793 49 q 740 -10 768 -7 q 688 -14 711 -14 q 535 28 578 -14 q 514 185 492 69 l 335 185 q 320 85 325 132 q 314 0 315 39 m 421 435 q 495 419 465 435 q 539 379 525 403 l 547 381 q 559 557 558 472 q 551 718 560 642 l 544 719 q 463 577 499 649 q 403 435 428 506 l 421 435 m 799 1267 q 867 1277 840 1267 q 928 1319 893 1288 l 936 1319 q 944 1269 943 1296 q 939 1210 944 1243 q 915 1124 931 1156 q 874 1072 900 1093 q 828 1048 851 1054 q 778 1042 806 1042 q 679 1060 724 1042 q 592 1096 635 1078 q 501 1114 550 1114 q 432 1101 460 1114 q 372 1061 404 1089 l 364 1061 q 361 1171 353 1108 q 384 1254 368 1224 q 426 1306 400 1285 q 526 1339 468 1339 q 623 1321 579 1339 q 708 1285 667 1303 q 799 1267 750 1267 z "},"Ä":{"ha":903,"x_min":11,"x_max":918,"o":"m 314 0 q 259 -10 288 -7 q 203 -14 231 -14 q 89 8 126 -14 q 43 72 51 29 q 46 182 35 115 q 47 190 47 186 q 16 256 21 204 q 26 375 11 308 l 40 435 l 108 435 q 252 744 167 607 q 432 974 338 882 q 508 983 474 981 q 579 986 543 986 q 747 942 694 986 q 817 807 799 899 q 837 542 836 694 q 806 189 838 389 q 794 89 796 129 q 800 0 793 49 q 740 -10 768 -7 q 688 -14 711 -14 q 535 28 578 -14 q 514 185 492 69 l 335 185 q 320 85 325 132 q 314 0 315 39 m 421 435 q 495 419 465 435 q 539 379 525 403 l 547 381 q 559 557 558 472 q 551 718 560 642 l 544 719 q 463 577 499 649 q 403 435 428 506 l 421 435 m 418 1296 q 466 1299 442 1299 q 508 1300 490 1300 q 602 1261 582 1300 q 601 1153 622 1222 l 585 1096 q 538 1091 563 1092 q 493 1090 513 1090 q 403 1122 424 1090 q 401 1231 382 1154 l 418 1296 m 714 1296 q 762 1299 738 1299 q 804 1300 786 1300 q 898 1261 878 1300 q 897 1153 918 1222 l 881 1096 q 833 1091 858 1092 q 789 1090 808 1090 q 699 1122 719 1090 q 697 1231 678 1154 l 714 1296 z "},"Å":{"ha":903,"x_min":11,"x_max":924,"o":"m 314 0 q 259 -10 288 -7 q 203 -14 231 -14 q 89 8 126 -14 q 43 72 51 29 q 46 182 35 115 q 47 190 47 186 q 16 256 21 204 q 26 375 11 308 l 40 435 l 108 435 q 232 710 160 586 q 385 924 304 833 q 338 991 350 951 q 333 1081 326 1031 l 335 1090 q 427 1227 346 1172 q 647 1282 508 1282 q 809 1249 746 1282 q 898 1163 872 1217 q 904 1044 924 1110 l 901 1035 q 783 900 874 938 q 817 807 806 864 q 837 542 836 694 q 806 189 838 389 q 794 89 796 129 q 800 0 793 49 q 740 -10 768 -7 q 688 -14 711 -14 q 535 28 578 -14 q 514 185 492 69 l 335 185 q 320 85 325 132 q 314 0 315 39 m 653 1156 q 571 1130 603 1156 q 531 1064 539 1104 l 529 1057 q 527 1032 526 1043 q 529 1011 528 1021 q 563 1003 544 1006 q 600 1001 582 1001 q 672 1017 643 1001 q 711 1063 701 1032 l 714 1072 q 699 1149 728 1119 q 653 1156 678 1156 m 421 435 q 495 419 465 435 q 539 379 525 403 l 547 381 q 559 557 558 472 q 551 718 560 642 l 544 719 q 463 577 499 649 q 403 435 428 506 l 421 435 z "},"Ā":{"ha":903,"x_min":11,"x_max":958,"o":"m 314 0 q 259 -10 288 -7 q 203 -14 231 -14 q 89 8 126 -14 q 43 72 51 29 q 46 182 35 115 q 47 190 47 186 q 16 256 21 204 q 26 375 11 308 l 40 435 l 108 435 q 252 744 167 607 q 432 974 338 882 q 508 983 474 981 q 579 986 543 986 q 747 942 694 986 q 817 807 799 899 q 837 542 836 694 q 806 189 838 389 q 794 89 796 129 q 800 0 793 49 q 740 -10 768 -7 q 688 -14 711 -14 q 535 28 578 -14 q 514 185 492 69 l 335 185 q 320 85 325 132 q 314 0 315 39 m 421 435 q 495 419 465 435 q 539 379 525 403 l 547 381 q 559 557 558 472 q 551 718 560 642 l 544 719 q 463 577 499 649 q 403 435 428 506 l 421 435 m 383 1294 l 858 1294 q 938 1260 917 1294 q 943 1175 958 1225 q 921 1117 932 1138 q 899 1082 910 1097 l 501 1082 q 378 1113 408 1082 q 361 1221 347 1144 q 383 1294 369 1265 z "},"Ă":{"ha":903,"x_min":11,"x_max":939,"o":"m 314 0 q 259 -10 288 -7 q 203 -14 231 -14 q 89 8 126 -14 q 43 72 51 29 q 46 182 35 115 q 47 190 47 186 q 16 256 21 204 q 26 375 11 308 l 40 435 l 108 435 q 252 744 167 607 q 432 974 338 882 q 508 983 474 981 q 579 986 543 986 q 747 942 694 986 q 817 807 799 899 q 837 542 836 694 q 806 189 838 389 q 794 89 796 129 q 800 0 793 49 q 740 -10 768 -7 q 688 -14 711 -14 q 535 28 578 -14 q 514 185 492 69 l 335 185 q 320 85 325 132 q 314 0 315 39 m 421 435 q 495 419 465 435 q 539 379 525 403 l 547 381 q 559 557 558 472 q 551 718 560 642 l 544 719 q 463 577 499 649 q 403 435 428 506 l 421 435 m 776 1318 q 862 1313 825 1318 q 918 1296 899 1307 q 928 1253 939 1285 q 823 1110 893 1151 q 653 1069 753 1069 l 644 1069 q 477 1121 539 1069 q 406 1253 415 1172 q 411 1278 404 1268 q 431 1294 418 1289 q 490 1313 458 1308 q 568 1318 521 1318 q 595 1263 575 1281 q 653 1240 615 1244 q 728 1260 699 1242 q 776 1318 757 1279 z "},"Ą":{"ha":903,"x_min":11,"x_max":838,"o":"m 314 0 q 259 -10 288 -7 q 203 -14 231 -14 q 89 8 126 -14 q 43 72 51 29 q 46 182 35 115 q 47 190 47 186 q 16 256 21 204 q 26 375 11 308 l 40 435 l 108 435 q 252 744 167 607 q 432 974 338 882 q 508 983 474 981 q 579 986 543 986 q 747 942 694 986 q 817 807 799 899 q 837 542 836 694 q 806 189 838 389 q 794 89 796 129 q 800 0 793 49 q 794 -1 797 -1 q 768 -19 788 -17 q 687 -44 708 -31 q 660 -78 665 -58 q 667 -110 654 -100 q 701 -119 679 -119 q 763 -92 740 -119 l 771 -92 q 781 -137 779 -112 q 776 -196 783 -162 q 715 -308 763 -268 q 586 -347 668 -347 q 446 -306 497 -347 q 408 -162 394 -264 q 550 15 425 -44 q 510 77 518 36 q 514 185 501 118 l 335 185 q 320 85 325 132 q 314 0 315 39 m 421 435 q 495 419 465 435 q 539 379 525 403 l 547 381 q 559 557 558 472 q 551 718 560 642 l 544 719 q 463 577 499 649 q 403 435 428 506 l 421 435 z "},"Ǻ":{"ha":903,"x_min":11,"x_max":1013,"o":"m 314 0 q 259 -10 288 -7 q 203 -14 231 -14 q 89 8 126 -14 q 43 72 51 29 q 46 182 35 115 q 47 190 47 186 q 16 256 21 204 q 26 375 11 308 l 40 435 l 108 435 q 232 710 160 586 q 385 924 304 833 q 338 991 350 951 q 333 1081 326 1031 l 335 1090 q 417 1220 346 1167 q 613 1281 489 1274 q 700 1370 667 1328 q 768 1479 733 1413 q 887 1474 829 1478 q 989 1454 944 1471 q 1011 1431 1010 1447 q 1001 1399 1013 1414 q 922 1302 961 1336 q 835 1244 883 1268 q 825 1240 831 1243 q 901 1156 879 1208 q 904 1044 922 1104 l 901 1035 q 783 900 874 938 q 817 807 806 864 q 837 542 836 694 q 806 189 838 389 q 794 89 796 129 q 800 0 793 49 q 740 -10 768 -7 q 688 -14 711 -14 q 535 28 578 -14 q 514 185 492 69 l 335 185 q 320 85 325 132 q 314 0 315 39 m 653 1156 q 571 1130 603 1156 q 531 1064 539 1104 l 529 1057 q 527 1032 526 1043 q 529 1011 528 1021 q 563 1003 544 1006 q 600 1001 582 1001 q 672 1017 643 1001 q 711 1063 701 1032 l 714 1072 q 699 1149 728 1119 q 653 1156 678 1156 m 421 435 q 495 419 465 435 q 539 379 525 403 l 547 381 q 559 557 558 472 q 551 718 560 642 l 544 719 q 463 577 499 649 q 403 435 428 506 l 421 435 z "},"Ȁ":{"ha":903,"x_min":11,"x_max":924,"o":"m 494 1313 q 522 1192 501 1244 q 590 1078 543 1139 q 510 1063 556 1067 q 433 1058 464 1058 q 375 1064 400 1058 q 336 1078 350 1069 q 268 1144 293 1106 q 233 1232 243 1182 q 241 1264 231 1247 q 274 1288 251 1281 q 387 1308 326 1304 q 494 1313 447 1313 m 828 1313 q 856 1192 835 1244 q 924 1078 876 1139 q 843 1063 889 1067 q 767 1058 797 1058 q 708 1064 733 1058 q 669 1078 683 1069 q 601 1144 626 1106 q 567 1232 576 1182 q 574 1264 564 1247 q 607 1288 585 1281 q 720 1308 660 1304 q 828 1313 781 1313 m 314 0 q 259 -10 288 -7 q 203 -14 231 -14 q 89 8 126 -14 q 43 72 51 29 q 46 182 35 115 q 47 190 47 186 q 16 256 21 204 q 26 375 11 308 l 40 435 l 108 435 q 252 744 167 607 q 432 974 338 882 q 508 983 474 981 q 579 986 543 986 q 747 942 694 986 q 817 807 799 899 q 837 542 836 694 q 806 189 838 389 q 794 89 796 129 q 800 0 793 49 q 740 -10 768 -7 q 688 -14 711 -14 q 535 28 578 -14 q 514 185 492 69 l 335 185 q 320 85 325 132 q 314 0 315 39 m 421 435 q 495 419 465 435 q 539 379 525 403 l 547 381 q 559 557 558 472 q 551 718 560 642 l 544 719 q 463 577 499 649 q 403 435 428 506 l 421 435 z "},"Ȃ":{"ha":903,"x_min":11,"x_max":901,"o":"m 314 0 q 259 -10 288 -7 q 203 -14 231 -14 q 89 8 126 -14 q 43 72 51 29 q 46 182 35 115 q 47 190 47 186 q 16 256 21 204 q 26 375 11 308 l 40 435 l 108 435 q 252 744 167 607 q 432 974 338 882 q 508 983 474 981 q 579 986 543 986 q 747 942 694 986 q 817 807 799 899 q 837 542 836 694 q 806 189 838 389 q 794 89 796 129 q 800 0 793 49 q 740 -10 768 -7 q 688 -14 711 -14 q 535 28 578 -14 q 514 185 492 69 l 335 185 q 320 85 325 132 q 314 0 315 39 m 421 435 q 495 419 465 435 q 539 379 525 403 l 547 381 q 559 557 558 472 q 551 718 560 642 l 544 719 q 463 577 499 649 q 403 435 428 506 l 421 435 m 528 1083 q 443 1089 481 1083 q 386 1106 406 1094 q 376 1149 365 1117 q 481 1291 411 1250 q 651 1332 551 1332 l 660 1332 q 827 1281 765 1332 q 899 1149 889 1231 q 894 1124 901 1135 q 874 1107 886 1114 q 816 1088 847 1093 q 736 1083 785 1083 q 710 1139 731 1121 q 651 1161 689 1157 q 576 1141 606 1160 q 528 1083 547 1122 z "},"Ạ":{"ha":903,"x_min":11,"x_max":838,"o":"m 314 0 q 259 -10 288 -7 q 203 -14 231 -14 q 89 8 126 -14 q 43 72 51 29 q 46 182 35 115 q 47 190 47 186 q 16 256 21 204 q 26 375 11 308 l 40 435 l 108 435 q 252 744 167 607 q 432 974 338 882 q 508 983 474 981 q 579 986 543 986 q 747 942 694 986 q 817 807 799 899 q 837 542 836 694 q 806 189 838 389 q 794 89 796 129 q 800 0 793 49 q 740 -10 768 -7 q 688 -14 711 -14 q 535 28 578 -14 q 514 185 492 69 l 335 185 q 320 85 325 132 q 314 0 315 39 m 421 435 q 495 419 465 435 q 539 379 525 403 l 547 381 q 559 557 558 472 q 551 718 560 642 l 544 719 q 463 577 499 649 q 403 435 428 506 l 421 435 m 235 -106 q 292 -99 263 -101 q 346 -97 322 -97 q 453 -131 426 -97 q 461 -243 481 -165 l 447 -299 q 391 -305 421 -303 q 338 -307 361 -307 q 228 -275 256 -307 q 224 -151 201 -243 l 235 -106 z "},"Ả":{"ha":903,"x_min":11,"x_max":869,"o":"m 314 0 q 259 -10 288 -7 q 203 -14 231 -14 q 89 8 126 -14 q 43 72 51 29 q 46 182 35 115 q 47 190 47 186 q 16 256 21 204 q 26 375 11 308 l 40 435 l 108 435 q 252 744 167 607 q 432 974 338 882 q 508 983 474 981 q 579 986 543 986 q 747 942 694 986 q 817 807 799 899 q 837 542 836 694 q 806 189 838 389 q 794 89 796 129 q 800 0 793 49 q 740 -10 768 -7 q 688 -14 711 -14 q 535 28 578 -14 q 514 185 492 69 l 335 185 q 320 85 325 132 q 314 0 315 39 m 421 435 q 495 419 465 435 q 539 379 525 403 l 547 381 q 559 557 558 472 q 551 718 560 642 l 544 719 q 463 577 499 649 q 403 435 428 506 l 421 435 m 514 1089 q 540 1119 519 1110 q 601 1139 560 1129 q 665 1157 647 1150 q 683 1171 682 1164 l 683 1178 q 664 1180 675 1179 q 636 1181 653 1181 q 510 1158 575 1181 l 501 1158 q 492 1190 493 1172 q 493 1229 490 1207 q 550 1314 501 1282 q 606 1338 572 1329 q 686 1347 639 1347 q 794 1326 753 1347 q 853 1272 836 1304 q 863 1206 869 1239 l 861 1199 q 836 1145 856 1165 q 778 1104 817 1125 q 731 1074 744 1086 q 707 1044 717 1061 q 610 1035 660 1035 q 535 1049 563 1035 q 514 1089 508 1063 z "},"Ấ":{"ha":903,"x_min":11,"x_max":1189,"o":"m 314 0 q 259 -10 288 -7 q 203 -14 231 -14 q 89 8 126 -14 q 43 72 51 29 q 46 182 35 115 q 47 190 47 186 q 16 256 21 204 q 26 375 11 308 l 40 435 l 108 435 q 252 744 167 607 q 432 974 338 882 q 508 983 474 981 q 579 986 543 986 q 747 942 694 986 q 817 807 799 899 q 837 542 836 694 q 806 189 838 389 q 794 89 796 129 q 800 0 793 49 q 740 -10 768 -7 q 688 -14 711 -14 q 535 28 578 -14 q 514 185 492 69 l 335 185 q 320 85 325 132 q 314 0 315 39 m 421 435 q 495 419 465 435 q 539 379 525 403 l 547 381 q 559 557 558 472 q 551 718 560 642 l 544 719 q 463 577 499 649 q 403 435 428 506 l 421 435 m 594 1333 q 630 1338 610 1336 q 660 1339 650 1339 q 733 1331 703 1339 q 796 1286 763 1322 q 862 1197 832 1247 q 911 1082 892 1147 q 771 1043 835 1043 q 729 1056 743 1043 q 700 1093 715 1068 q 678 1126 690 1110 q 649 1161 667 1143 l 640 1161 q 567 1100 596 1129 q 521 1049 539 1071 l 513 1049 q 399 1058 438 1049 q 349 1081 361 1067 q 340 1111 336 1094 q 355 1145 343 1125 q 389 1189 367 1165 q 486 1270 429 1231 q 594 1333 543 1310 m 985 1538 q 1067 1533 1033 1538 q 1135 1518 1101 1529 q 1150 1431 1189 1500 q 1094 1357 1128 1390 q 1025 1304 1061 1324 q 981 1288 1003 1292 q 935 1283 958 1283 q 814 1306 872 1283 q 904 1406 865 1353 q 985 1538 943 1458 z "},"Ầ":{"ha":903,"x_min":11,"x_max":1013,"o":"m 314 0 q 259 -10 288 -7 q 203 -14 231 -14 q 89 8 126 -14 q 43 72 51 29 q 46 182 35 115 q 47 190 47 186 q 16 256 21 204 q 26 375 11 308 l 40 435 l 108 435 q 252 744 167 607 q 432 974 338 882 q 508 983 474 981 q 579 986 543 986 q 747 942 694 986 q 817 807 799 899 q 837 542 836 694 q 806 189 838 389 q 794 89 796 129 q 800 0 793 49 q 740 -10 768 -7 q 688 -14 711 -14 q 535 28 578 -14 q 514 185 492 69 l 335 185 q 320 85 325 132 q 314 0 315 39 m 421 435 q 495 419 465 435 q 539 379 525 403 l 547 381 q 559 557 558 472 q 551 718 560 642 l 544 719 q 463 577 499 649 q 403 435 428 506 l 421 435 m 594 1333 q 630 1338 610 1336 q 660 1339 650 1339 q 733 1331 703 1339 q 796 1286 763 1322 q 862 1197 832 1247 q 911 1082 892 1147 q 771 1043 835 1043 q 729 1056 743 1043 q 700 1093 715 1068 q 678 1126 690 1110 q 649 1161 667 1143 l 640 1161 q 567 1100 596 1129 q 521 1049 539 1071 l 513 1049 q 399 1058 438 1049 q 349 1081 361 1067 q 340 1111 336 1094 q 355 1145 343 1125 q 389 1189 367 1165 q 486 1270 429 1231 q 594 1333 543 1310 m 958 1535 q 976 1406 964 1460 q 1013 1300 989 1351 q 963 1287 988 1290 q 907 1283 938 1283 q 865 1288 885 1283 q 828 1304 844 1292 q 779 1357 801 1324 q 753 1431 757 1390 q 763 1485 749 1463 q 811 1518 776 1508 q 877 1531 843 1526 q 958 1535 911 1535 z "},"Ẩ":{"ha":903,"x_min":11,"x_max":1172,"o":"m 314 0 q 259 -10 288 -7 q 203 -14 231 -14 q 89 8 126 -14 q 43 72 51 29 q 46 182 35 115 q 47 190 47 186 q 16 256 21 204 q 26 375 11 308 l 40 435 l 108 435 q 252 744 167 607 q 432 974 338 882 q 508 983 474 981 q 579 986 543 986 q 747 942 694 986 q 817 807 799 899 q 837 542 836 694 q 806 189 838 389 q 794 89 796 129 q 800 0 793 49 q 740 -10 768 -7 q 688 -14 711 -14 q 535 28 578 -14 q 514 185 492 69 l 335 185 q 320 85 325 132 q 314 0 315 39 m 421 435 q 495 419 465 435 q 539 379 525 403 l 547 381 q 559 557 558 472 q 551 718 560 642 l 544 719 q 463 577 499 649 q 403 435 428 506 l 421 435 m 594 1333 q 630 1338 610 1336 q 660 1339 650 1339 q 733 1331 703 1339 q 796 1286 763 1322 q 862 1197 832 1247 q 911 1082 892 1147 q 771 1043 835 1043 q 729 1056 743 1043 q 700 1093 715 1068 q 678 1126 690 1110 q 649 1161 667 1143 l 640 1161 q 567 1100 596 1129 q 521 1049 539 1071 l 513 1049 q 399 1058 438 1049 q 349 1081 361 1067 q 340 1111 336 1094 q 355 1145 343 1125 q 389 1189 367 1165 q 486 1270 429 1231 q 594 1333 543 1310 m 817 1313 q 842 1343 822 1333 q 904 1363 863 1353 q 967 1381 950 1374 q 986 1394 985 1388 l 986 1401 q 967 1403 978 1403 q 939 1404 956 1404 q 813 1382 878 1404 l 804 1382 q 794 1413 796 1396 q 796 1453 793 1431 q 853 1538 804 1506 q 908 1562 875 1553 q 989 1571 942 1571 q 1097 1549 1056 1571 q 1156 1495 1139 1528 q 1165 1429 1172 1463 l 1164 1422 q 1139 1369 1158 1389 q 1081 1328 1119 1349 q 1033 1297 1047 1310 q 1010 1268 1019 1285 q 913 1258 963 1258 q 838 1272 865 1258 q 817 1313 811 1286 z "},"Ẫ":{"ha":903,"x_min":11,"x_max":975,"o":"m 314 0 q 259 -10 288 -7 q 203 -14 231 -14 q 89 8 126 -14 q 43 72 51 29 q 46 182 35 115 q 47 190 47 186 q 16 256 21 204 q 26 375 11 308 l 40 435 l 108 435 q 252 744 167 607 q 432 974 338 882 q 508 983 474 981 q 579 986 543 986 q 747 942 694 986 q 817 807 799 899 q 837 542 836 694 q 806 189 838 389 q 794 89 796 129 q 800 0 793 49 q 740 -10 768 -7 q 688 -14 711 -14 q 535 28 578 -14 q 514 185 492 69 l 335 185 q 320 85 325 132 q 314 0 315 39 m 421 435 q 495 419 465 435 q 539 379 525 403 l 547 381 q 559 557 558 472 q 551 718 560 642 l 544 719 q 463 577 499 649 q 403 435 428 506 l 421 435 m 594 1333 q 630 1338 610 1336 q 660 1339 650 1339 q 733 1331 703 1339 q 796 1286 763 1322 q 862 1197 832 1247 q 911 1082 892 1147 q 771 1043 835 1043 q 729 1056 743 1043 q 700 1093 715 1068 q 678 1126 690 1110 q 649 1161 667 1143 l 640 1161 q 567 1100 596 1129 q 521 1049 539 1071 l 513 1049 q 399 1058 438 1049 q 349 1081 361 1067 q 340 1111 336 1094 q 355 1145 343 1125 q 389 1189 367 1165 q 486 1270 429 1231 q 594 1333 543 1310 m 843 1544 q 899 1556 875 1544 q 958 1597 924 1567 l 967 1597 q 963 1488 975 1554 q 941 1421 956 1449 q 900 1372 926 1393 q 804 1339 858 1339 q 731 1357 763 1339 q 665 1393 699 1375 q 582 1411 631 1411 q 527 1398 551 1411 q 475 1358 503 1385 l 467 1358 q 472 1468 460 1404 q 493 1534 479 1506 q 533 1583 507 1563 q 628 1617 575 1617 q 708 1599 675 1617 q 772 1563 740 1581 q 843 1544 803 1544 z "},"Ậ":{"ha":903,"x_min":11,"x_max":911,"o":"m 233 -106 q 291 -99 261 -101 q 344 -97 321 -97 q 452 -131 425 -97 q 460 -243 479 -165 l 446 -299 q 390 -305 419 -303 q 336 -307 360 -307 q 227 -275 254 -307 q 222 -151 200 -243 l 233 -106 m 314 0 q 259 -10 288 -7 q 203 -14 231 -14 q 89 8 126 -14 q 43 72 51 29 q 46 182 35 115 q 47 190 47 186 q 16 256 21 204 q 26 375 11 308 l 40 435 l 108 435 q 252 744 167 607 q 432 974 338 882 q 508 983 474 981 q 579 986 543 986 q 747 942 694 986 q 817 807 799 899 q 837 542 836 694 q 806 189 838 389 q 794 89 796 129 q 800 0 793 49 q 740 -10 768 -7 q 688 -14 711 -14 q 535 28 578 -14 q 514 185 492 69 l 335 185 q 320 85 325 132 q 314 0 315 39 m 421 435 q 495 419 465 435 q 539 379 525 403 l 547 381 q 559 557 558 472 q 551 718 560 642 l 544 719 q 463 577 499 649 q 403 435 428 506 l 421 435 m 594 1333 q 630 1338 610 1336 q 660 1339 650 1339 q 733 1331 703 1339 q 796 1286 763 1322 q 862 1197 832 1247 q 911 1082 892 1147 q 771 1043 835 1043 q 729 1056 743 1043 q 700 1093 715 1068 q 678 1126 690 1110 q 649 1161 667 1143 l 640 1161 q 567 1100 596 1129 q 521 1049 539 1071 l 513 1049 q 399 1058 438 1049 q 349 1081 361 1067 q 340 1111 336 1094 q 355 1145 343 1125 q 389 1189 367 1165 q 486 1270 429 1231 q 594 1333 543 1310 z "},"Ắ":{"ha":903,"x_min":11,"x_max":960,"o":"m 314 0 q 259 -10 288 -7 q 203 -14 231 -14 q 89 8 126 -14 q 43 72 51 29 q 46 182 35 115 q 47 190 47 186 q 16 256 21 204 q 26 375 11 308 l 40 435 l 108 435 q 252 744 167 607 q 432 974 338 882 q 508 983 474 981 q 579 986 543 986 q 747 942 694 986 q 817 807 799 899 q 837 542 836 694 q 806 189 838 389 q 794 89 796 129 q 800 0 793 49 q 740 -10 768 -7 q 688 -14 711 -14 q 535 28 578 -14 q 514 185 492 69 l 335 185 q 320 85 325 132 q 314 0 315 39 m 421 435 q 495 419 465 435 q 539 379 525 403 l 547 381 q 559 557 558 472 q 551 718 560 642 l 544 719 q 463 577 499 649 q 403 435 428 506 l 421 435 m 776 1318 q 862 1313 825 1318 q 918 1296 899 1307 q 928 1253 939 1285 q 823 1110 893 1151 q 653 1069 753 1069 l 644 1069 q 477 1121 539 1069 q 406 1253 415 1172 q 411 1278 404 1268 q 431 1294 418 1289 q 490 1313 458 1308 q 568 1318 521 1318 q 595 1263 575 1281 q 653 1240 615 1244 q 728 1260 699 1242 q 776 1318 757 1279 m 756 1606 q 838 1601 804 1606 q 906 1586 872 1597 q 921 1499 960 1568 q 865 1425 899 1458 q 796 1372 832 1392 q 751 1356 774 1360 q 706 1351 729 1351 q 585 1374 643 1351 q 675 1474 636 1421 q 756 1606 714 1526 z "},"Ằ":{"ha":903,"x_min":11,"x_max":939,"o":"m 314 0 q 259 -10 288 -7 q 203 -14 231 -14 q 89 8 126 -14 q 43 72 51 29 q 46 182 35 115 q 47 190 47 186 q 16 256 21 204 q 26 375 11 308 l 40 435 l 108 435 q 252 744 167 607 q 432 974 338 882 q 508 983 474 981 q 579 986 543 986 q 747 942 694 986 q 817 807 799 899 q 837 542 836 694 q 806 189 838 389 q 794 89 796 129 q 800 0 793 49 q 740 -10 768 -7 q 688 -14 711 -14 q 535 28 578 -14 q 514 185 492 69 l 335 185 q 320 85 325 132 q 314 0 315 39 m 421 435 q 495 419 465 435 q 539 379 525 403 l 547 381 q 559 557 558 472 q 551 718 560 642 l 544 719 q 463 577 499 649 q 403 435 428 506 l 421 435 m 776 1318 q 862 1313 825 1318 q 918 1296 899 1307 q 928 1253 939 1285 q 823 1110 893 1151 q 653 1069 753 1069 l 644 1069 q 477 1121 539 1069 q 406 1253 415 1172 q 411 1278 404 1268 q 431 1294 418 1289 q 490 1313 458 1308 q 568 1318 521 1318 q 595 1263 575 1281 q 653 1240 615 1244 q 728 1260 699 1242 q 776 1318 757 1279 m 729 1603 q 747 1474 735 1528 q 783 1368 760 1419 q 733 1355 758 1358 q 678 1351 708 1351 q 635 1356 656 1351 q 599 1372 615 1360 q 550 1425 572 1392 q 524 1499 528 1458 q 533 1553 519 1531 q 582 1586 547 1576 q 648 1599 614 1594 q 729 1603 682 1603 z "},"Ẳ":{"ha":903,"x_min":11,"x_max":953,"o":"m 314 0 q 259 -10 288 -7 q 203 -14 231 -14 q 89 8 126 -14 q 43 72 51 29 q 46 182 35 115 q 47 190 47 186 q 16 256 21 204 q 26 375 11 308 l 40 435 l 108 435 q 252 744 167 607 q 432 974 338 882 q 508 983 474 981 q 579 986 543 986 q 747 942 694 986 q 817 807 799 899 q 837 542 836 694 q 806 189 838 389 q 794 89 796 129 q 800 0 793 49 q 740 -10 768 -7 q 688 -14 711 -14 q 535 28 578 -14 q 514 185 492 69 l 335 185 q 320 85 325 132 q 314 0 315 39 m 421 435 q 495 419 465 435 q 539 379 525 403 l 547 381 q 559 557 558 472 q 551 718 560 642 l 544 719 q 463 577 499 649 q 403 435 428 506 l 421 435 m 776 1318 q 862 1313 825 1318 q 918 1296 899 1307 q 928 1253 939 1285 q 823 1110 893 1151 q 653 1069 753 1069 l 644 1069 q 477 1121 539 1069 q 406 1253 415 1172 q 411 1278 404 1268 q 431 1294 418 1289 q 490 1313 458 1308 q 568 1318 521 1318 q 595 1263 575 1281 q 653 1240 615 1244 q 728 1260 699 1242 q 776 1318 757 1279 m 597 1418 q 623 1449 603 1439 q 685 1468 643 1458 q 748 1486 731 1479 q 767 1500 765 1493 l 767 1507 q 747 1509 758 1508 q 719 1510 736 1510 q 593 1488 658 1510 l 585 1488 q 575 1519 576 1501 q 576 1558 574 1536 q 633 1643 585 1611 q 689 1667 656 1658 q 769 1676 722 1676 q 878 1655 836 1676 q 936 1601 919 1633 q 946 1535 953 1568 l 944 1528 q 919 1474 939 1494 q 861 1433 900 1454 q 814 1403 828 1415 q 790 1374 800 1390 q 693 1364 743 1364 q 619 1378 646 1364 q 597 1418 592 1392 z "},"Ẵ":{"ha":903,"x_min":11,"x_max":974,"o":"m 314 0 q 259 -10 288 -7 q 203 -14 231 -14 q 89 8 126 -14 q 43 72 51 29 q 46 182 35 115 q 47 190 47 186 q 16 256 21 204 q 26 375 11 308 l 40 435 l 108 435 q 252 744 167 607 q 432 974 338 882 q 508 983 474 981 q 579 986 543 986 q 747 942 694 986 q 817 807 799 899 q 837 542 836 694 q 806 189 838 389 q 794 89 796 129 q 800 0 793 49 q 740 -10 768 -7 q 688 -14 711 -14 q 535 28 578 -14 q 514 185 492 69 l 335 185 q 320 85 325 132 q 314 0 315 39 m 421 435 q 495 419 465 435 q 539 379 525 403 l 547 381 q 559 557 558 472 q 551 718 560 642 l 544 719 q 463 577 499 649 q 403 435 428 506 l 421 435 m 776 1318 q 862 1313 825 1318 q 918 1296 899 1307 q 928 1253 939 1285 q 823 1110 893 1151 q 653 1069 753 1069 l 644 1069 q 477 1121 539 1069 q 406 1253 415 1172 q 411 1278 404 1268 q 431 1294 418 1289 q 490 1313 458 1308 q 568 1318 521 1318 q 595 1263 575 1281 q 653 1240 615 1244 q 728 1260 699 1242 q 776 1318 757 1279 m 842 1542 q 898 1553 874 1542 q 957 1594 922 1564 l 965 1594 q 961 1485 974 1551 q 940 1418 954 1446 q 899 1369 925 1390 q 803 1336 857 1336 q 729 1354 761 1336 q 663 1390 697 1372 q 581 1408 629 1408 q 526 1395 550 1408 q 474 1356 501 1382 l 465 1356 q 471 1465 458 1401 q 492 1531 478 1503 q 532 1581 506 1560 q 626 1614 574 1614 q 706 1596 674 1614 q 770 1560 739 1578 q 842 1542 801 1542 z "},"Ặ":{"ha":903,"x_min":11,"x_max":939,"o":"m 233 -106 q 291 -99 261 -101 q 344 -97 321 -97 q 452 -131 425 -97 q 460 -243 479 -165 l 446 -299 q 390 -305 419 -303 q 336 -307 360 -307 q 227 -275 254 -307 q 222 -151 200 -243 l 233 -106 m 314 0 q 259 -10 288 -7 q 203 -14 231 -14 q 89 8 126 -14 q 43 72 51 29 q 46 182 35 115 q 47 190 47 186 q 16 256 21 204 q 26 375 11 308 l 40 435 l 108 435 q 252 744 167 607 q 432 974 338 882 q 508 983 474 981 q 579 986 543 986 q 747 942 694 986 q 817 807 799 899 q 837 542 836 694 q 806 189 838 389 q 794 89 796 129 q 800 0 793 49 q 740 -10 768 -7 q 688 -14 711 -14 q 535 28 578 -14 q 514 185 492 69 l 335 185 q 320 85 325 132 q 314 0 315 39 m 421 435 q 495 419 465 435 q 539 379 525 403 l 547 381 q 559 557 558 472 q 551 718 560 642 l 544 719 q 463 577 499 649 q 403 435 428 506 l 421 435 m 776 1318 q 862 1313 825 1318 q 918 1296 899 1307 q 928 1253 939 1285 q 823 1110 893 1151 q 653 1069 753 1069 l 644 1069 q 477 1121 539 1069 q 406 1253 415 1172 q 411 1278 404 1268 q 431 1294 418 1289 q 490 1313 458 1308 q 568 1318 521 1318 q 595 1263 575 1281 q 653 1240 615 1244 q 728 1260 699 1242 q 776 1318 757 1279 z "},"B":{"ha":833,"x_min":-6,"x_max":888,"o":"m 310 -14 q 141 8 204 -14 q 46 61 78 29 q 4 197 -6 115 q 43 349 14 274 q 106 506 72 425 q 161 682 140 588 l 160 682 q 117 726 126 682 q 125 842 108 769 q 151 920 136 890 q 182 972 165 950 q 340 992 260 983 q 507 1000 421 1000 q 744 955 660 1000 q 858 837 829 910 q 871 679 888 764 l 869 672 q 791 522 853 589 q 647 414 729 454 l 644 404 q 729 338 701 382 q 742 235 757 294 l 740 229 q 593 47 710 107 q 310 -14 476 -14 m 419 575 q 415 561 418 568 q 444 560 429 560 q 521 581 490 560 q 564 651 551 603 l 565 657 q 569 685 569 674 q 565 700 568 696 q 514 706 544 704 q 460 708 483 708 q 414 707 436 708 l 408 700 q 419 575 438 650 m 306 242 q 334 239 314 240 q 364 238 354 238 q 427 255 401 238 q 465 321 453 272 l 467 326 q 474 365 472 347 q 447 364 460 364 q 394 368 413 364 q 363 385 376 372 l 353 385 q 324 310 338 346 q 306 242 311 275 z "},"C":{"ha":833,"x_min":31,"x_max":883,"o":"m 414 -28 q 234 10 313 -28 q 106 115 156 47 q 44 275 57 183 q 57 475 31 367 l 64 503 q 268 875 125 750 q 607 1000 411 1000 q 806 928 735 1000 q 866 824 849 885 q 865 700 883 764 q 843 618 851 654 q 833 556 835 582 q 682 536 772 536 q 570 570 604 536 q 550 667 536 604 q 574 726 556 694 q 544 728 561 728 q 449 663 497 728 q 374 486 401 599 l 368 464 q 356 382 358 428 q 357 303 353 336 q 417 276 381 285 q 493 267 453 267 q 629 295 567 267 q 760 381 692 324 l 768 381 q 774 338 774 367 q 771 283 775 308 q 731 154 758 211 q 668 65 704 97 q 414 -28 567 -28 z "},"Ç":{"ha":833,"x_min":25,"x_max":883,"o":"m 585 -207 q 513 -321 571 -289 q 368 -353 454 -353 q 224 -317 267 -353 q 189 -208 181 -281 q 201 -169 192 -183 q 224 -144 210 -154 l 232 -144 q 273 -158 250 -154 q 322 -162 296 -162 q 369 -158 350 -162 q 389 -135 388 -153 q 377 -102 392 -117 q 322 -87 363 -87 q 298 -81 301 -87 q 299 -62 294 -75 q 314 -17 306 -39 q 141 75 210 6 q 49 247 72 144 q 57 475 25 350 l 64 503 q 268 875 125 750 q 607 1000 411 1000 q 806 928 735 1000 q 866 824 849 885 q 865 700 883 764 q 843 618 851 654 q 833 556 835 582 q 682 536 772 536 q 570 570 604 536 q 550 667 536 604 q 574 726 556 694 q 544 728 561 728 q 449 663 497 728 q 374 486 401 599 l 368 464 q 356 382 358 428 q 357 303 353 336 q 417 276 381 285 q 493 267 453 267 q 629 295 567 267 q 760 381 692 324 l 768 381 q 774 338 774 367 q 771 283 775 308 q 731 154 758 211 q 668 65 704 97 q 440 -26 575 -19 q 436 -39 438 -33 l 432 -56 q 563 -88 526 -56 q 585 -207 600 -121 z "},"Ć":{"ha":833,"x_min":31,"x_max":911,"o":"m 414 -28 q 234 10 313 -28 q 106 115 156 47 q 44 275 57 183 q 57 475 31 367 l 64 503 q 268 875 125 750 q 607 1000 411 1000 q 806 928 735 1000 q 866 824 849 885 q 865 700 883 764 q 843 618 851 654 q 833 556 835 582 q 682 536 772 536 q 570 570 604 536 q 550 667 536 604 q 574 726 556 694 q 544 728 561 728 q 449 663 497 728 q 374 486 401 599 l 368 464 q 356 382 358 428 q 357 303 353 336 q 417 276 381 285 q 493 267 453 267 q 629 295 567 267 q 760 381 692 324 l 768 381 q 774 338 774 367 q 771 283 775 308 q 731 154 758 211 q 668 65 704 97 q 414 -28 567 -28 m 667 1311 q 785 1306 728 1310 q 888 1286 843 1303 q 910 1263 908 1279 q 900 1231 911 1246 q 821 1134 860 1168 q 733 1076 782 1100 q 681 1063 715 1068 q 614 1057 647 1057 q 540 1061 583 1057 q 465 1076 497 1065 q 553 1151 518 1118 q 613 1221 588 1183 q 667 1311 639 1258 z "},"Ĉ":{"ha":833,"x_min":31,"x_max":915,"o":"m 414 -28 q 234 10 313 -28 q 106 115 156 47 q 44 275 57 183 q 57 475 31 367 l 64 503 q 268 875 125 750 q 607 1000 411 1000 q 806 928 735 1000 q 866 824 849 885 q 865 700 883 764 q 843 618 851 654 q 833 556 835 582 q 682 536 772 536 q 570 570 604 536 q 550 667 536 604 q 574 726 556 694 q 544 728 561 728 q 449 663 497 728 q 374 486 401 599 l 368 464 q 356 382 358 428 q 357 303 353 336 q 417 276 381 285 q 493 267 453 267 q 629 295 567 267 q 760 381 692 324 l 768 381 q 774 338 774 367 q 771 283 775 308 q 731 154 758 211 q 668 65 704 97 q 414 -28 567 -28 m 599 1333 q 634 1338 614 1336 q 664 1339 654 1339 q 737 1331 707 1339 q 800 1286 767 1322 q 866 1197 836 1247 q 915 1082 896 1147 q 775 1043 839 1043 q 733 1056 747 1043 q 704 1093 719 1068 q 683 1126 694 1110 q 653 1161 671 1143 l 644 1161 q 572 1100 600 1129 q 525 1049 543 1071 l 517 1049 q 403 1058 442 1049 q 353 1081 365 1067 q 344 1111 340 1094 q 359 1145 347 1125 q 393 1189 371 1165 q 490 1270 433 1231 q 599 1333 547 1310 z "},"Ċ":{"ha":833,"x_min":31,"x_max":883,"o":"m 479 1314 q 558 1324 521 1321 q 647 1328 596 1328 q 817 1275 769 1328 q 842 1138 864 1222 l 829 1090 q 747 1076 789 1081 q 661 1071 706 1071 q 494 1117 547 1071 q 467 1265 440 1164 l 479 1314 m 414 -28 q 234 10 313 -28 q 106 115 156 47 q 44 275 57 183 q 57 475 31 367 l 64 503 q 268 875 125 750 q 607 1000 411 1000 q 806 928 735 1000 q 866 824 849 885 q 865 700 883 764 q 843 618 851 654 q 833 556 835 582 q 682 536 772 536 q 570 570 604 536 q 550 667 536 604 q 574 726 556 694 q 544 728 561 728 q 449 663 497 728 q 374 486 401 599 l 368 464 q 356 382 358 428 q 357 303 353 336 q 417 276 381 285 q 493 267 453 267 q 629 295 567 267 q 760 381 692 324 l 768 381 q 774 338 774 367 q 771 283 775 308 q 731 154 758 211 q 668 65 704 97 q 414 -28 567 -28 z "},"Č":{"ha":833,"x_min":31,"x_max":969,"o":"m 711 1063 q 677 1060 697 1061 q 646 1058 657 1058 q 573 1066 603 1058 q 510 1107 543 1074 q 444 1191 474 1144 q 394 1297 414 1238 q 467 1325 435 1317 q 535 1333 500 1333 q 577 1322 563 1333 q 606 1288 592 1311 q 626 1256 615 1271 q 656 1224 638 1240 l 665 1224 q 738 1281 710 1253 q 785 1329 767 1308 l 793 1329 q 907 1321 868 1329 q 958 1299 946 1313 q 965 1271 969 1286 q 951 1239 963 1257 q 917 1197 940 1221 q 820 1122 876 1158 q 711 1063 764 1086 m 414 -28 q 234 10 313 -28 q 106 115 156 47 q 44 275 57 183 q 57 475 31 367 l 64 503 q 268 875 125 750 q 607 1000 411 1000 q 806 928 735 1000 q 866 824 849 885 q 865 700 883 764 q 843 618 851 654 q 833 556 835 582 q 682 536 772 536 q 570 570 604 536 q 550 667 536 604 q 574 726 556 694 q 544 728 561 728 q 449 663 497 728 q 374 486 401 599 l 368 464 q 356 382 358 428 q 357 303 353 336 q 417 276 381 285 q 493 267 453 267 q 629 295 567 267 q 760 381 692 324 l 768 381 q 774 338 774 367 q 771 283 775 308 q 731 154 758 211 q 668 65 704 97 q 414 -28 567 -28 z "},"Ḉ":{"ha":833,"x_min":25,"x_max":911,"o":"m 667 1311 q 785 1306 728 1310 q 888 1286 843 1303 q 910 1263 908 1279 q 900 1231 911 1246 q 821 1134 860 1168 q 733 1076 782 1100 q 681 1063 715 1068 q 614 1057 647 1057 q 540 1061 583 1057 q 465 1076 497 1065 q 552 1151 518 1118 q 613 1221 586 1183 q 667 1311 639 1258 m 585 -207 q 513 -321 571 -289 q 368 -353 454 -353 q 224 -317 267 -353 q 189 -208 181 -281 q 201 -169 192 -183 q 224 -144 210 -154 l 232 -144 q 273 -158 250 -154 q 322 -162 296 -162 q 369 -158 350 -162 q 389 -135 388 -153 q 377 -102 392 -117 q 322 -87 363 -87 q 298 -81 301 -87 q 299 -62 294 -75 q 314 -17 306 -39 q 141 75 210 6 q 49 247 72 144 q 57 475 25 350 l 64 503 q 268 875 125 750 q 607 1000 411 1000 q 806 928 735 1000 q 866 824 849 885 q 865 700 883 764 q 843 618 851 654 q 833 556 835 582 q 682 536 772 536 q 570 570 604 536 q 550 667 536 604 q 574 726 556 694 q 544 728 561 728 q 449 663 497 728 q 374 486 401 599 l 368 464 q 356 382 358 428 q 357 303 353 336 q 417 276 381 285 q 493 267 453 267 q 629 295 567 267 q 760 381 692 324 l 768 381 q 774 338 774 367 q 771 283 775 308 q 731 154 758 211 q 668 65 704 97 q 440 -26 575 -19 q 436 -39 438 -33 l 432 -56 q 563 -88 526 -56 q 585 -207 600 -121 z "},"D":{"ha":903,"x_min":0,"x_max":953,"o":"m 906 507 q 769 201 858 315 q 560 36 681 86 q 297 -14 440 -14 q 204 -6 253 -14 q 115 18 156 1 q 49 58 74 35 q 10 117 21 86 q 6 201 0 147 q 42 353 14 276 q 103 510 71 429 q 157 676 136 590 q 112 725 117 685 q 129 854 107 765 q 152 924 140 894 q 176 972 164 953 q 267 985 208 979 q 399 996 326 992 q 546 1000 472 1000 q 789 949 693 1000 q 919 796 885 897 q 915 546 953 694 l 906 507 m 340 276 q 374 274 349 275 q 413 274 400 274 q 472 289 443 274 q 531 355 501 304 q 586 513 560 406 l 590 529 q 601 621 604 586 q 578 685 597 656 q 517 698 557 694 q 442 701 476 701 q 432 701 436 701 l 426 694 q 448 642 446 672 q 436 560 450 613 q 400 452 421 499 q 363 364 379 406 q 340 276 346 322 z "},"Ď":{"ha":903,"x_min":0,"x_max":956,"o":"m 697 1063 q 663 1060 683 1061 q 632 1058 643 1058 q 559 1066 589 1058 q 496 1107 529 1074 q 430 1191 460 1144 q 381 1297 400 1238 q 453 1325 421 1317 q 521 1333 486 1333 q 563 1322 549 1333 q 592 1288 578 1311 q 613 1256 601 1271 q 642 1224 624 1240 l 651 1224 q 724 1281 696 1253 q 771 1329 753 1308 l 779 1329 q 893 1321 854 1329 q 944 1299 932 1313 q 951 1271 956 1286 q 938 1239 949 1257 q 903 1197 926 1221 q 806 1122 863 1158 q 697 1063 750 1086 m 906 507 q 769 201 858 315 q 560 36 681 86 q 297 -14 440 -14 q 204 -6 253 -14 q 115 18 156 1 q 49 58 74 35 q 10 117 21 86 q 6 201 0 147 q 42 353 14 276 q 103 510 71 429 q 157 676 136 590 q 112 725 117 685 q 129 854 107 765 q 152 924 140 894 q 176 972 164 953 q 267 985 208 979 q 399 996 326 992 q 546 1000 472 1000 q 789 949 693 1000 q 919 796 885 897 q 915 546 953 694 l 906 507 m 340 276 q 374 274 349 275 q 413 274 400 274 q 472 289 443 274 q 531 355 501 304 q 586 513 560 406 l 590 529 q 601 621 604 586 q 578 685 597 656 q 517 698 557 694 q 442 701 476 701 q 432 701 436 701 l 426 694 q 448 642 446 672 q 436 560 450 613 q 400 452 421 499 q 363 364 379 406 q 340 276 346 322 z "},"Ḍ":{"ha":903,"x_min":0,"x_max":953,"o":"m 182 -106 q 240 -99 210 -101 q 293 -97 269 -97 q 401 -131 374 -97 q 408 -243 428 -165 l 394 -299 q 338 -305 368 -303 q 285 -307 308 -307 q 176 -275 203 -307 q 171 -151 149 -243 l 182 -106 m 906 507 q 769 201 858 315 q 560 36 681 86 q 297 -14 440 -14 q 204 -6 253 -14 q 115 18 156 1 q 49 58 74 35 q 10 117 21 86 q 6 201 0 147 q 42 353 14 276 q 103 510 71 429 q 157 676 136 590 q 112 725 117 685 q 129 854 107 765 q 152 924 140 894 q 176 972 164 953 q 267 985 208 979 q 399 996 326 992 q 546 1000 472 1000 q 789 949 693 1000 q 919 796 885 897 q 915 546 953 694 l 906 507 m 340 276 q 374 274 349 275 q 413 274 400 274 q 472 289 443 274 q 531 355 501 304 q 586 513 560 406 l 590 529 q 601 621 604 586 q 578 685 597 656 q 517 698 557 694 q 442 701 476 701 q 432 701 436 701 l 426 694 q 448 642 446 672 q 436 560 450 613 q 400 452 421 499 q 363 364 379 406 q 340 276 346 322 z "},"Ḏ":{"ha":903,"x_min":0,"x_max":953,"o":"m 71 -58 l 460 -58 q 547 -90 521 -58 q 558 -172 572 -121 q 536 -233 549 -207 q 507 -283 524 -260 l 178 -283 q 47 -244 78 -283 q 42 -128 17 -204 q 56 -89 49 -106 q 71 -58 64 -72 m 906 507 q 769 201 858 315 q 560 36 681 86 q 297 -14 440 -14 q 204 -6 253 -14 q 115 18 156 1 q 49 58 74 35 q 10 117 21 86 q 6 201 0 147 q 42 353 14 276 q 103 510 71 429 q 157 676 136 590 q 112 725 117 685 q 129 854 107 765 q 152 924 140 894 q 176 972 164 953 q 267 985 208 979 q 399 996 326 992 q 546 1000 472 1000 q 789 949 693 1000 q 919 796 885 897 q 915 546 953 694 l 906 507 m 340 276 q 374 274 349 275 q 413 274 400 274 q 472 289 443 274 q 531 355 501 304 q 586 513 560 406 l 590 529 q 601 621 604 586 q 578 685 597 656 q 517 698 557 694 q 442 701 476 701 q 432 701 436 701 l 426 694 q 448 642 446 672 q 436 560 450 613 q 400 452 421 499 q 363 364 379 406 q 340 276 346 322 z "},"E":{"ha":764,"x_min":-14,"x_max":846,"o":"m 200 0 q 42 47 97 0 q -4 175 -14 94 q 26 299 3 239 q 76 422 49 360 q 128 551 103 483 q 164 696 153 618 q 124 757 132 706 q 133 871 117 808 q 151 930 143 907 q 168 972 158 953 l 721 972 q 819 928 792 972 q 824 797 846 883 q 808 740 817 767 q 788 694 799 714 l 431 694 l 425 688 q 444 641 442 667 q 438 576 447 615 l 553 576 q 623 552 597 576 q 656 492 649 528 q 653 417 663 456 q 636 368 646 385 l 360 368 q 344 323 351 346 q 331 278 336 300 l 528 278 q 638 242 606 278 q 650 122 669 206 q 631 56 640 86 q 607 0 621 25 l 200 0 z "},"È":{"ha":764,"x_min":-14,"x_max":846,"o":"m 200 0 q 42 47 97 0 q -4 175 -14 94 q 26 299 3 239 q 76 422 49 360 q 128 551 103 483 q 164 696 153 618 q 124 757 132 706 q 133 871 117 808 q 151 930 143 907 q 168 972 158 953 l 721 972 q 819 928 792 972 q 824 797 846 883 q 808 740 817 767 q 788 694 799 714 l 431 694 l 425 688 q 444 641 442 667 q 438 576 447 615 l 553 576 q 623 552 597 576 q 656 492 649 528 q 653 417 663 456 q 636 368 646 385 l 360 368 q 344 323 351 346 q 331 278 336 300 l 528 278 q 638 242 606 278 q 650 122 669 206 q 631 56 640 86 q 607 0 621 25 l 200 0 m 571 1313 q 599 1192 578 1244 q 667 1078 619 1139 q 586 1063 632 1067 q 510 1058 540 1058 q 451 1064 476 1058 q 413 1078 426 1069 q 344 1144 369 1106 q 310 1232 319 1182 q 317 1264 307 1247 q 350 1288 328 1281 q 463 1308 403 1304 q 571 1313 524 1313 z "},"É":{"ha":764,"x_min":-14,"x_max":846,"o":"m 200 0 q 42 47 97 0 q -4 175 -14 94 q 26 299 3 239 q 76 422 49 360 q 128 551 103 483 q 164 696 153 618 q 124 757 132 706 q 133 871 117 808 q 151 930 143 907 q 168 972 158 953 l 721 972 q 819 928 792 972 q 824 797 846 883 q 808 740 817 767 q 788 694 799 714 l 431 694 l 425 688 q 444 641 442 667 q 438 576 447 615 l 553 576 q 623 552 597 576 q 656 492 649 528 q 653 417 663 456 q 636 368 646 385 l 360 368 q 344 323 351 346 q 331 278 336 300 l 528 278 q 638 242 606 278 q 650 122 669 206 q 631 56 640 86 q 607 0 621 25 l 200 0 m 571 1313 q 690 1308 632 1311 q 792 1288 747 1304 q 814 1264 813 1281 q 804 1232 815 1247 q 725 1135 764 1169 q 638 1078 686 1101 q 585 1064 619 1069 q 518 1058 551 1058 q 444 1063 488 1058 q 369 1078 401 1067 q 457 1152 422 1119 q 517 1222 492 1185 q 571 1313 543 1260 z "},"Ê":{"ha":764,"x_min":-14,"x_max":846,"o":"m 200 0 q 42 47 97 0 q -4 175 -14 94 q 26 299 3 239 q 76 422 49 360 q 128 551 103 483 q 164 696 153 618 q 124 757 132 706 q 133 871 117 808 q 151 930 143 907 q 168 972 158 953 l 721 972 q 819 928 792 972 q 824 797 846 883 q 808 740 817 767 q 788 694 799 714 l 431 694 l 425 688 q 444 641 442 667 q 438 576 447 615 l 553 576 q 623 552 597 576 q 656 492 649 528 q 653 417 663 456 q 636 368 646 385 l 360 368 q 344 323 351 346 q 331 278 336 300 l 528 278 q 638 242 606 278 q 650 122 669 206 q 631 56 640 86 q 607 0 621 25 l 200 0 m 503 1335 q 538 1339 518 1338 q 568 1340 558 1340 q 641 1332 611 1340 q 704 1288 671 1324 q 770 1199 740 1249 q 819 1083 800 1149 q 679 1044 743 1044 q 638 1057 651 1044 q 608 1094 624 1069 q 587 1128 599 1111 q 557 1163 575 1144 l 549 1163 q 476 1101 504 1131 q 429 1050 447 1072 l 421 1050 q 308 1059 346 1050 q 257 1082 269 1068 q 249 1113 244 1096 q 263 1147 251 1126 q 297 1190 275 1167 q 394 1272 338 1232 q 503 1335 451 1311 z "},"Ë":{"ha":764,"x_min":-14,"x_max":846,"o":"m 200 0 q 42 47 97 0 q -4 175 -14 94 q 26 299 3 239 q 76 422 49 360 q 128 551 103 483 q 164 696 153 618 q 124 757 132 706 q 133 871 117 808 q 151 930 143 907 q 168 972 158 953 l 721 972 q 819 928 792 972 q 824 797 846 883 q 808 740 817 767 q 788 694 799 714 l 431 694 l 425 688 q 444 641 442 667 q 438 576 447 615 l 553 576 q 623 552 597 576 q 656 492 649 528 q 653 417 663 456 q 636 368 646 385 l 360 368 q 344 323 351 346 q 331 278 336 300 l 528 278 q 638 242 606 278 q 650 122 669 206 q 631 56 640 86 q 607 0 621 25 l 200 0 m 326 1297 q 374 1301 350 1300 q 417 1301 399 1301 q 510 1263 490 1301 q 510 1154 531 1224 l 493 1097 q 446 1092 471 1093 q 401 1092 421 1092 q 311 1124 332 1092 q 310 1232 290 1156 l 326 1297 m 622 1297 q 670 1301 646 1300 q 713 1301 694 1301 q 806 1263 786 1301 q 806 1154 826 1224 l 789 1097 q 742 1092 767 1093 q 697 1092 717 1092 q 607 1124 628 1092 q 606 1232 586 1156 l 622 1297 z "},"Ē":{"ha":764,"x_min":-14,"x_max":867,"o":"m 200 0 q 42 47 97 0 q -4 175 -14 94 q 26 299 3 239 q 76 422 49 360 q 128 551 103 483 q 164 696 153 618 q 124 757 132 706 q 133 871 117 808 q 151 930 143 907 q 168 972 158 953 l 721 972 q 819 928 792 972 q 824 797 846 883 q 808 740 817 767 q 788 694 799 714 l 431 694 l 425 688 q 444 641 442 667 q 438 576 447 615 l 553 576 q 623 552 597 576 q 656 492 649 528 q 653 417 663 456 q 636 368 646 385 l 360 368 q 344 323 351 346 q 331 278 336 300 l 528 278 q 638 242 606 278 q 650 122 669 206 q 631 56 640 86 q 607 0 621 25 l 200 0 m 292 1296 l 767 1296 q 846 1261 825 1296 q 851 1176 867 1226 q 829 1119 840 1139 q 807 1083 818 1099 l 410 1083 q 286 1115 317 1083 q 269 1222 256 1146 q 292 1296 278 1267 z "},"Ĕ":{"ha":764,"x_min":-14,"x_max":847,"o":"m 200 0 q 42 47 97 0 q -4 175 -14 94 q 26 299 3 239 q 76 422 49 360 q 128 551 103 483 q 164 696 153 618 q 124 757 132 706 q 133 871 117 808 q 151 930 143 907 q 168 972 158 953 l 721 972 q 819 928 792 972 q 824 797 846 883 q 808 740 817 767 q 788 694 799 714 l 431 694 l 425 688 q 444 641 442 667 q 438 576 447 615 l 553 576 q 623 552 597 576 q 656 492 649 528 q 653 417 663 456 q 636 368 646 385 l 360 368 q 344 323 351 346 q 331 278 336 300 l 528 278 q 638 242 606 278 q 650 122 669 206 q 631 56 640 86 q 607 0 621 25 l 200 0 m 685 1319 q 770 1314 733 1319 q 826 1297 807 1308 q 836 1254 847 1286 q 731 1112 801 1153 q 561 1071 661 1071 l 553 1071 q 385 1122 447 1071 q 314 1254 324 1174 q 319 1280 313 1269 q 339 1296 326 1290 q 398 1315 367 1310 q 476 1319 429 1319 q 503 1264 483 1282 q 561 1242 524 1246 q 636 1262 607 1243 q 685 1319 665 1281 z "},"Ė":{"ha":764,"x_min":-14,"x_max":846,"o":"m 383 1315 q 463 1326 425 1322 q 551 1329 500 1329 q 721 1276 674 1329 q 746 1139 768 1224 l 733 1092 q 651 1077 693 1082 q 565 1072 610 1072 q 398 1119 451 1072 q 371 1267 344 1165 l 383 1315 m 200 0 q 42 47 97 0 q -4 175 -14 94 q 26 299 3 239 q 76 422 49 360 q 128 551 103 483 q 164 696 153 618 q 124 757 132 706 q 133 871 117 808 q 151 930 143 907 q 168 972 158 953 l 721 972 q 819 928 792 972 q 824 797 846 883 q 808 740 817 767 q 788 694 799 714 l 431 694 l 425 688 q 444 641 442 667 q 438 576 447 615 l 553 576 q 623 552 597 576 q 656 492 649 528 q 653 417 663 456 q 636 368 646 385 l 360 368 q 344 323 351 346 q 331 278 336 300 l 528 278 q 638 242 606 278 q 650 122 669 206 q 631 56 640 86 q 607 0 621 25 l 200 0 z "},"Ę":{"ha":764,"x_min":-14,"x_max":846,"o":"m 200 0 q 42 47 97 0 q -4 175 -14 94 q 26 299 3 239 q 76 422 49 360 q 128 551 103 483 q 164 696 153 618 q 124 757 132 706 q 133 871 117 808 q 151 930 143 907 q 168 972 158 953 l 721 972 q 819 928 792 972 q 824 797 846 883 q 808 740 817 767 q 788 694 799 714 l 431 694 l 425 688 q 444 641 442 667 q 438 576 447 615 l 553 576 q 623 552 597 576 q 656 492 649 528 q 653 417 663 456 q 636 368 646 385 l 360 368 q 344 323 351 346 q 331 278 336 300 l 528 278 q 638 242 606 278 q 650 122 669 206 q 631 56 640 86 q 607 0 621 25 l 604 0 l 606 -1 q 579 -21 600 -18 q 498 -46 519 -32 q 471 -79 476 -60 q 478 -111 465 -101 q 513 -121 490 -121 q 574 -93 551 -121 l 582 -93 q 592 -139 590 -114 q 588 -197 594 -164 q 526 -309 574 -269 q 397 -349 479 -349 q 257 -307 308 -349 q 219 -164 206 -265 q 335 0 235 -60 l 200 0 z "},"Ě":{"ha":764,"x_min":-14,"x_max":874,"o":"m 200 0 q 42 47 97 0 q -4 175 -14 94 q 26 299 3 239 q 76 422 49 360 q 128 551 103 483 q 164 696 153 618 q 124 757 132 706 q 133 871 117 808 q 151 930 143 907 q 168 972 158 953 l 721 972 q 819 928 792 972 q 824 797 846 883 q 808 740 817 767 q 788 694 799 714 l 431 694 l 425 688 q 444 641 442 667 q 438 576 447 615 l 553 576 q 623 552 597 576 q 656 492 649 528 q 653 417 663 456 q 636 368 646 385 l 360 368 q 344 323 351 346 q 331 278 336 300 l 528 278 q 638 242 606 278 q 650 122 669 206 q 631 56 640 86 q 607 0 621 25 l 200 0 m 615 1064 q 581 1061 601 1063 q 550 1060 561 1060 q 477 1067 507 1060 q 414 1108 447 1075 q 348 1192 378 1146 q 299 1299 318 1239 q 372 1326 339 1318 q 439 1335 404 1335 q 481 1324 467 1335 q 510 1289 496 1313 q 531 1257 519 1272 q 560 1225 542 1242 l 569 1225 q 642 1282 614 1254 q 689 1331 671 1310 l 697 1331 q 810 1322 772 1331 q 861 1301 849 1314 q 869 1272 874 1288 q 856 1240 867 1258 q 821 1199 844 1222 q 724 1124 781 1160 q 615 1064 668 1088 z "},"Ȅ":{"ha":764,"x_min":-14,"x_max":846,"o":"m 403 1314 q 431 1193 410 1246 q 499 1079 451 1140 q 418 1064 464 1068 q 342 1060 372 1060 q 283 1065 308 1060 q 244 1079 258 1071 q 176 1145 201 1107 q 142 1233 151 1183 q 149 1265 139 1249 q 182 1289 160 1282 q 295 1310 235 1306 q 403 1314 356 1314 m 736 1314 q 764 1193 743 1246 q 832 1079 785 1140 q 751 1064 797 1068 q 675 1060 706 1060 q 617 1065 642 1060 q 578 1079 592 1071 q 510 1145 535 1107 q 475 1233 485 1183 q 483 1265 472 1249 q 515 1289 493 1282 q 628 1310 568 1306 q 736 1314 689 1314 m 200 0 q 42 47 97 0 q -4 175 -14 94 q 26 299 3 239 q 76 422 49 360 q 128 551 103 483 q 164 696 153 618 q 124 757 132 706 q 133 871 117 808 q 151 930 143 907 q 168 972 158 953 l 721 972 q 819 928 792 972 q 824 797 846 883 q 808 740 817 767 q 788 694 799 714 l 431 694 l 425 688 q 444 641 442 667 q 438 576 447 615 l 553 576 q 623 552 597 576 q 656 492 649 528 q 653 417 663 456 q 636 368 646 385 l 360 368 q 344 323 351 346 q 331 278 336 300 l 528 278 q 638 242 606 278 q 650 122 669 206 q 631 56 640 86 q 607 0 621 25 l 200 0 z "},"Ȇ":{"ha":764,"x_min":-14,"x_max":846,"o":"m 200 0 q 42 47 97 0 q -4 175 -14 94 q 26 299 3 239 q 76 422 49 360 q 128 551 103 483 q 164 696 153 618 q 124 757 132 706 q 133 871 117 808 q 151 930 143 907 q 168 972 158 953 l 721 972 q 819 928 792 972 q 824 797 846 883 q 808 740 817 767 q 788 694 799 714 l 431 694 l 425 688 q 444 641 442 667 q 438 576 447 615 l 553 576 q 623 552 597 576 q 656 492 649 528 q 653 417 663 456 q 636 368 646 385 l 360 368 q 344 323 351 346 q 331 278 336 300 l 528 278 q 638 242 606 278 q 650 122 669 206 q 631 56 640 86 q 607 0 621 25 l 200 0 m 436 1085 q 351 1090 389 1085 q 294 1107 314 1096 q 285 1150 274 1118 q 390 1292 319 1251 q 560 1333 460 1333 l 568 1333 q 735 1283 674 1333 q 807 1150 797 1232 q 802 1126 810 1136 q 782 1108 794 1115 q 724 1090 756 1094 q 644 1085 693 1085 q 618 1140 639 1122 q 560 1163 597 1158 q 485 1142 514 1161 q 436 1085 456 1124 z "},"Ḕ":{"ha":764,"x_min":-14,"x_max":867,"o":"m 200 0 q 42 47 97 0 q -4 175 -14 94 q 26 299 3 239 q 76 422 49 360 q 128 551 103 483 q 164 696 153 618 q 124 757 132 706 q 133 871 117 808 q 151 930 143 907 q 168 972 158 953 l 721 972 q 819 928 792 972 q 824 797 846 883 q 808 740 817 767 q 788 694 799 714 l 431 694 l 425 688 q 444 641 442 667 q 438 576 447 615 l 553 576 q 623 552 597 576 q 656 492 649 528 q 653 417 663 456 q 636 368 646 385 l 360 368 q 344 323 351 346 q 331 278 336 300 l 528 278 q 638 242 606 278 q 650 122 669 206 q 631 56 640 86 q 607 0 621 25 l 200 0 m 292 1296 l 767 1296 q 846 1261 825 1296 q 851 1176 867 1226 q 829 1119 840 1139 q 807 1083 818 1099 l 410 1083 q 286 1115 317 1083 q 269 1222 256 1146 q 292 1296 278 1267 m 639 1589 q 667 1468 646 1521 q 735 1354 688 1415 q 654 1339 700 1343 q 578 1335 608 1335 q 519 1340 544 1335 q 481 1354 494 1346 q 413 1420 438 1382 q 378 1508 388 1458 q 385 1540 375 1524 q 418 1564 396 1557 q 531 1585 471 1581 q 639 1589 592 1589 z "},"Ḗ":{"ha":764,"x_min":-14,"x_max":883,"o":"m 200 0 q 42 47 97 0 q -4 175 -14 94 q 26 299 3 239 q 76 422 49 360 q 128 551 103 483 q 164 696 153 618 q 124 757 132 706 q 133 871 117 808 q 151 930 143 907 q 168 972 158 953 l 721 972 q 819 928 792 972 q 824 797 846 883 q 808 740 817 767 q 788 694 799 714 l 431 694 l 425 688 q 444 641 442 667 q 438 576 447 615 l 553 576 q 623 552 597 576 q 656 492 649 528 q 653 417 663 456 q 636 368 646 385 l 360 368 q 344 323 351 346 q 331 278 336 300 l 528 278 q 638 242 606 278 q 650 122 669 206 q 631 56 640 86 q 607 0 621 25 l 200 0 m 292 1296 l 767 1296 q 846 1261 825 1296 q 851 1176 867 1226 q 829 1119 840 1139 q 807 1083 818 1099 l 410 1083 q 286 1115 317 1083 q 269 1222 256 1146 q 292 1296 278 1267 m 639 1589 q 758 1584 700 1588 q 860 1564 815 1581 q 882 1540 881 1557 q 872 1508 883 1524 q 793 1412 832 1446 q 706 1354 754 1378 q 653 1340 688 1346 q 586 1335 619 1335 q 513 1339 556 1335 q 438 1354 469 1343 q 525 1428 490 1396 q 585 1499 560 1461 q 639 1589 611 1536 z "},"Ḝ":{"ha":764,"x_min":-14,"x_max":847,"o":"m 685 1319 q 770 1314 733 1319 q 826 1297 807 1308 q 836 1254 847 1286 q 731 1112 801 1153 q 561 1071 661 1071 l 553 1071 q 385 1122 447 1071 q 314 1254 324 1174 q 319 1280 313 1269 q 339 1296 326 1290 q 398 1315 367 1310 q 476 1319 429 1319 q 503 1264 483 1282 q 561 1242 524 1246 q 636 1262 607 1243 q 685 1319 665 1281 m 463 -208 q 390 -322 449 -290 q 246 -354 332 -354 q 101 -318 144 -354 q 67 -210 58 -282 q 78 -170 69 -185 q 101 -146 88 -156 l 110 -146 q 151 -160 128 -156 q 200 -164 174 -164 q 247 -159 228 -164 q 267 -136 265 -154 q 255 -103 269 -118 q 200 -89 240 -89 q 176 -83 179 -89 q 176 -64 172 -76 q 199 0 188 -31 q 41 47 96 0 q -4 175 -14 94 q 26 299 3 239 q 76 422 49 360 q 128 551 103 483 q 164 696 153 618 q 124 757 132 706 q 133 871 117 808 q 151 930 143 907 q 168 972 158 953 l 721 972 q 819 928 792 972 q 824 797 846 883 q 808 740 817 767 q 788 694 799 714 l 431 694 l 425 688 q 444 641 442 667 q 438 576 447 615 l 553 576 q 623 552 597 576 q 656 492 649 528 q 653 417 663 456 q 636 368 646 385 l 360 368 q 344 323 351 346 q 331 278 336 300 l 528 278 q 638 242 606 278 q 650 122 669 206 q 631 56 640 86 q 607 0 621 25 l 328 0 q 314 -40 318 -26 l 310 -57 q 441 -90 404 -57 q 463 -208 478 -122 z "},"Ẹ":{"ha":764,"x_min":-14,"x_max":846,"o":"m 200 0 q 42 47 97 0 q -4 175 -14 94 q 26 299 3 239 q 76 422 49 360 q 128 551 103 483 q 164 696 153 618 q 124 757 132 706 q 133 871 117 808 q 151 930 143 907 q 168 972 158 953 l 721 972 q 819 928 792 972 q 824 797 846 883 q 808 740 817 767 q 788 694 799 714 l 431 694 l 425 688 q 444 641 442 667 q 438 576 447 615 l 553 576 q 623 552 597 576 q 656 492 649 528 q 653 417 663 456 q 636 368 646 385 l 360 368 q 344 323 351 346 q 331 278 336 300 l 528 278 q 638 242 606 278 q 650 122 669 206 q 631 56 640 86 q 607 0 621 25 l 200 0 m 151 -106 q 209 -99 179 -101 q 263 -97 239 -97 q 370 -131 343 -97 q 378 -243 397 -165 l 364 -299 q 308 -305 338 -303 q 254 -307 278 -307 q 145 -275 172 -307 q 140 -151 118 -243 l 151 -106 z "},"Ẻ":{"ha":764,"x_min":-14,"x_max":846,"o":"m 200 0 q 42 47 97 0 q -4 175 -14 94 q 26 299 3 239 q 76 422 49 360 q 128 551 103 483 q 164 696 153 618 q 124 757 132 706 q 133 871 117 808 q 151 930 143 907 q 168 972 158 953 l 721 972 q 819 928 792 972 q 824 797 846 883 q 808 740 817 767 q 788 694 799 714 l 431 694 l 425 688 q 444 641 442 667 q 438 576 447 615 l 553 576 q 623 552 597 576 q 656 492 649 528 q 653 417 663 456 q 636 368 646 385 l 360 368 q 344 323 351 346 q 331 278 336 300 l 528 278 q 638 242 606 278 q 650 122 669 206 q 631 56 640 86 q 607 0 621 25 l 200 0 m 422 1089 q 448 1119 428 1110 q 510 1139 468 1129 q 573 1157 556 1150 q 592 1171 590 1164 l 592 1178 q 572 1180 583 1179 q 544 1181 561 1181 q 418 1158 483 1181 l 410 1158 q 400 1190 401 1172 q 401 1229 399 1207 q 458 1314 410 1282 q 514 1338 481 1329 q 594 1347 547 1347 q 703 1326 661 1347 q 761 1272 744 1304 q 771 1206 778 1239 l 769 1199 q 744 1145 764 1165 q 686 1104 725 1125 q 639 1074 653 1086 q 615 1044 625 1061 q 518 1035 568 1035 q 444 1049 471 1035 q 422 1089 417 1063 z "},"Ẽ":{"ha":764,"x_min":-14,"x_max":853,"o":"m 200 0 q 42 47 97 0 q -4 175 -14 94 q 26 299 3 239 q 76 422 49 360 q 128 551 103 483 q 164 696 153 618 q 124 757 132 706 q 133 871 117 808 q 151 930 143 907 q 168 972 158 953 l 721 972 q 819 928 792 972 q 824 797 846 883 q 808 740 817 767 q 788 694 799 714 l 431 694 l 425 688 q 444 641 442 667 q 438 576 447 615 l 553 576 q 623 552 597 576 q 656 492 649 528 q 653 417 663 456 q 636 368 646 385 l 360 368 q 344 323 351 346 q 331 278 336 300 l 528 278 q 638 242 606 278 q 650 122 669 206 q 631 56 640 86 q 607 0 621 25 l 200 0 m 707 1268 q 775 1278 749 1268 q 836 1321 801 1289 l 844 1321 q 852 1271 851 1297 q 847 1211 853 1244 q 824 1126 839 1157 q 782 1074 808 1094 q 737 1049 760 1056 q 686 1043 714 1043 q 588 1061 632 1043 q 501 1097 543 1079 q 410 1115 458 1115 q 340 1103 368 1115 q 281 1063 313 1090 l 272 1063 q 269 1172 261 1110 q 292 1256 276 1225 q 335 1307 308 1286 q 435 1340 376 1340 q 531 1322 488 1340 q 617 1286 575 1304 q 707 1268 658 1268 z "},"Ế":{"ha":764,"x_min":-14,"x_max":1099,"o":"m 200 0 q 42 47 97 0 q -4 175 -14 94 q 26 299 3 239 q 76 422 49 360 q 128 551 103 483 q 164 696 153 618 q 124 757 132 706 q 133 871 117 808 q 151 930 143 907 q 168 972 158 953 l 721 972 q 819 928 792 972 q 824 797 846 883 q 808 740 817 767 q 788 694 799 714 l 431 694 l 425 688 q 444 641 442 667 q 438 576 447 615 l 553 576 q 623 552 597 576 q 656 492 649 528 q 653 417 663 456 q 636 368 646 385 l 360 368 q 344 323 351 346 q 331 278 336 300 l 528 278 q 638 242 606 278 q 650 122 669 206 q 631 56 640 86 q 607 0 621 25 l 200 0 m 503 1335 q 538 1339 518 1338 q 568 1340 558 1340 q 641 1332 611 1340 q 704 1288 671 1324 q 770 1199 740 1249 q 819 1083 800 1149 q 679 1044 743 1044 q 638 1057 651 1044 q 608 1094 624 1069 q 587 1128 599 1111 q 557 1163 575 1144 l 549 1163 q 476 1101 504 1131 q 429 1050 447 1072 l 421 1050 q 308 1059 346 1050 q 257 1082 269 1068 q 249 1113 244 1096 q 263 1147 251 1126 q 297 1190 275 1167 q 394 1272 338 1232 q 503 1335 451 1311 m 894 1539 q 977 1535 943 1539 q 1044 1519 1011 1531 q 1060 1432 1099 1501 q 1004 1358 1038 1392 q 935 1306 971 1325 q 890 1289 913 1293 q 844 1285 868 1285 q 724 1307 782 1285 q 814 1407 775 1354 q 894 1539 853 1460 z "},"Ề":{"ha":764,"x_min":-14,"x_max":922,"o":"m 200 0 q 42 47 97 0 q -4 175 -14 94 q 26 299 3 239 q 76 422 49 360 q 128 551 103 483 q 164 696 153 618 q 124 757 132 706 q 133 871 117 808 q 151 930 143 907 q 168 972 158 953 l 721 972 q 819 928 792 972 q 824 797 846 883 q 808 740 817 767 q 788 694 799 714 l 431 694 l 425 688 q 444 641 442 667 q 438 576 447 615 l 553 576 q 623 552 597 576 q 656 492 649 528 q 653 417 663 456 q 636 368 646 385 l 360 368 q 344 323 351 346 q 331 278 336 300 l 528 278 q 638 242 606 278 q 650 122 669 206 q 631 56 640 86 q 607 0 621 25 l 200 0 m 503 1335 q 538 1339 518 1338 q 568 1340 558 1340 q 641 1332 611 1340 q 704 1288 671 1324 q 770 1199 740 1249 q 819 1083 800 1149 q 679 1044 743 1044 q 638 1057 651 1044 q 608 1094 624 1069 q 587 1128 599 1111 q 557 1163 575 1144 l 549 1163 q 476 1101 504 1131 q 429 1050 447 1072 l 421 1050 q 308 1059 346 1050 q 257 1082 269 1068 q 249 1113 244 1096 q 263 1147 251 1126 q 297 1190 275 1167 q 394 1272 338 1232 q 503 1335 451 1311 m 868 1536 q 886 1407 874 1461 q 922 1301 899 1353 q 872 1288 897 1292 q 817 1285 847 1285 q 774 1289 794 1285 q 738 1306 754 1293 q 689 1358 711 1325 q 663 1432 667 1392 q 672 1487 658 1464 q 721 1519 686 1510 q 787 1532 753 1528 q 868 1536 821 1536 z "},"Ể":{"ha":764,"x_min":-14,"x_max":1081,"o":"m 200 0 q 42 47 97 0 q -4 175 -14 94 q 26 299 3 239 q 76 422 49 360 q 128 551 103 483 q 164 696 153 618 q 124 757 132 706 q 133 871 117 808 q 151 930 143 907 q 168 972 158 953 l 721 972 q 819 928 792 972 q 824 797 846 883 q 808 740 817 767 q 788 694 799 714 l 431 694 l 425 688 q 444 641 442 667 q 438 576 447 615 l 553 576 q 623 552 597 576 q 656 492 649 528 q 653 417 663 456 q 636 368 646 385 l 360 368 q 344 323 351 346 q 331 278 336 300 l 528 278 q 638 242 606 278 q 650 122 669 206 q 631 56 640 86 q 607 0 621 25 l 200 0 m 503 1335 q 538 1339 518 1338 q 568 1340 558 1340 q 641 1332 611 1340 q 704 1288 671 1324 q 770 1199 740 1249 q 819 1083 800 1149 q 679 1044 743 1044 q 638 1057 651 1044 q 608 1094 624 1069 q 587 1128 599 1111 q 557 1163 575 1144 l 549 1163 q 476 1101 504 1131 q 429 1050 447 1072 l 421 1050 q 308 1059 346 1050 q 257 1082 269 1068 q 249 1113 244 1096 q 263 1147 251 1126 q 297 1190 275 1167 q 394 1272 338 1232 q 503 1335 451 1311 m 725 1314 q 751 1344 731 1335 q 813 1364 771 1354 q 876 1382 858 1375 q 894 1396 893 1389 l 894 1403 q 875 1405 886 1404 q 847 1406 864 1406 q 721 1383 786 1406 l 713 1383 q 703 1415 704 1397 q 704 1454 701 1432 q 761 1539 713 1507 q 817 1563 783 1554 q 897 1572 850 1572 q 1006 1551 964 1572 q 1064 1497 1047 1529 q 1074 1431 1081 1464 l 1072 1424 q 1047 1370 1067 1390 q 989 1329 1028 1350 q 942 1299 956 1311 q 918 1269 928 1286 q 821 1260 871 1260 q 747 1274 774 1260 q 725 1314 719 1288 z "},"Ễ":{"ha":764,"x_min":-14,"x_max":885,"o":"m 200 0 q 42 47 97 0 q -4 175 -14 94 q 26 299 3 239 q 76 422 49 360 q 128 551 103 483 q 164 696 153 618 q 124 757 132 706 q 133 871 117 808 q 151 930 143 907 q 168 972 158 953 l 721 972 q 819 928 792 972 q 824 797 846 883 q 808 740 817 767 q 788 694 799 714 l 431 694 l 425 688 q 444 641 442 667 q 438 576 447 615 l 553 576 q 623 552 597 576 q 656 492 649 528 q 653 417 663 456 q 636 368 646 385 l 360 368 q 344 323 351 346 q 331 278 336 300 l 528 278 q 638 242 606 278 q 650 122 669 206 q 631 56 640 86 q 607 0 621 25 l 200 0 m 503 1335 q 538 1339 518 1338 q 568 1340 558 1340 q 641 1332 611 1340 q 704 1288 671 1324 q 770 1199 740 1249 q 819 1083 800 1149 q 679 1044 743 1044 q 638 1057 651 1044 q 608 1094 624 1069 q 587 1128 599 1111 q 557 1163 575 1144 l 549 1163 q 476 1101 504 1131 q 429 1050 447 1072 l 421 1050 q 308 1059 346 1050 q 257 1082 269 1068 q 249 1113 244 1096 q 263 1147 251 1126 q 297 1190 275 1167 q 394 1272 338 1232 q 503 1335 451 1311 m 753 1546 q 809 1557 785 1546 q 868 1599 833 1568 l 876 1599 q 872 1489 885 1556 q 851 1422 865 1450 q 810 1374 836 1394 q 714 1340 768 1340 q 640 1358 672 1340 q 574 1394 608 1376 q 492 1413 540 1413 q 437 1399 461 1413 q 385 1360 413 1386 l 376 1360 q 382 1469 369 1406 q 403 1535 389 1507 q 443 1585 417 1564 q 538 1618 485 1618 q 617 1600 585 1618 q 681 1564 650 1582 q 753 1546 713 1546 z "},"Ệ":{"ha":764,"x_min":-14,"x_max":846,"o":"m 150 -106 q 208 -99 178 -101 q 261 -97 238 -97 q 369 -131 342 -97 q 376 -243 396 -165 l 363 -299 q 306 -305 336 -303 q 253 -307 276 -307 q 144 -275 171 -307 q 139 -151 117 -243 l 150 -106 m 200 0 q 42 47 97 0 q -4 175 -14 94 q 26 299 3 239 q 76 422 49 360 q 128 551 103 483 q 164 696 153 618 q 124 757 132 706 q 133 871 117 808 q 151 930 143 907 q 168 972 158 953 l 721 972 q 819 928 792 972 q 824 797 846 883 q 808 740 817 767 q 788 694 799 714 l 431 694 l 425 688 q 444 641 442 667 q 438 576 447 615 l 553 576 q 623 552 597 576 q 656 492 649 528 q 653 417 663 456 q 636 368 646 385 l 360 368 q 344 323 351 346 q 331 278 336 300 l 528 278 q 638 242 606 278 q 650 122 669 206 q 631 56 640 86 q 607 0 621 25 l 200 0 m 503 1335 q 538 1339 518 1338 q 568 1340 558 1340 q 641 1332 611 1340 q 704 1288 671 1324 q 770 1199 740 1249 q 819 1083 800 1149 q 679 1044 743 1044 q 638 1057 651 1044 q 608 1094 624 1069 q 587 1128 599 1111 q 557 1163 575 1144 l 549 1163 q 476 1101 504 1131 q 429 1050 447 1072 l 421 1050 q 308 1059 346 1050 q 257 1082 269 1068 q 249 1113 244 1096 q 263 1147 251 1126 q 297 1190 275 1167 q 394 1272 338 1232 q 503 1335 451 1311 z "},"F":{"ha":764,"x_min":15,"x_max":861,"o":"m 328 0 q 288 -8 310 -6 q 246 -11 267 -11 q 98 13 149 -11 q 31 81 47 36 q 25 188 15 125 q 67 337 36 264 q 131 492 99 410 q 181 681 164 575 l 179 681 q 133 732 153 681 q 140 889 114 783 q 157 943 150 925 q 172 972 164 961 l 726 972 q 835 926 810 972 q 833 771 861 879 q 815 715 824 736 q 799 681 806 694 l 453 681 l 447 674 q 467 622 465 651 q 453 535 468 592 l 561 535 q 677 481 643 535 q 690 328 711 426 q 679 290 688 311 q 664 257 671 268 l 361 257 q 343 195 351 226 q 329 133 335 164 q 323 67 324 101 q 328 0 322 32 z "},"G":{"ha":903,"x_min":44,"x_max":921,"o":"m 511 563 l 758 563 q 857 521 838 563 q 847 364 876 479 l 835 314 l 783 314 l 779 306 q 788 199 803 274 q 752 118 778 160 q 678 36 726 76 q 442 -28 597 -28 q 262 10 342 -28 q 130 117 182 49 q 61 278 78 186 q 71 475 44 369 l 78 503 q 198 765 115 653 q 397 938 281 876 q 649 1000 513 1000 q 754 982 701 1000 q 842 932 807 964 q 901 853 882 897 q 911 763 921 808 q 896 681 901 714 q 889 625 890 649 q 738 606 828 606 q 630 632 667 606 q 603 701 593 658 q 615 735 607 717 q 574 738 597 738 q 483 685 531 738 q 408 519 436 632 l 401 490 q 385 390 388 435 q 397 303 383 346 q 440 276 417 286 q 493 267 463 267 q 600 306 565 267 q 608 315 604 310 q 536 339 568 319 q 493 405 504 358 q 504 536 482 451 q 508 550 507 543 q 511 563 510 557 z "},"Ĝ":{"ha":903,"x_min":44,"x_max":926,"o":"m 511 563 l 758 563 q 857 521 838 563 q 847 364 876 479 l 835 314 l 783 314 l 779 306 q 788 199 803 274 q 752 118 778 160 q 678 36 726 76 q 442 -28 597 -28 q 262 10 342 -28 q 130 117 182 49 q 61 278 78 186 q 71 475 44 369 l 78 503 q 198 765 115 653 q 397 938 281 876 q 649 1000 513 1000 q 754 982 701 1000 q 842 932 807 964 q 901 853 882 897 q 911 763 921 808 q 896 681 901 714 q 889 625 890 649 q 738 606 828 606 q 630 632 667 606 q 603 701 593 658 q 615 735 607 717 q 574 738 597 738 q 483 685 531 738 q 408 519 436 632 l 401 490 q 385 390 388 435 q 397 303 383 346 q 440 276 417 286 q 493 267 463 267 q 600 306 565 267 q 608 315 604 310 q 536 339 568 319 q 493 405 504 358 q 504 536 482 451 q 508 550 507 543 q 511 563 510 557 m 610 1333 q 645 1338 625 1336 q 675 1339 665 1339 q 748 1331 718 1339 q 811 1286 778 1322 q 877 1197 847 1247 q 926 1082 907 1147 q 786 1043 850 1043 q 744 1056 758 1043 q 715 1093 731 1068 q 694 1126 706 1110 q 664 1161 682 1143 l 656 1161 q 583 1100 611 1129 q 536 1049 554 1071 l 528 1049 q 415 1058 453 1049 q 364 1081 376 1067 q 356 1111 351 1094 q 370 1145 358 1125 q 404 1189 382 1165 q 501 1270 444 1231 q 610 1333 558 1310 z "},"Ğ":{"ha":903,"x_min":44,"x_max":954,"o":"m 511 563 l 758 563 q 857 521 838 563 q 847 364 876 479 l 835 314 l 783 314 l 779 306 q 788 199 803 274 q 752 118 778 160 q 678 36 726 76 q 442 -28 597 -28 q 262 10 342 -28 q 130 117 182 49 q 61 278 78 186 q 71 475 44 369 l 78 503 q 198 765 115 653 q 397 938 281 876 q 649 1000 513 1000 q 754 982 701 1000 q 842 932 807 964 q 901 853 882 897 q 911 763 921 808 q 896 681 901 714 q 889 625 890 649 q 738 606 828 606 q 630 632 667 606 q 603 701 593 658 q 615 735 607 717 q 574 738 597 738 q 483 685 531 738 q 408 519 436 632 l 401 490 q 385 390 388 435 q 397 303 383 346 q 440 276 417 286 q 493 267 463 267 q 600 306 565 267 q 608 315 604 310 q 536 339 568 319 q 493 405 504 358 q 504 536 482 451 q 508 550 507 543 q 511 563 510 557 m 792 1318 q 877 1313 840 1318 q 933 1296 914 1307 q 943 1253 954 1285 q 838 1110 908 1151 q 668 1069 768 1069 l 660 1069 q 492 1121 554 1069 q 421 1253 431 1172 q 426 1278 419 1268 q 446 1294 433 1289 q 505 1313 474 1308 q 583 1318 536 1318 q 610 1263 590 1281 q 668 1240 631 1244 q 743 1260 714 1242 q 792 1318 772 1279 z "},"Ġ":{"ha":903,"x_min":44,"x_max":921,"o":"m 490 1314 q 569 1324 532 1321 q 658 1328 607 1328 q 828 1275 781 1328 q 853 1138 875 1222 l 840 1090 q 758 1076 800 1081 q 672 1071 717 1071 q 505 1117 558 1071 q 478 1265 451 1164 l 490 1314 m 511 563 l 758 563 q 857 521 838 563 q 847 364 876 479 l 835 314 l 783 314 l 779 306 q 788 199 803 274 q 752 118 778 160 q 678 36 726 76 q 442 -28 597 -28 q 262 10 342 -28 q 130 117 182 49 q 61 278 78 186 q 71 475 44 369 l 78 503 q 198 765 115 653 q 397 938 281 876 q 649 1000 513 1000 q 754 982 701 1000 q 842 932 807 964 q 901 853 882 897 q 911 763 921 808 q 896 681 901 714 q 889 625 890 649 q 738 606 828 606 q 630 632 667 606 q 603 701 593 658 q 615 735 607 717 q 574 738 597 738 q 483 685 531 738 q 408 519 436 632 l 401 490 q 385 390 388 435 q 397 303 383 346 q 440 276 417 286 q 493 267 463 267 q 600 306 565 267 q 608 315 604 310 q 536 339 568 319 q 493 405 504 358 q 504 536 482 451 q 508 550 507 543 q 511 563 510 557 z "},"Ģ":{"ha":903,"x_min":44,"x_max":921,"o":"m 511 563 l 758 563 q 857 521 838 563 q 847 364 876 479 l 835 314 l 783 314 l 779 306 q 788 199 803 274 q 752 118 778 160 q 678 36 726 76 q 442 -28 597 -28 q 262 10 342 -28 q 130 117 182 49 q 61 278 78 186 q 71 475 44 369 l 78 503 q 198 765 115 653 q 397 938 281 876 q 649 1000 513 1000 q 754 982 701 1000 q 842 932 807 964 q 901 853 882 897 q 911 763 921 808 q 896 681 901 714 q 889 625 890 649 q 738 606 828 606 q 630 632 667 606 q 603 701 593 658 q 615 735 607 717 q 574 738 597 738 q 483 685 531 738 q 408 519 436 632 l 401 490 q 385 390 388 435 q 397 303 383 346 q 440 276 417 286 q 493 267 463 267 q 600 306 565 267 q 608 315 604 310 q 536 339 568 319 q 493 405 504 358 q 504 536 482 451 q 508 550 507 543 q 511 563 510 557 m 217 -94 q 288 -79 257 -83 q 371 -75 319 -75 q 470 -93 444 -75 q 490 -153 496 -111 q 456 -251 485 -206 q 383 -324 426 -296 q 319 -353 350 -346 q 232 -361 289 -361 q 136 -344 174 -361 q 171 -262 157 -299 q 196 -187 185 -226 q 217 -94 207 -149 z "},"Ǧ":{"ha":903,"x_min":44,"x_max":981,"o":"m 511 563 l 758 563 q 857 521 838 563 q 847 364 876 479 l 835 314 l 783 314 l 779 306 q 788 199 803 274 q 752 118 778 160 q 678 36 726 76 q 442 -28 597 -28 q 262 10 342 -28 q 130 117 182 49 q 61 278 78 186 q 71 475 44 369 l 78 503 q 198 765 115 653 q 397 938 281 876 q 649 1000 513 1000 q 754 982 701 1000 q 842 932 807 964 q 901 853 882 897 q 911 763 921 808 q 896 681 901 714 q 889 625 890 649 q 738 606 828 606 q 630 632 667 606 q 603 701 593 658 q 615 735 607 717 q 574 738 597 738 q 483 685 531 738 q 408 519 436 632 l 401 490 q 385 390 388 435 q 397 303 383 346 q 440 276 417 286 q 493 267 463 267 q 600 306 565 267 q 608 315 604 310 q 536 339 568 319 q 493 405 504 358 q 504 536 482 451 q 508 550 507 543 q 511 563 510 557 m 722 1063 q 688 1060 708 1061 q 657 1058 668 1058 q 584 1066 614 1058 q 521 1107 554 1074 q 455 1191 485 1144 q 406 1297 425 1238 q 478 1325 446 1317 q 546 1333 511 1333 q 588 1322 574 1333 q 617 1288 603 1311 q 638 1256 626 1271 q 667 1224 649 1240 l 676 1224 q 749 1281 721 1253 q 796 1329 778 1308 l 804 1329 q 917 1321 879 1329 q 968 1299 956 1313 q 976 1271 981 1286 q 963 1239 974 1257 q 928 1197 951 1221 q 831 1122 888 1158 q 722 1063 775 1086 z "},"Ḡ":{"ha":903,"x_min":44,"x_max":947,"o":"m 511 563 l 758 563 q 857 521 838 563 q 847 364 876 479 l 835 314 l 783 314 l 779 306 q 788 199 803 274 q 752 118 778 160 q 678 36 726 76 q 442 -28 597 -28 q 262 10 342 -28 q 130 117 182 49 q 61 278 78 186 q 71 475 44 369 l 78 503 q 198 765 115 653 q 397 938 281 876 q 649 1000 513 1000 q 754 982 701 1000 q 842 932 807 964 q 901 853 882 897 q 911 763 921 808 q 896 681 901 714 q 889 625 890 649 q 738 606 828 606 q 630 632 667 606 q 603 701 593 658 q 615 735 607 717 q 574 738 597 738 q 483 685 531 738 q 408 519 436 632 l 401 490 q 385 390 388 435 q 397 303 383 346 q 440 276 417 286 q 493 267 463 267 q 600 306 565 267 q 608 315 604 310 q 536 339 568 319 q 493 405 504 358 q 504 536 482 451 q 508 550 507 543 q 511 563 510 557 m 446 1319 l 835 1319 q 922 1288 896 1319 q 933 1206 947 1257 q 911 1144 924 1171 q 882 1094 899 1118 l 553 1094 q 422 1134 453 1094 q 417 1250 392 1174 q 431 1289 424 1272 q 446 1319 439 1306 z "},"H":{"ha":903,"x_min":7,"x_max":979,"o":"m 64 590 l 131 590 q 163 701 147 644 q 189 819 178 758 q 196 898 196 860 q 190 972 196 936 q 261 983 225 979 q 332 986 297 986 q 470 940 435 986 q 486 789 506 893 q 465 690 478 740 q 436 590 451 640 l 490 590 q 601 557 575 590 q 658 763 635 658 q 674 972 682 867 q 718 983 697 981 q 774 986 739 986 q 936 940 893 986 q 960 769 979 893 q 914 599 947 697 q 844 390 881 500 q 788 168 808 279 q 776 74 778 115 q 778 0 774 32 q 727 -10 751 -6 q 667 -14 703 -14 q 547 1 589 -14 q 491 54 504 17 q 486 158 478 92 q 498 228 490 193 q 515 300 506 264 l 344 300 q 308 148 322 224 q 293 -1 293 72 q 199 -14 263 -14 q 75 7 118 -14 q 19 78 32 28 q 19 213 7 128 q 32 278 24 244 q 50 347 40 313 q 40 439 39 383 q 56 556 40 494 l 64 590 z "},"Ĥ":{"ha":903,"x_min":7,"x_max":979,"o":"m 64 590 l 131 590 q 163 701 147 644 q 189 819 178 758 q 196 898 196 860 q 190 972 196 936 q 261 983 225 979 q 332 986 297 986 q 470 940 435 986 q 486 789 506 893 q 465 690 478 740 q 436 590 451 640 l 490 590 q 601 557 575 590 q 658 763 635 658 q 674 972 682 867 q 718 983 697 981 q 774 986 739 986 q 936 940 893 986 q 960 769 979 893 q 914 599 947 697 q 844 390 881 500 q 788 168 808 279 q 776 74 778 115 q 778 0 774 32 q 727 -10 751 -6 q 667 -14 703 -14 q 547 1 589 -14 q 491 54 504 17 q 486 158 478 92 q 498 228 490 193 q 515 300 506 264 l 344 300 q 308 148 322 224 q 293 -1 293 72 q 199 -14 263 -14 q 75 7 118 -14 q 19 78 32 28 q 19 213 7 128 q 32 278 24 244 q 50 347 40 313 q 40 439 39 383 q 56 556 40 494 l 64 590 m 588 1333 q 623 1338 603 1336 q 653 1339 643 1339 q 726 1331 696 1339 q 789 1286 756 1322 q 855 1197 825 1247 q 904 1082 885 1147 q 764 1043 828 1043 q 722 1056 736 1043 q 693 1093 708 1068 q 672 1126 683 1110 q 642 1161 660 1143 l 633 1161 q 560 1100 589 1129 q 514 1049 532 1071 l 506 1049 q 392 1058 431 1049 q 342 1081 354 1067 q 333 1111 329 1094 q 348 1145 336 1125 q 382 1189 360 1165 q 479 1270 422 1231 q 588 1333 536 1310 z "},"Ḥ":{"ha":903,"x_min":7,"x_max":979,"o":"m 221 -106 q 278 -99 249 -101 q 332 -97 308 -97 q 440 -131 413 -97 q 447 -243 467 -165 l 433 -299 q 377 -305 407 -303 q 324 -307 347 -307 q 215 -275 242 -307 q 210 -151 188 -243 l 221 -106 m 64 590 l 131 590 q 163 701 147 644 q 189 819 178 758 q 196 898 196 860 q 190 972 196 936 q 261 983 225 979 q 332 986 297 986 q 470 940 435 986 q 486 789 506 893 q 465 690 478 740 q 436 590 451 640 l 490 590 q 601 557 575 590 q 658 763 635 658 q 674 972 682 867 q 718 983 697 981 q 774 986 739 986 q 936 940 893 986 q 960 769 979 893 q 914 599 947 697 q 844 390 881 500 q 788 168 808 279 q 776 74 778 115 q 778 0 774 32 q 727 -10 751 -6 q 667 -14 703 -14 q 547 1 589 -14 q 491 54 504 17 q 486 158 478 92 q 498 228 490 193 q 515 300 506 264 l 344 300 q 308 148 322 224 q 293 -1 293 72 q 199 -14 263 -14 q 75 7 118 -14 q 19 78 32 28 q 19 213 7 128 q 32 278 24 244 q 50 347 40 313 q 40 439 39 383 q 56 556 40 494 l 64 590 z "},"Ḫ":{"ha":903,"x_min":7,"x_max":979,"o":"m 328 -131 q 405 -106 375 -128 q 456 -37 435 -83 q 553 -44 521 -37 q 606 -64 586 -51 q 619 -85 619 -72 q 613 -115 619 -99 q 493 -268 569 -222 q 314 -314 417 -314 l 304 -314 q 136 -257 193 -314 q 82 -115 79 -200 q 108 -68 83 -82 q 247 -37 160 -42 q 269 -103 250 -81 q 328 -131 288 -125 m 64 590 l 131 590 q 163 701 147 644 q 189 819 178 758 q 196 898 196 860 q 190 972 196 936 q 261 983 225 979 q 332 986 297 986 q 470 940 435 986 q 486 789 506 893 q 465 690 478 740 q 436 590 451 640 l 490 590 q 601 557 575 590 q 658 763 635 658 q 674 972 682 867 q 718 983 697 981 q 774 986 739 986 q 936 940 893 986 q 960 769 979 893 q 914 599 947 697 q 844 390 881 500 q 788 168 808 279 q 776 74 778 115 q 778 0 774 32 q 727 -10 751 -6 q 667 -14 703 -14 q 547 1 589 -14 q 491 54 504 17 q 486 158 478 92 q 498 228 490 193 q 515 300 506 264 l 344 300 q 308 148 322 224 q 293 -1 293 72 q 199 -14 263 -14 q 75 7 118 -14 q 19 78 32 28 q 19 213 7 128 q 32 278 24 244 q 50 347 40 313 q 40 439 39 383 q 56 556 40 494 l 64 590 z "},"I":{"ha":694,"x_min":-81,"x_max":801,"o":"m 549 0 l 111 0 q -18 199 -81 0 q 2 254 -7 233 q 21 292 11 275 l 204 292 l 210 299 q 186 360 188 328 q 203 447 185 392 q 245 560 221 504 q 279 683 269 615 q 151 839 118 699 q 174 914 163 881 q 199 972 185 947 l 638 972 q 757 789 801 972 q 740 728 749 754 q 719 681 731 703 l 544 681 l 539 674 q 560 622 558 649 q 551 550 563 594 q 526 477 543 519 q 492 386 508 435 q 469 292 475 338 l 481 292 q 582 244 554 292 q 590 113 610 197 q 572 53 581 75 q 549 0 564 31 z "},"Ì":{"ha":694,"x_min":-81,"x_max":801,"o":"m 549 0 l 111 0 q -18 199 -81 0 q 2 254 -7 233 q 21 292 11 275 l 204 292 l 210 299 q 186 360 188 328 q 203 447 185 392 q 245 560 221 504 q 279 683 269 615 q 151 839 118 699 q 174 914 163 881 q 199 972 185 947 l 638 972 q 757 789 801 972 q 740 728 749 754 q 719 681 731 703 l 544 681 l 539 674 q 560 622 558 649 q 551 550 563 594 q 526 477 543 519 q 492 386 508 435 q 469 292 475 338 l 481 292 q 582 244 554 292 q 590 113 610 197 q 572 53 581 75 q 549 0 564 31 m 563 1313 q 590 1192 569 1244 q 658 1078 611 1139 q 578 1063 624 1067 q 501 1058 532 1058 q 443 1064 468 1058 q 404 1078 418 1069 q 336 1144 361 1106 q 301 1232 311 1182 q 309 1264 299 1247 q 342 1288 319 1281 q 455 1308 394 1304 q 563 1313 515 1313 z "},"Í":{"ha":694,"x_min":-81,"x_max":807,"o":"m 549 0 l 111 0 q -18 199 -81 0 q 2 254 -7 233 q 21 292 11 275 l 204 292 l 210 299 q 186 360 188 328 q 203 447 185 392 q 245 560 221 504 q 279 683 269 615 q 151 839 118 699 q 174 914 163 881 q 199 972 185 947 l 638 972 q 757 789 801 972 q 740 728 749 754 q 719 681 731 703 l 544 681 l 539 674 q 560 622 558 649 q 551 550 563 594 q 526 477 543 519 q 492 386 508 435 q 469 292 475 338 l 481 292 q 582 244 554 292 q 590 113 610 197 q 572 53 581 75 q 549 0 564 31 m 563 1313 q 681 1308 624 1311 q 783 1288 739 1304 q 806 1264 804 1281 q 796 1232 807 1247 q 717 1135 756 1169 q 629 1078 678 1101 q 577 1064 611 1069 q 510 1058 543 1058 q 436 1063 479 1058 q 361 1078 393 1067 q 449 1152 414 1119 q 509 1222 483 1185 q 563 1313 535 1260 z "},"Î":{"ha":694,"x_min":-81,"x_max":811,"o":"m 549 0 l 111 0 q -18 199 -81 0 q 2 254 -7 233 q 21 292 11 275 l 204 292 l 210 299 q 186 360 188 328 q 203 447 185 392 q 245 560 221 504 q 279 683 269 615 q 151 839 118 699 q 174 914 163 881 q 199 972 185 947 l 638 972 q 757 789 801 972 q 740 728 749 754 q 719 681 731 703 l 544 681 l 539 674 q 560 622 558 649 q 551 550 563 594 q 526 477 543 519 q 492 386 508 435 q 469 292 475 338 l 481 292 q 582 244 554 292 q 590 113 610 197 q 572 53 581 75 q 549 0 564 31 m 494 1335 q 530 1339 510 1338 q 560 1340 550 1340 q 633 1332 603 1340 q 696 1288 663 1324 q 762 1199 732 1249 q 811 1083 792 1149 q 671 1044 735 1044 q 629 1057 643 1044 q 600 1094 615 1069 q 578 1128 590 1111 q 549 1163 567 1144 l 540 1163 q 467 1101 496 1131 q 421 1050 439 1072 l 413 1050 q 299 1059 338 1050 q 249 1082 261 1068 q 240 1113 236 1096 q 255 1147 243 1126 q 289 1190 267 1167 q 386 1272 329 1232 q 494 1335 443 1311 z "},"Ï":{"ha":694,"x_min":-81,"x_max":818,"o":"m 549 0 l 111 0 q -18 199 -81 0 q 2 254 -7 233 q 21 292 11 275 l 204 292 l 210 299 q 186 360 188 328 q 203 447 185 392 q 245 560 221 504 q 279 683 269 615 q 151 839 118 699 q 174 914 163 881 q 199 972 185 947 l 638 972 q 757 789 801 972 q 740 728 749 754 q 719 681 731 703 l 544 681 l 539 674 q 560 622 558 649 q 551 550 563 594 q 526 477 543 519 q 492 386 508 435 q 469 292 475 338 l 481 292 q 582 244 554 292 q 590 113 610 197 q 572 53 581 75 q 549 0 564 31 m 318 1297 q 366 1301 342 1300 q 408 1301 390 1301 q 502 1263 482 1301 q 501 1154 522 1224 l 485 1097 q 438 1092 463 1093 q 393 1092 413 1092 q 303 1124 324 1092 q 301 1232 282 1156 l 318 1297 m 614 1297 q 662 1301 638 1300 q 704 1301 686 1301 q 798 1263 778 1301 q 797 1154 818 1224 l 781 1097 q 733 1092 758 1093 q 689 1092 708 1092 q 599 1124 619 1092 q 597 1232 578 1156 l 614 1297 z "},"Ĩ":{"ha":694,"x_min":-81,"x_max":846,"o":"m 549 0 l 111 0 q -18 199 -81 0 q 2 254 -7 233 q 21 292 11 275 l 204 292 l 210 299 q 186 360 188 328 q 203 447 185 392 q 245 560 221 504 q 279 683 269 615 q 151 839 118 699 q 174 914 163 881 q 199 972 185 947 l 638 972 q 757 789 801 972 q 740 728 749 754 q 719 681 731 703 l 544 681 l 539 674 q 560 622 558 649 q 551 550 563 594 q 526 477 543 519 q 492 386 508 435 q 469 292 475 338 l 481 292 q 582 244 554 292 q 590 113 610 197 q 572 53 581 75 q 549 0 564 31 m 700 1268 q 768 1278 742 1268 q 829 1321 794 1289 l 838 1321 q 845 1271 844 1297 q 840 1211 846 1244 q 817 1126 832 1157 q 775 1074 801 1094 q 730 1049 753 1056 q 679 1043 707 1043 q 581 1061 625 1043 q 494 1097 536 1079 q 403 1115 451 1115 q 333 1103 361 1115 q 274 1063 306 1090 l 265 1063 q 263 1172 254 1110 q 285 1256 269 1225 q 328 1307 301 1286 q 428 1340 369 1340 q 524 1322 481 1340 q 610 1286 568 1304 q 700 1268 651 1268 z "},"Ī":{"ha":694,"x_min":-81,"x_max":858,"o":"m 549 0 l 111 0 q -18 199 -81 0 q 2 254 -7 233 q 21 292 11 275 l 204 292 l 210 299 q 186 360 188 328 q 203 447 185 392 q 245 560 221 504 q 279 683 269 615 q 151 839 118 699 q 174 914 163 881 q 199 972 185 947 l 638 972 q 757 789 801 972 q 740 728 749 754 q 719 681 731 703 l 544 681 l 539 674 q 560 622 558 649 q 551 550 563 594 q 526 477 543 519 q 492 386 508 435 q 469 292 475 338 l 481 292 q 582 244 554 292 q 590 113 610 197 q 572 53 581 75 q 549 0 564 31 m 283 1296 l 758 1296 q 838 1261 817 1296 q 843 1176 858 1226 q 821 1119 832 1139 q 799 1083 810 1099 l 401 1083 q 278 1115 308 1083 q 261 1222 247 1146 q 283 1296 269 1267 z "},"Ĭ":{"ha":694,"x_min":-81,"x_max":839,"o":"m 549 0 l 111 0 q -18 199 -81 0 q 2 254 -7 233 q 21 292 11 275 l 204 292 l 210 299 q 186 360 188 328 q 203 447 185 392 q 245 560 221 504 q 279 683 269 615 q 151 839 118 699 q 174 914 163 881 q 199 972 185 947 l 638 972 q 757 789 801 972 q 740 728 749 754 q 719 681 731 703 l 544 681 l 539 674 q 560 622 558 649 q 551 550 563 594 q 526 477 543 519 q 492 386 508 435 q 469 292 475 338 l 481 292 q 582 244 554 292 q 590 113 610 197 q 572 53 581 75 q 549 0 564 31 m 676 1319 q 762 1314 725 1319 q 818 1297 799 1308 q 828 1254 839 1286 q 723 1112 793 1153 q 553 1071 653 1071 l 544 1071 q 377 1122 439 1071 q 306 1254 315 1174 q 311 1280 304 1269 q 331 1296 318 1290 q 390 1315 358 1310 q 468 1319 421 1319 q 495 1264 475 1282 q 553 1242 515 1246 q 628 1262 599 1243 q 676 1319 657 1281 z "},"Į":{"ha":694,"x_min":-81,"x_max":801,"o":"m 549 0 l 547 0 l 549 -1 q 522 -21 543 -18 q 441 -46 463 -32 q 414 -79 419 -60 q 421 -111 408 -101 q 456 -121 433 -121 q 517 -93 494 -121 l 525 -93 q 535 -139 533 -114 q 531 -197 538 -164 q 469 -309 517 -269 q 340 -349 422 -349 q 200 -307 251 -349 q 163 -164 149 -265 q 278 0 178 -60 l 111 0 q -18 199 -81 0 q 2 254 -7 233 q 21 292 11 275 l 204 292 l 210 299 q 186 360 188 328 q 203 447 185 392 q 245 560 221 504 q 279 683 269 615 q 151 839 118 699 q 174 914 163 881 q 199 972 185 947 l 638 972 q 757 789 801 972 q 740 728 749 754 q 719 681 731 703 l 544 681 l 539 674 q 560 622 558 649 q 551 550 563 594 q 526 477 543 519 q 492 386 508 435 q 469 292 475 338 l 481 292 q 582 244 554 292 q 590 113 610 197 q 572 53 581 75 q 549 0 564 31 z "},"İ":{"ha":694,"x_min":-81,"x_max":801,"o":"m 375 1315 q 454 1326 417 1322 q 543 1329 492 1329 q 713 1276 665 1329 q 738 1139 760 1224 l 725 1092 q 643 1077 685 1082 q 557 1072 601 1072 q 390 1119 443 1072 q 363 1267 336 1165 l 375 1315 m 549 0 l 111 0 q -18 199 -81 0 q 2 254 -7 233 q 21 292 11 275 l 204 292 l 210 299 q 186 360 188 328 q 203 447 185 392 q 245 560 221 504 q 279 683 269 615 q 151 839 118 699 q 174 914 163 881 q 199 972 185 947 l 638 972 q 757 789 801 972 q 740 728 749 754 q 719 681 731 703 l 544 681 l 539 674 q 560 622 558 649 q 551 550 563 594 q 526 477 543 519 q 492 386 508 435 q 469 292 475 338 l 481 292 q 582 244 554 292 q 590 113 610 197 q 572 53 581 75 q 549 0 564 31 z "},"Ȉ":{"ha":694,"x_min":-81,"x_max":824,"o":"m 394 1314 q 422 1193 401 1246 q 490 1079 443 1140 q 410 1064 456 1068 q 333 1060 364 1060 q 275 1065 300 1060 q 236 1079 250 1071 q 168 1145 193 1107 q 133 1233 143 1183 q 141 1265 131 1249 q 174 1289 151 1282 q 287 1310 226 1306 q 394 1314 347 1314 m 728 1314 q 756 1193 735 1246 q 824 1079 776 1140 q 743 1064 789 1068 q 667 1060 697 1060 q 608 1065 633 1060 q 569 1079 583 1071 q 501 1145 526 1107 q 467 1233 476 1183 q 474 1265 464 1249 q 507 1289 485 1282 q 620 1310 560 1306 q 728 1314 681 1314 m 549 0 l 111 0 q -18 199 -81 0 q 2 254 -7 233 q 21 292 11 275 l 204 292 l 210 299 q 186 360 188 328 q 203 447 185 392 q 245 560 221 504 q 279 683 269 615 q 151 839 118 699 q 174 914 163 881 q 199 972 185 947 l 638 972 q 757 789 801 972 q 740 728 749 754 q 719 681 731 703 l 544 681 l 539 674 q 560 622 558 649 q 551 550 563 594 q 526 477 543 519 q 492 386 508 435 q 469 292 475 338 l 481 292 q 582 244 554 292 q 590 113 610 197 q 572 53 581 75 q 549 0 564 31 z "},"Ȋ":{"ha":694,"x_min":-81,"x_max":801,"o":"m 549 0 l 111 0 q -18 199 -81 0 q 2 254 -7 233 q 21 292 11 275 l 204 292 l 210 299 q 186 360 188 328 q 203 447 185 392 q 245 560 221 504 q 279 683 269 615 q 151 839 118 699 q 174 914 163 881 q 199 972 185 947 l 638 972 q 757 789 801 972 q 740 728 749 754 q 719 681 731 703 l 544 681 l 539 674 q 560 622 558 649 q 551 550 563 594 q 526 477 543 519 q 492 386 508 435 q 469 292 475 338 l 481 292 q 582 244 554 292 q 590 113 610 197 q 572 53 581 75 q 549 0 564 31 m 428 1085 q 343 1090 381 1085 q 286 1107 306 1096 q 276 1150 265 1118 q 381 1292 311 1251 q 551 1333 451 1333 l 560 1333 q 727 1283 665 1333 q 799 1150 789 1232 q 794 1126 801 1136 q 774 1108 786 1115 q 716 1090 747 1094 q 636 1085 685 1085 q 610 1140 631 1122 q 551 1163 589 1158 q 476 1142 506 1161 q 428 1085 447 1124 z "},"Ḯ":{"ha":694,"x_min":-81,"x_max":874,"o":"m 549 0 l 111 0 q -18 199 -81 0 q 2 254 -7 233 q 21 292 11 275 l 204 292 l 210 299 q 186 360 188 328 q 203 447 185 392 q 245 560 221 504 q 279 683 269 615 q 151 839 118 699 q 174 914 163 881 q 199 972 185 947 l 638 972 q 757 789 801 972 q 740 728 749 754 q 719 681 731 703 l 544 681 l 539 674 q 560 622 558 649 q 551 550 563 594 q 526 477 543 519 q 492 386 508 435 q 469 292 475 338 l 481 292 q 582 244 554 292 q 590 113 610 197 q 572 53 581 75 q 549 0 564 31 m 318 1297 q 366 1301 342 1300 q 408 1301 390 1301 q 502 1263 482 1301 q 501 1154 522 1224 l 485 1097 q 438 1092 463 1093 q 393 1092 413 1092 q 303 1124 324 1092 q 301 1232 282 1156 l 318 1297 m 614 1297 q 662 1301 638 1300 q 704 1301 686 1301 q 798 1263 778 1301 q 797 1154 818 1224 l 781 1097 q 733 1092 758 1093 q 689 1092 708 1092 q 599 1124 619 1092 q 597 1232 578 1156 l 614 1297 m 629 1585 q 748 1580 690 1583 q 850 1560 806 1576 q 872 1536 871 1553 q 863 1504 874 1519 q 783 1408 822 1442 q 696 1350 744 1374 q 644 1336 678 1342 q 576 1331 610 1331 q 503 1335 546 1331 q 428 1350 460 1339 q 515 1424 481 1392 q 576 1494 550 1457 q 629 1585 601 1532 z "},"Ỉ":{"ha":694,"x_min":-81,"x_max":801,"o":"m 549 0 l 111 0 q -18 199 -81 0 q 2 254 -7 233 q 21 292 11 275 l 204 292 l 210 299 q 186 360 188 328 q 203 447 185 392 q 245 560 221 504 q 279 683 269 615 q 151 839 118 699 q 174 914 163 881 q 199 972 185 947 l 638 972 q 757 789 801 972 q 740 728 749 754 q 719 681 731 703 l 544 681 l 539 674 q 560 622 558 649 q 551 550 563 594 q 526 477 543 519 q 492 386 508 435 q 469 292 475 338 l 481 292 q 582 244 554 292 q 590 113 610 197 q 572 53 581 75 q 549 0 564 31 m 397 1089 q 423 1119 403 1110 q 485 1139 443 1129 q 548 1157 531 1150 q 567 1171 565 1164 l 567 1178 q 547 1180 558 1179 q 519 1181 536 1181 q 393 1158 458 1181 l 385 1158 q 375 1190 376 1172 q 376 1229 374 1207 q 433 1314 385 1282 q 489 1338 456 1329 q 569 1347 522 1347 q 678 1326 636 1347 q 736 1272 719 1304 q 746 1206 753 1239 l 744 1199 q 719 1145 739 1165 q 661 1104 700 1125 q 614 1074 628 1086 q 590 1044 600 1061 q 493 1035 543 1035 q 419 1049 446 1035 q 397 1089 392 1063 z "},"Ị":{"ha":694,"x_min":-81,"x_max":801,"o":"m 549 0 l 111 0 q -18 199 -81 0 q 2 254 -7 233 q 21 292 11 275 l 204 292 l 210 299 q 186 360 188 328 q 203 447 185 392 q 245 560 221 504 q 279 683 269 615 q 151 839 118 699 q 174 914 163 881 q 199 972 185 947 l 638 972 q 757 789 801 972 q 740 728 749 754 q 719 681 731 703 l 544 681 l 539 674 q 560 622 558 649 q 551 550 563 594 q 526 477 543 519 q 492 386 508 435 q 469 292 475 338 l 481 292 q 582 244 554 292 q 590 113 610 197 q 572 53 581 75 q 549 0 564 31 m 99 -106 q 156 -99 126 -101 q 210 -97 186 -97 q 317 -131 290 -97 q 325 -243 344 -165 l 311 -299 q 255 -305 285 -303 q 201 -307 225 -307 q 92 -275 119 -307 q 88 -151 65 -243 l 99 -106 z "},"J":{"ha":694,"x_min":-46,"x_max":790,"o":"m 194 271 q 266 277 239 271 q 318 297 293 283 q 326 319 322 308 q 332 339 329 329 q 365 471 353 404 q 389 605 376 538 q 425 739 401 672 l 421 747 q 324 693 365 706 q 240 681 283 681 q 140 740 164 681 q 138 881 117 799 q 153 926 144 906 q 169 963 161 947 q 345 980 257 974 q 526 986 433 986 q 730 933 669 986 q 756 793 790 881 q 710 623 725 714 q 678 437 694 532 q 626 249 663 342 q 467 41 574 110 q 190 -28 360 -28 q 61 -12 114 -28 q -17 36 8 4 q -45 120 -44 75 q -24 251 -46 165 q -5 310 -14 288 q 14 347 4 333 l 22 347 q 115 288 72 304 q 194 271 157 271 z "},"Ĵ":{"ha":694,"x_min":-46,"x_max":814,"o":"m 194 271 q 266 277 239 271 q 318 297 293 283 q 326 319 322 308 q 332 339 329 329 q 365 471 353 404 q 389 605 376 538 q 425 739 401 672 l 421 747 q 324 693 365 706 q 240 681 283 681 q 140 740 164 681 q 138 881 117 799 q 153 926 144 906 q 169 963 161 947 q 345 980 257 974 q 526 986 433 986 q 730 933 669 986 q 756 793 790 881 q 710 623 725 714 q 678 437 694 532 q 626 249 663 342 q 467 41 574 110 q 190 -28 360 -28 q 61 -12 114 -28 q -17 36 8 4 q -45 120 -44 75 q -24 251 -46 165 q -5 310 -14 288 q 14 347 4 333 l 22 347 q 115 288 72 304 q 194 271 157 271 m 497 1333 q 533 1338 513 1336 q 563 1339 553 1339 q 635 1331 606 1339 q 699 1286 665 1322 q 765 1197 735 1247 q 814 1082 794 1147 q 674 1043 738 1043 q 632 1056 646 1043 q 603 1093 618 1068 q 581 1126 593 1110 q 551 1161 569 1143 l 543 1161 q 470 1100 499 1129 q 424 1049 442 1071 l 415 1049 q 302 1058 340 1049 q 251 1081 264 1067 q 243 1111 239 1094 q 258 1145 246 1125 q 292 1189 269 1165 q 389 1270 332 1231 q 497 1333 446 1310 z "},"K":{"ha":833,"x_min":-33,"x_max":925,"o":"m 160 974 q 223 983 188 981 q 292 986 258 986 q 424 943 388 986 q 444 810 460 900 q 417 686 433 744 q 382 572 401 628 l 389 568 q 496 681 440 610 q 569 812 536 732 q 622 986 603 892 l 669 986 q 869 956 813 986 q 910 858 925 925 q 885 798 903 832 q 840 725 867 764 q 744 600 800 665 q 622 472 688 535 q 650 315 631 382 q 708 278 663 278 q 747 292 733 278 l 756 292 q 754 217 758 257 q 739 133 750 178 q 713 65 728 92 q 678 17 699 38 q 624 -18 653 -8 q 558 -28 596 -28 q 414 90 456 -28 q 385 275 386 161 l 379 279 q 271 229 319 244 q 251 118 258 175 q 244 -1 243 61 q 205 -10 228 -7 q 149 -14 182 -14 q 7 34 47 -14 q -19 186 -33 82 q 29 400 -4 299 q 98 603 63 501 q 154 818 133 704 q 160 974 168 883 z "},"Ķ":{"ha":833,"x_min":-33,"x_max":925,"o":"m 160 974 q 223 983 188 981 q 292 986 258 986 q 424 943 388 986 q 444 810 460 900 q 417 686 433 744 q 382 572 401 628 l 389 568 q 496 681 440 610 q 569 812 536 732 q 622 986 603 892 l 669 986 q 869 956 813 986 q 910 858 925 925 q 885 798 903 832 q 840 725 867 764 q 744 600 800 665 q 622 472 688 535 q 650 315 631 382 q 708 278 663 278 q 747 292 733 278 l 756 292 q 754 217 758 257 q 739 133 750 178 q 713 65 728 92 q 678 17 699 38 q 624 -18 653 -8 q 558 -28 596 -28 q 414 90 456 -28 q 385 275 386 161 l 379 279 q 271 229 319 244 q 251 118 258 175 q 244 -1 243 61 q 205 -10 228 -7 q 149 -14 182 -14 q 7 34 47 -14 q -19 186 -33 82 q 29 400 -4 299 q 98 603 63 501 q 154 818 133 704 q 160 974 168 883 m 204 -94 q 276 -79 244 -83 q 358 -75 307 -75 q 458 -93 432 -75 q 478 -153 483 -111 q 443 -251 472 -206 q 371 -324 414 -296 q 307 -353 338 -346 q 219 -361 276 -361 q 124 -344 161 -361 q 158 -262 144 -299 q 183 -187 172 -226 q 204 -94 194 -149 z "},"L":{"ha":764,"x_min":0,"x_max":729,"o":"m 225 0 q 137 24 179 0 q 63 89 94 49 q 15 178 31 129 q 8 275 0 226 q 58 462 25 375 q 126 635 92 549 q 178 815 161 721 q 185 897 186 858 q 178 969 185 936 q 249 981 213 976 q 318 986 285 986 q 442 960 404 986 q 488 892 481 935 q 486 793 496 849 q 438 618 471 700 q 376 460 406 536 q 340 306 347 383 l 453 306 q 478 407 464 353 q 601 424 532 424 q 701 399 672 424 q 729 310 729 375 q 714 185 729 254 q 674 51 699 115 q 619 -58 649 -14 q 385 0 422 -58 l 225 0 z "},"Ĺ":{"ha":764,"x_min":0,"x_max":729,"o":"m 225 0 q 137 24 179 0 q 63 89 94 49 q 15 178 31 129 q 8 275 0 226 q 58 462 25 375 q 126 635 92 549 q 178 815 161 721 q 185 897 186 858 q 178 969 185 936 q 249 981 213 976 q 318 986 285 986 q 442 960 404 986 q 488 892 481 935 q 486 793 496 849 q 438 618 471 700 q 376 460 406 536 q 340 306 347 383 l 453 306 q 478 407 464 353 q 601 424 532 424 q 701 399 672 424 q 729 310 729 375 q 714 185 729 254 q 674 51 699 115 q 619 -58 649 -14 q 385 0 422 -58 l 225 0 m 406 1311 q 524 1306 467 1310 q 626 1286 582 1303 q 649 1263 647 1279 q 639 1231 650 1246 q 560 1134 599 1168 q 472 1076 521 1100 q 420 1063 454 1068 q 353 1057 386 1057 q 279 1061 322 1057 q 204 1076 236 1065 q 292 1151 257 1118 q 352 1221 326 1183 q 406 1311 378 1258 z "},"Ļ":{"ha":764,"x_min":0,"x_max":729,"o":"m 225 0 q 137 24 179 0 q 63 89 94 49 q 15 178 31 129 q 8 275 0 226 q 58 462 25 375 q 126 635 92 549 q 178 815 161 721 q 185 897 186 858 q 178 969 185 936 q 249 981 213 976 q 318 986 285 986 q 442 960 404 986 q 488 892 481 935 q 486 793 496 849 q 438 618 471 700 q 376 460 406 536 q 340 306 347 383 l 453 306 q 478 407 464 353 q 601 424 532 424 q 701 399 672 424 q 729 310 729 375 q 714 185 729 254 q 674 51 699 115 q 619 -58 649 -14 q 385 0 422 -58 l 225 0 m 135 -94 q 206 -79 175 -83 q 289 -75 238 -75 q 388 -93 363 -75 q 408 -153 414 -111 q 374 -251 403 -206 q 301 -324 344 -296 q 238 -353 268 -346 q 150 -361 207 -361 q 54 -344 92 -361 q 89 -262 75 -299 q 114 -187 103 -226 q 135 -94 125 -149 z "},"Ľ":{"ha":764,"x_min":0,"x_max":864,"o":"m 225 0 q 137 24 179 0 q 63 89 94 49 q 15 178 31 129 q 8 275 0 226 q 58 462 25 375 q 126 635 92 549 q 178 815 161 721 q 185 897 186 858 q 178 969 185 936 q 249 981 213 976 q 318 986 285 986 q 442 960 404 986 q 488 892 481 935 q 486 793 496 849 q 438 618 471 700 q 376 460 406 536 q 340 306 347 383 l 453 306 q 478 407 464 353 q 601 424 532 424 q 701 399 672 424 q 729 310 729 375 q 714 185 729 254 q 674 51 699 115 q 619 -58 649 -14 q 385 0 422 -58 l 225 0 m 744 975 q 838 957 811 975 q 853 897 864 939 q 803 786 838 838 q 722 697 769 735 q 676 673 700 679 q 619 667 651 667 q 572 672 593 667 q 539 683 551 678 q 575 773 561 735 q 602 854 589 811 q 631 960 615 897 q 686 972 658 968 q 744 975 714 975 z "},"Ḷ":{"ha":764,"x_min":0,"x_max":729,"o":"m 129 -106 q 187 -99 157 -101 q 240 -97 217 -97 q 348 -131 321 -97 q 356 -243 375 -165 l 342 -299 q 285 -305 315 -303 q 232 -307 256 -307 q 123 -275 150 -307 q 118 -151 96 -243 l 129 -106 m 225 0 q 137 24 179 0 q 63 89 94 49 q 15 178 31 129 q 8 275 0 226 q 58 462 25 375 q 126 635 92 549 q 178 815 161 721 q 185 897 186 858 q 178 969 185 936 q 249 981 213 976 q 318 986 285 986 q 442 960 404 986 q 488 892 481 935 q 486 793 496 849 q 438 618 471 700 q 376 460 406 536 q 340 306 347 383 l 453 306 q 478 407 464 353 q 601 424 532 424 q 701 399 672 424 q 729 310 729 375 q 714 185 729 254 q 674 51 699 115 q 619 -58 649 -14 q 385 0 422 -58 l 225 0 z "},"Ḻ":{"ha":764,"x_min":-36,"x_max":729,"o":"m 18 -60 l 407 -60 q 494 -91 468 -60 q 506 -174 519 -122 q 483 -235 496 -208 q 454 -285 471 -261 l 125 -285 q -6 -245 25 -285 q -11 -129 -36 -206 q 3 -90 -4 -107 q 18 -60 11 -74 m 225 0 q 137 24 179 0 q 63 89 94 49 q 15 178 31 129 q 8 275 0 226 q 58 462 25 375 q 126 635 92 549 q 178 815 161 721 q 185 897 186 858 q 178 969 185 936 q 249 981 213 976 q 318 986 285 986 q 442 960 404 986 q 488 892 481 935 q 486 793 496 849 q 438 618 471 700 q 376 460 406 536 q 340 306 347 383 l 453 306 q 478 407 464 353 q 601 424 532 424 q 701 399 672 424 q 729 310 729 375 q 714 185 729 254 q 674 51 699 115 q 619 -58 649 -14 q 385 0 422 -58 l 225 0 z "},"M":{"ha":1111,"x_min":-36,"x_max":1122,"o":"m 258 0 q 119 -14 190 -14 q 5 30 46 -14 q -17 178 -36 74 q 21 315 -6 238 q 79 480 47 393 q 140 655 111 567 q 186 824 169 743 q 199 901 196 865 q 203 972 203 936 q 272 982 231 978 q 381 986 314 986 q 490 967 454 986 q 539 915 526 947 q 553 846 551 883 q 557 731 554 785 q 566 622 560 678 q 586 500 572 567 l 600 500 q 731 737 676 617 q 824 974 785 857 q 894 983 856 979 q 972 986 933 986 q 1061 975 1028 986 q 1108 929 1094 964 q 1119 822 1122 894 q 1088 546 1114 689 q 1028 246 1063 403 q 1005 126 1011 172 q 997 52 999 81 q 994 0 996 24 q 924 -11 956 -8 q 851 -14 893 -14 q 742 8 767 -14 q 724 89 718 31 q 747 184 731 138 q 774 268 763 231 q 812 385 794 326 q 851 538 829 444 l 842 538 q 735 358 783 429 q 646 244 686 288 q 572 174 606 200 q 538 168 554 169 q 506 167 521 167 q 465 172 478 167 q 435 194 453 176 q 408 243 422 207 q 386 350 394 279 q 379 538 378 421 l 371 538 q 336 431 351 479 q 308 333 321 382 q 281 226 294 285 q 264 110 268 167 q 258 0 260 54 z "},"Ṃ":{"ha":1111,"x_min":-36,"x_max":1122,"o":"m 326 -106 q 384 -99 354 -101 q 438 -97 414 -97 q 545 -131 518 -97 q 553 -243 572 -165 l 539 -299 q 483 -305 513 -303 q 429 -307 453 -307 q 320 -275 347 -307 q 315 -151 293 -243 l 326 -106 m 258 0 q 119 -14 190 -14 q 5 30 46 -14 q -17 178 -36 74 q 21 315 -6 238 q 79 480 47 393 q 140 655 111 567 q 186 824 169 743 q 199 901 196 865 q 203 972 203 936 q 272 982 231 978 q 381 986 314 986 q 490 967 454 986 q 539 915 526 947 q 553 846 551 883 q 557 731 554 785 q 566 622 560 678 q 586 500 572 567 l 600 500 q 731 737 676 617 q 824 974 785 857 q 894 983 856 979 q 972 986 933 986 q 1061 975 1028 986 q 1108 929 1094 964 q 1119 822 1122 894 q 1088 546 1114 689 q 1028 246 1063 403 q 1005 126 1011 172 q 997 52 999 81 q 994 0 996 24 q 924 -11 956 -8 q 851 -14 893 -14 q 742 8 767 -14 q 724 89 718 31 q 747 184 731 138 q 774 268 763 231 q 812 385 794 326 q 851 538 829 444 l 842 538 q 735 358 783 429 q 646 244 686 288 q 572 174 606 200 q 538 168 554 169 q 506 167 521 167 q 465 172 478 167 q 435 194 453 176 q 408 243 422 207 q 386 350 394 279 q 379 538 378 421 l 371 538 q 336 431 351 479 q 308 333 321 382 q 281 226 294 285 q 264 110 268 167 q 258 0 260 54 z "},"N":{"ha":903,"x_min":-18,"x_max":975,"o":"m 274 -3 q 219 -10 247 -8 q 163 -12 192 -12 q 28 37 74 -12 q -6 167 -18 86 q 44 378 11 276 q 112 586 76 479 q 169 818 147 693 q 178 899 176 861 q 179 974 179 936 q 239 983 206 979 q 306 986 272 986 q 460 951 404 986 q 521 840 517 915 q 551 585 532 694 q 600 393 571 475 l 610 394 q 630 543 614 458 q 661 713 646 628 q 681 848 672 778 q 692 974 690 918 q 740 983 711 981 q 790 986 768 986 q 930 941 885 986 q 963 813 975 896 q 909 585 946 703 q 833 348 872 468 q 772 110 794 228 q 765 48 767 81 q 764 0 763 15 q 679 -14 725 -14 q 572 2 611 -14 q 510 49 533 18 q 451 160 483 83 q 389 339 418 238 q 346 549 360 440 l 335 547 q 315 398 328 474 q 285 228 301 322 q 271 113 275 169 q 274 -3 267 57 z "},"Ñ":{"ha":903,"x_min":-18,"x_max":975,"o":"m 274 -3 q 219 -10 247 -8 q 163 -12 192 -12 q 28 37 74 -12 q -6 167 -18 86 q 44 378 11 276 q 112 586 76 479 q 169 818 147 693 q 178 899 176 861 q 179 974 179 936 q 239 983 206 979 q 306 986 272 986 q 460 951 404 986 q 521 840 517 915 q 551 585 532 694 q 600 393 571 475 l 610 394 q 630 543 614 458 q 661 713 646 628 q 681 848 672 778 q 692 974 690 918 q 740 983 711 981 q 790 986 768 986 q 930 941 885 986 q 963 813 975 896 q 909 585 946 703 q 833 348 872 468 q 772 110 794 228 q 765 48 767 81 q 764 0 763 15 q 679 -14 725 -14 q 572 2 611 -14 q 510 49 533 18 q 451 160 483 83 q 389 339 418 238 q 346 549 360 440 l 335 547 q 315 398 328 474 q 285 228 301 322 q 271 113 275 169 q 274 -3 267 57 m 804 1268 q 872 1278 846 1268 q 933 1321 899 1289 l 942 1321 q 949 1271 949 1297 q 944 1211 950 1244 q 921 1126 936 1157 q 879 1074 906 1094 q 834 1049 857 1056 q 783 1043 811 1043 q 685 1061 729 1043 q 598 1097 640 1079 q 507 1115 556 1115 q 438 1103 465 1115 q 378 1063 410 1090 l 369 1063 q 367 1172 358 1110 q 390 1256 374 1225 q 432 1307 406 1286 q 532 1340 474 1340 q 628 1322 585 1340 q 714 1286 672 1304 q 804 1268 756 1268 z "},"Ń":{"ha":903,"x_min":-18,"x_max":975,"o":"m 274 -3 q 219 -10 247 -8 q 163 -12 192 -12 q 28 37 74 -12 q -6 167 -18 86 q 44 378 11 276 q 112 586 76 479 q 169 818 147 693 q 178 899 176 861 q 179 974 179 936 q 239 983 206 979 q 306 986 272 986 q 460 951 404 986 q 521 840 517 915 q 551 585 532 694 q 600 393 571 475 l 610 394 q 630 543 614 458 q 661 713 646 628 q 681 848 672 778 q 692 974 690 918 q 740 983 711 981 q 790 986 768 986 q 930 941 885 986 q 963 813 975 896 q 909 585 946 703 q 833 348 872 468 q 772 110 794 228 q 765 48 767 81 q 764 0 763 15 q 679 -14 725 -14 q 572 2 611 -14 q 510 49 533 18 q 451 160 483 83 q 389 339 418 238 q 346 549 360 440 l 335 547 q 315 398 328 474 q 285 228 301 322 q 271 113 275 169 q 274 -3 267 57 m 667 1313 q 785 1308 728 1311 q 888 1288 843 1304 q 910 1264 908 1281 q 900 1232 911 1247 q 821 1135 860 1169 q 733 1078 782 1101 q 681 1064 715 1069 q 614 1058 647 1058 q 540 1063 583 1058 q 465 1078 497 1067 q 553 1152 518 1119 q 613 1222 588 1185 q 667 1313 639 1260 z "},"Ņ":{"ha":903,"x_min":-18,"x_max":975,"o":"m 274 -3 q 219 -10 247 -8 q 163 -12 192 -12 q 28 37 74 -12 q -6 167 -18 86 q 44 378 11 276 q 112 586 76 479 q 169 818 147 693 q 178 899 176 861 q 179 974 179 936 q 239 983 206 979 q 306 986 272 986 q 460 951 404 986 q 521 840 517 915 q 551 585 532 694 q 600 393 571 475 l 610 394 q 630 543 614 458 q 661 713 646 628 q 681 848 672 778 q 692 974 690 918 q 740 983 711 981 q 790 986 768 986 q 930 941 885 986 q 963 813 975 896 q 909 585 946 703 q 833 348 872 468 q 772 110 794 228 q 765 48 767 81 q 764 0 763 15 q 679 -14 725 -14 q 572 2 611 -14 q 510 49 533 18 q 451 160 483 83 q 389 339 418 238 q 346 549 360 440 l 335 547 q 315 398 328 474 q 285 228 301 322 q 271 113 275 169 q 274 -3 267 57 m 204 -94 q 276 -79 244 -83 q 358 -75 307 -75 q 458 -93 432 -75 q 478 -153 483 -111 q 443 -251 472 -206 q 371 -324 414 -296 q 307 -353 338 -346 q 219 -361 276 -361 q 124 -344 161 -361 q 158 -262 144 -299 q 183 -187 172 -226 q 204 -94 194 -149 z "},"Ň":{"ha":903,"x_min":-18,"x_max":975,"o":"m 274 -3 q 219 -10 247 -8 q 163 -12 192 -12 q 28 37 74 -12 q -6 167 -18 86 q 44 378 11 276 q 112 586 76 479 q 169 818 147 693 q 178 899 176 861 q 179 974 179 936 q 239 983 206 979 q 306 986 272 986 q 460 951 404 986 q 521 840 517 915 q 551 585 532 694 q 600 393 571 475 l 610 394 q 630 543 614 458 q 661 713 646 628 q 681 848 672 778 q 692 974 690 918 q 740 983 711 981 q 790 986 768 986 q 930 941 885 986 q 963 813 975 896 q 909 585 946 703 q 833 348 872 468 q 772 110 794 228 q 765 48 767 81 q 764 0 763 15 q 679 -14 725 -14 q 572 2 611 -14 q 510 49 533 18 q 451 160 483 83 q 389 339 418 238 q 346 549 360 440 l 335 547 q 315 398 328 474 q 285 228 301 322 q 271 113 275 169 q 274 -3 267 57 m 711 1064 q 677 1061 697 1063 q 646 1060 657 1060 q 573 1067 603 1060 q 510 1108 543 1075 q 444 1192 474 1146 q 394 1299 414 1239 q 467 1326 435 1318 q 535 1335 500 1335 q 577 1324 563 1335 q 606 1289 592 1313 q 626 1257 615 1272 q 656 1225 638 1242 l 665 1225 q 738 1282 710 1254 q 785 1331 767 1310 l 793 1331 q 906 1322 868 1331 q 957 1301 944 1314 q 965 1272 969 1288 q 951 1240 963 1258 q 917 1199 940 1222 q 820 1124 876 1160 q 711 1064 764 1088 z "},"Ṅ":{"ha":903,"x_min":-18,"x_max":975,"o":"m 479 1315 q 558 1326 521 1322 q 647 1329 596 1329 q 817 1276 769 1329 q 842 1139 864 1224 l 829 1092 q 747 1077 789 1082 q 661 1072 706 1072 q 494 1119 547 1072 q 467 1267 440 1165 l 479 1315 m 274 -3 q 219 -10 247 -8 q 163 -12 192 -12 q 28 37 74 -12 q -6 167 -18 86 q 44 378 11 276 q 112 586 76 479 q 169 818 147 693 q 178 899 176 861 q 179 974 179 936 q 239 983 206 979 q 306 986 272 986 q 460 951 404 986 q 521 840 517 915 q 551 585 532 694 q 600 393 571 475 l 610 394 q 630 543 614 458 q 661 713 646 628 q 681 848 672 778 q 692 974 690 918 q 740 983 711 981 q 790 986 768 986 q 930 941 885 986 q 963 813 975 896 q 909 585 946 703 q 833 348 872 468 q 772 110 794 228 q 765 48 767 81 q 764 0 763 15 q 679 -14 725 -14 q 572 2 611 -14 q 510 49 533 18 q 451 160 483 83 q 389 339 418 238 q 346 549 360 440 l 335 547 q 315 398 328 474 q 285 228 301 322 q 271 113 275 169 q 274 -3 267 57 z "},"Ṇ":{"ha":903,"x_min":-18,"x_max":975,"o":"m 199 -106 q 256 -99 226 -101 q 310 -97 286 -97 q 417 -131 390 -97 q 425 -243 444 -165 l 411 -299 q 355 -305 385 -303 q 301 -307 325 -307 q 192 -275 219 -307 q 188 -151 165 -243 l 199 -106 m 274 -3 q 219 -10 247 -8 q 163 -12 192 -12 q 28 37 74 -12 q -6 167 -18 86 q 44 378 11 276 q 112 586 76 479 q 169 818 147 693 q 178 899 176 861 q 179 974 179 936 q 239 983 206 979 q 306 986 272 986 q 460 951 404 986 q 521 840 517 915 q 551 585 532 694 q 600 393 571 475 l 610 394 q 630 543 614 458 q 661 713 646 628 q 681 848 672 778 q 692 974 690 918 q 740 983 711 981 q 790 986 768 986 q 930 941 885 986 q 963 813 975 896 q 909 585 946 703 q 833 348 872 468 q 772 110 794 228 q 765 48 767 81 q 764 0 763 15 q 679 -14 725 -14 q 572 2 611 -14 q 510 49 533 18 q 451 160 483 83 q 389 339 418 238 q 346 549 360 440 l 335 547 q 315 398 328 474 q 285 228 301 322 q 271 113 275 169 q 274 -3 267 57 z "},"Ṉ":{"ha":903,"x_min":-18,"x_max":975,"o":"m 88 -60 l 476 -60 q 563 -91 538 -60 q 575 -174 589 -122 q 553 -235 565 -208 q 524 -285 540 -261 l 194 -285 q 64 -245 94 -285 q 58 -129 33 -206 q 73 -90 65 -107 q 88 -60 81 -74 m 274 -3 q 219 -10 247 -8 q 163 -12 192 -12 q 28 37 74 -12 q -6 167 -18 86 q 44 378 11 276 q 112 586 76 479 q 169 818 147 693 q 178 899 176 861 q 179 974 179 936 q 239 983 206 979 q 306 986 272 986 q 460 951 404 986 q 521 840 517 915 q 551 585 532 694 q 600 393 571 475 l 610 394 q 630 543 614 458 q 661 713 646 628 q 681 848 672 778 q 692 974 690 918 q 740 983 711 981 q 790 986 768 986 q 930 941 885 986 q 963 813 975 896 q 909 585 946 703 q 833 348 872 468 q 772 110 794 228 q 765 48 767 81 q 764 0 763 15 q 679 -14 725 -14 q 572 2 611 -14 q 510 49 533 18 q 451 160 483 83 q 389 339 418 238 q 346 549 360 440 l 335 547 q 315 398 328 474 q 285 228 301 322 q 271 113 275 169 q 274 -3 267 57 z "},"O":{"ha":903,"x_min":19,"x_max":933,"o":"m 567 1000 q 800 934 715 1000 q 909 753 885 868 q 896 489 933 638 l 890 467 q 692 88 825 203 q 351 -28 558 -28 q 151 36 229 -28 q 46 213 72 100 q 56 471 19 325 l 61 493 q 254 881 129 763 q 567 1000 379 1000 m 364 433 q 345 335 350 372 q 346 271 340 299 q 400 261 371 261 q 505 319 457 261 q 583 508 553 378 l 588 526 q 606 630 603 592 q 606 701 610 668 q 581 707 593 704 q 553 710 568 710 q 447 647 494 710 q 368 451 399 583 l 364 433 z "},"Ò":{"ha":903,"x_min":19,"x_max":933,"o":"m 567 1000 q 800 934 715 1000 q 909 753 885 868 q 896 489 933 638 l 890 467 q 692 88 825 203 q 351 -28 558 -28 q 151 36 229 -28 q 46 213 72 100 q 56 471 19 325 l 61 493 q 254 881 129 763 q 567 1000 379 1000 m 364 433 q 345 335 350 372 q 346 271 340 299 q 400 261 371 261 q 505 319 457 261 q 583 508 553 378 l 588 526 q 606 630 603 592 q 606 701 610 668 q 581 707 593 704 q 553 710 568 710 q 447 647 494 710 q 368 451 399 583 l 364 433 m 665 1313 q 693 1192 672 1244 q 761 1078 714 1139 q 681 1063 726 1067 q 604 1058 635 1058 q 546 1064 571 1058 q 507 1078 521 1069 q 439 1144 464 1106 q 404 1232 414 1182 q 412 1264 401 1247 q 444 1288 422 1281 q 558 1308 497 1304 q 665 1313 618 1313 z "},"Ó":{"ha":903,"x_min":19,"x_max":933,"o":"m 567 1000 q 800 934 715 1000 q 909 753 885 868 q 896 489 933 638 l 890 467 q 692 88 825 203 q 351 -28 558 -28 q 151 36 229 -28 q 46 213 72 100 q 56 471 19 325 l 61 493 q 254 881 129 763 q 567 1000 379 1000 m 364 433 q 345 335 350 372 q 346 271 340 299 q 400 261 371 261 q 505 319 457 261 q 583 508 553 378 l 588 526 q 606 630 603 592 q 606 701 610 668 q 581 707 593 704 q 553 710 568 710 q 447 647 494 710 q 368 451 399 583 l 364 433 m 665 1313 q 784 1308 726 1311 q 886 1288 842 1304 q 908 1264 907 1281 q 899 1232 910 1247 q 819 1135 858 1169 q 732 1078 781 1101 q 680 1064 714 1069 q 613 1058 646 1058 q 539 1063 582 1058 q 464 1078 496 1067 q 551 1152 517 1119 q 612 1222 586 1185 q 665 1313 638 1260 z "},"Ô":{"ha":903,"x_min":19,"x_max":933,"o":"m 567 1000 q 800 934 715 1000 q 909 753 885 868 q 896 489 933 638 l 890 467 q 692 88 825 203 q 351 -28 558 -28 q 151 36 229 -28 q 46 213 72 100 q 56 471 19 325 l 61 493 q 254 881 129 763 q 567 1000 379 1000 m 364 433 q 345 335 350 372 q 346 271 340 299 q 400 261 371 261 q 505 319 457 261 q 583 508 553 378 l 588 526 q 606 630 603 592 q 606 701 610 668 q 581 707 593 704 q 553 710 568 710 q 447 647 494 710 q 368 451 399 583 l 364 433 m 597 1335 q 633 1339 613 1338 q 663 1340 653 1340 q 735 1332 706 1340 q 799 1288 765 1324 q 865 1199 835 1249 q 914 1083 894 1149 q 774 1044 838 1044 q 732 1057 746 1044 q 703 1094 718 1069 q 681 1128 693 1111 q 651 1163 669 1144 l 643 1163 q 570 1101 599 1131 q 524 1050 542 1072 l 515 1050 q 402 1059 440 1050 q 351 1082 364 1068 q 343 1113 339 1096 q 358 1147 346 1126 q 392 1190 369 1167 q 489 1272 432 1232 q 597 1335 546 1311 z "},"Õ":{"ha":903,"x_min":19,"x_max":947,"o":"m 567 1000 q 800 934 715 1000 q 909 753 885 868 q 896 489 933 638 l 890 467 q 692 88 825 203 q 351 -28 558 -28 q 151 36 229 -28 q 46 213 72 100 q 56 471 19 325 l 61 493 q 254 881 129 763 q 567 1000 379 1000 m 364 433 q 345 335 350 372 q 346 271 340 299 q 400 261 371 261 q 505 319 457 261 q 583 508 553 378 l 588 526 q 606 630 603 592 q 606 701 610 668 q 581 707 593 704 q 553 710 568 710 q 447 647 494 710 q 368 451 399 583 l 364 433 m 801 1268 q 869 1278 843 1268 q 931 1321 896 1289 l 939 1321 q 947 1271 946 1297 q 942 1211 947 1244 q 918 1126 933 1157 q 876 1074 903 1094 q 831 1049 854 1056 q 781 1043 808 1043 q 682 1061 726 1043 q 595 1097 638 1079 q 504 1115 553 1115 q 435 1103 463 1115 q 375 1063 407 1090 l 367 1063 q 364 1172 356 1110 q 387 1256 371 1225 q 429 1307 403 1286 q 529 1340 471 1340 q 626 1322 582 1340 q 711 1286 669 1304 q 801 1268 753 1268 z "},"Ö":{"ha":903,"x_min":19,"x_max":933,"o":"m 567 1000 q 800 934 715 1000 q 909 753 885 868 q 896 489 933 638 l 890 467 q 692 88 825 203 q 351 -28 558 -28 q 151 36 229 -28 q 46 213 72 100 q 56 471 19 325 l 61 493 q 254 881 129 763 q 567 1000 379 1000 m 364 433 q 345 335 350 372 q 346 271 340 299 q 400 261 371 261 q 505 319 457 261 q 583 508 553 378 l 588 526 q 606 630 603 592 q 606 701 610 668 q 581 707 593 704 q 553 710 568 710 q 447 647 494 710 q 368 451 399 583 l 364 433 m 421 1297 q 469 1301 444 1300 q 511 1301 493 1301 q 605 1263 585 1301 q 604 1154 625 1224 l 588 1097 q 540 1092 565 1093 q 496 1092 515 1092 q 406 1124 426 1092 q 404 1232 385 1156 l 421 1297 m 717 1297 q 765 1301 740 1300 q 807 1301 789 1301 q 901 1263 881 1301 q 900 1154 921 1224 l 883 1097 q 836 1092 861 1093 q 792 1092 811 1092 q 701 1124 722 1092 q 700 1232 681 1156 l 717 1297 z "},"Ō":{"ha":903,"x_min":19,"x_max":961,"o":"m 567 1000 q 800 934 715 1000 q 909 753 885 868 q 896 489 933 638 l 890 467 q 692 88 825 203 q 351 -28 558 -28 q 151 36 229 -28 q 46 213 72 100 q 56 471 19 325 l 61 493 q 254 881 129 763 q 567 1000 379 1000 m 364 433 q 345 335 350 372 q 346 271 340 299 q 400 261 371 261 q 505 319 457 261 q 583 508 553 378 l 588 526 q 606 630 603 592 q 606 701 610 668 q 581 707 593 704 q 553 710 568 710 q 447 647 494 710 q 368 451 399 583 l 364 433 m 386 1296 l 861 1296 q 940 1261 919 1296 q 946 1176 961 1226 q 924 1119 935 1139 q 901 1083 913 1099 l 504 1083 q 381 1115 411 1083 q 364 1222 350 1146 q 386 1296 372 1267 z "},"Ŏ":{"ha":903,"x_min":19,"x_max":942,"o":"m 567 1000 q 800 934 715 1000 q 909 753 885 868 q 896 489 933 638 l 890 467 q 692 88 825 203 q 351 -28 558 -28 q 151 36 229 -28 q 46 213 72 100 q 56 471 19 325 l 61 493 q 254 881 129 763 q 567 1000 379 1000 m 364 433 q 345 335 350 372 q 346 271 340 299 q 400 261 371 261 q 505 319 457 261 q 583 508 553 378 l 588 526 q 606 630 603 592 q 606 701 610 668 q 581 707 593 704 q 553 710 568 710 q 447 647 494 710 q 368 451 399 583 l 364 433 m 779 1319 q 865 1314 828 1319 q 921 1297 901 1308 q 931 1254 942 1286 q 826 1112 896 1153 q 656 1071 756 1071 l 647 1071 q 480 1122 542 1071 q 408 1254 418 1174 q 414 1280 407 1269 q 433 1296 421 1290 q 492 1315 461 1310 q 571 1319 524 1319 q 598 1264 578 1282 q 656 1242 618 1246 q 731 1262 701 1243 q 779 1319 760 1281 z "},"Ő":{"ha":903,"x_min":19,"x_max":1076,"o":"m 485 1311 q 603 1306 546 1310 q 706 1286 661 1303 q 728 1263 726 1279 q 718 1231 729 1246 q 639 1134 678 1168 q 551 1076 600 1100 q 499 1063 533 1068 q 432 1057 465 1057 q 358 1061 401 1057 q 283 1076 315 1065 q 370 1151 336 1118 q 431 1221 404 1183 q 485 1311 457 1258 m 832 1311 q 951 1306 893 1310 q 1053 1286 1008 1303 q 1075 1263 1074 1279 q 1065 1231 1076 1246 q 986 1134 1025 1168 q 899 1076 947 1100 q 847 1063 881 1068 q 779 1057 813 1057 q 706 1061 749 1057 q 631 1076 663 1065 q 717 1151 683 1118 q 778 1221 751 1183 q 832 1311 804 1258 m 567 1000 q 800 934 715 1000 q 909 753 885 868 q 896 489 933 638 l 890 467 q 692 88 825 203 q 351 -28 558 -28 q 151 36 229 -28 q 46 213 72 100 q 56 471 19 325 l 61 493 q 254 881 129 763 q 567 1000 379 1000 m 364 433 q 345 335 350 372 q 346 271 340 299 q 400 261 371 261 q 505 319 457 261 q 583 508 553 378 l 588 526 q 606 630 603 592 q 606 701 610 668 q 581 707 593 704 q 553 710 568 710 q 447 647 494 710 q 368 451 399 583 l 364 433 z "},"Ơ":{"ha":903,"x_min":19,"x_max":988,"o":"m 567 1000 q 761 958 681 1000 q 776 1001 769 974 q 781 1047 782 1022 q 772 1096 779 1072 q 820 1106 796 1103 q 875 1108 844 1108 q 962 1087 936 1108 q 985 1025 988 1065 q 953 928 981 969 q 882 861 925 888 q 871 854 876 857 q 917 693 911 786 q 896 489 924 600 l 890 467 q 692 88 825 203 q 351 -28 558 -28 q 151 36 229 -28 q 46 213 72 100 q 56 471 19 325 l 61 493 q 254 881 129 763 q 567 1000 379 1000 m 364 433 q 345 335 350 372 q 346 271 340 299 q 400 261 371 261 q 505 319 457 261 q 583 508 553 378 l 588 526 q 606 630 603 592 q 606 701 610 668 q 581 707 593 704 q 553 710 568 710 q 447 647 494 710 q 368 451 399 583 l 364 433 z "},"Ǫ":{"ha":903,"x_min":19,"x_max":933,"o":"m 567 1000 q 800 934 715 1000 q 909 753 885 868 q 896 489 933 638 l 890 467 q 801 226 856 324 q 669 69 746 128 l 672 69 q 654 53 664 61 q 635 39 644 46 q 573 -22 592 4 q 551 -75 554 -49 q 593 -117 546 -117 q 654 -89 632 -117 l 663 -89 q 673 -135 671 -110 q 668 -193 675 -160 q 613 -306 654 -265 q 489 -347 571 -347 q 355 -309 400 -347 q 314 -194 310 -271 q 407 -25 321 -100 q 351 -28 381 -28 q 151 36 229 -28 q 46 213 72 100 q 56 471 19 325 l 61 493 q 254 881 129 763 q 567 1000 379 1000 m 364 433 q 345 335 350 372 q 346 271 340 299 q 400 261 371 261 q 505 319 457 261 q 583 508 553 378 l 588 526 q 606 630 603 592 q 606 701 610 668 q 581 707 593 704 q 553 710 568 710 q 447 647 494 710 q 368 451 399 583 l 364 433 z "},"Ȍ":{"ha":903,"x_min":19,"x_max":933,"o":"m 497 1314 q 525 1193 504 1246 q 593 1079 546 1140 q 513 1064 558 1068 q 436 1060 467 1060 q 378 1065 403 1060 q 339 1079 353 1071 q 271 1145 296 1107 q 236 1233 246 1183 q 244 1265 233 1249 q 276 1289 254 1282 q 390 1310 329 1306 q 497 1314 450 1314 m 831 1314 q 858 1193 838 1246 q 926 1079 879 1140 q 846 1064 892 1068 q 769 1060 800 1060 q 711 1065 736 1060 q 672 1079 686 1071 q 604 1145 629 1107 q 569 1233 579 1183 q 577 1265 567 1249 q 610 1289 588 1282 q 723 1310 663 1306 q 831 1314 783 1314 m 567 1000 q 800 934 715 1000 q 909 753 885 868 q 896 489 933 638 l 890 467 q 692 88 825 203 q 351 -28 558 -28 q 151 36 229 -28 q 46 213 72 100 q 56 471 19 325 l 61 493 q 254 881 129 763 q 567 1000 379 1000 m 364 433 q 345 335 350 372 q 346 271 340 299 q 400 261 371 261 q 505 319 457 261 q 583 508 553 378 l 588 526 q 606 630 603 592 q 606 701 610 668 q 581 707 593 704 q 553 710 568 710 q 447 647 494 710 q 368 451 399 583 l 364 433 z "},"Ȏ":{"ha":903,"x_min":19,"x_max":933,"o":"m 567 1000 q 800 934 715 1000 q 909 753 885 868 q 896 489 933 638 l 890 467 q 692 88 825 203 q 351 -28 558 -28 q 151 36 229 -28 q 46 213 72 100 q 56 471 19 325 l 61 493 q 254 881 129 763 q 567 1000 379 1000 m 364 433 q 345 335 350 372 q 346 271 340 299 q 400 261 371 261 q 505 319 457 261 q 583 508 553 378 l 588 526 q 606 630 603 592 q 606 701 610 668 q 581 707 593 704 q 553 710 568 710 q 447 647 494 710 q 368 451 399 583 l 364 433 m 531 1085 q 446 1090 483 1085 q 389 1107 408 1096 q 379 1150 368 1118 q 484 1292 414 1251 q 654 1333 554 1333 l 663 1333 q 830 1283 768 1333 q 901 1150 892 1232 q 897 1126 904 1136 q 876 1108 889 1115 q 819 1090 850 1094 q 739 1085 788 1085 q 713 1140 733 1122 q 654 1163 692 1158 q 579 1142 608 1161 q 531 1085 550 1124 z "},"Ȫ":{"ha":903,"x_min":19,"x_max":1028,"o":"m 567 1000 q 800 934 715 1000 q 909 753 885 868 q 896 489 933 638 l 890 467 q 692 88 825 203 q 351 -28 558 -28 q 151 36 229 -28 q 46 213 72 100 q 56 471 19 325 l 61 493 q 254 881 129 763 q 567 1000 379 1000 m 364 433 q 345 335 350 372 q 346 271 340 299 q 400 261 371 261 q 505 319 457 261 q 583 508 553 378 l 588 526 q 606 630 603 592 q 606 701 610 668 q 581 707 593 704 q 553 710 568 710 q 447 647 494 710 q 368 451 399 583 l 364 433 m 421 1297 q 469 1301 444 1300 q 511 1301 493 1301 q 605 1263 585 1301 q 604 1154 625 1224 l 588 1097 q 540 1092 565 1093 q 496 1092 515 1092 q 406 1124 426 1092 q 404 1232 385 1156 l 421 1297 m 717 1297 q 765 1301 740 1300 q 807 1301 789 1301 q 901 1263 881 1301 q 900 1154 921 1224 l 883 1097 q 836 1092 861 1093 q 792 1092 811 1092 q 701 1124 722 1092 q 700 1232 681 1156 l 717 1297 m 453 1568 l 928 1568 q 1007 1533 986 1568 q 1013 1449 1028 1499 q 990 1391 1001 1411 q 968 1356 979 1371 l 571 1356 q 447 1387 478 1356 q 431 1494 417 1418 q 453 1568 439 1539 z "},"Ȭ":{"ha":903,"x_min":19,"x_max":1033,"o":"m 567 1000 q 800 934 715 1000 q 909 753 885 868 q 896 489 933 638 l 890 467 q 692 88 825 203 q 351 -28 558 -28 q 151 36 229 -28 q 46 213 72 100 q 56 471 19 325 l 61 493 q 254 881 129 763 q 567 1000 379 1000 m 364 433 q 345 335 350 372 q 346 271 340 299 q 400 261 371 261 q 505 319 457 261 q 583 508 553 378 l 588 526 q 606 630 603 592 q 606 701 610 668 q 581 707 593 704 q 553 710 568 710 q 447 647 494 710 q 368 451 399 583 l 364 433 m 801 1268 q 869 1278 843 1268 q 931 1321 896 1289 l 939 1321 q 947 1271 946 1297 q 942 1211 947 1244 q 918 1126 933 1157 q 876 1074 903 1094 q 831 1049 854 1056 q 781 1043 808 1043 q 682 1061 726 1043 q 595 1097 638 1079 q 504 1115 553 1115 q 435 1103 463 1115 q 375 1063 407 1090 l 367 1063 q 364 1172 356 1110 q 387 1256 371 1225 q 429 1307 403 1286 q 529 1340 471 1340 q 626 1322 582 1340 q 711 1286 669 1304 q 801 1268 753 1268 m 458 1585 l 933 1585 q 1013 1550 992 1585 q 1018 1465 1033 1515 q 996 1408 1007 1428 q 974 1372 985 1388 l 576 1372 q 453 1403 483 1372 q 436 1511 422 1435 q 458 1585 444 1556 z "},"Ȱ":{"ha":903,"x_min":19,"x_max":1035,"o":"m 478 1315 q 557 1326 519 1322 q 646 1329 594 1329 q 815 1276 768 1329 q 840 1139 863 1224 l 828 1092 q 746 1077 788 1082 q 660 1072 704 1072 q 492 1119 546 1072 q 465 1267 439 1165 l 478 1315 m 567 1000 q 800 934 715 1000 q 909 753 885 868 q 896 489 933 638 l 890 467 q 692 88 825 203 q 351 -28 558 -28 q 151 36 229 -28 q 46 213 72 100 q 56 471 19 325 l 61 493 q 254 881 129 763 q 567 1000 379 1000 m 364 433 q 345 335 350 372 q 346 271 340 299 q 400 261 371 261 q 505 319 457 261 q 583 508 553 378 l 588 526 q 606 630 603 592 q 606 701 610 668 q 581 707 593 704 q 553 710 568 710 q 447 647 494 710 q 368 451 399 583 l 364 433 m 460 1590 l 935 1590 q 1014 1556 993 1590 q 1019 1471 1035 1521 q 997 1413 1008 1433 q 975 1378 986 1393 l 578 1378 q 454 1409 485 1378 q 438 1517 424 1440 q 460 1590 446 1561 z "},"Ṍ":{"ha":903,"x_min":19,"x_max":982,"o":"m 567 1000 q 800 934 715 1000 q 909 753 885 868 q 896 489 933 638 l 890 467 q 692 88 825 203 q 351 -28 558 -28 q 151 36 229 -28 q 46 213 72 100 q 56 471 19 325 l 61 493 q 254 881 129 763 q 567 1000 379 1000 m 364 433 q 345 335 350 372 q 346 271 340 299 q 400 261 371 261 q 505 319 457 261 q 583 508 553 378 l 588 526 q 606 630 603 592 q 606 701 610 668 q 581 707 593 704 q 553 710 568 710 q 447 647 494 710 q 368 451 399 583 l 364 433 m 801 1268 q 869 1278 843 1268 q 931 1321 896 1289 l 939 1321 q 947 1271 946 1297 q 942 1211 947 1244 q 918 1126 933 1157 q 876 1074 903 1094 q 831 1049 854 1056 q 781 1043 808 1043 q 682 1061 726 1043 q 595 1097 638 1079 q 504 1115 553 1115 q 435 1103 463 1115 q 375 1063 407 1090 l 367 1063 q 364 1172 356 1110 q 387 1256 371 1225 q 429 1307 403 1286 q 529 1340 471 1340 q 626 1322 582 1340 q 711 1286 669 1304 q 801 1268 753 1268 m 738 1601 q 856 1597 799 1600 q 958 1576 914 1593 q 981 1553 979 1569 q 971 1521 982 1536 q 892 1424 931 1458 q 804 1367 853 1390 q 752 1353 786 1358 q 685 1347 718 1347 q 611 1351 654 1347 q 536 1367 568 1356 q 624 1441 589 1408 q 684 1511 658 1474 q 738 1601 710 1549 z "},"Ṏ":{"ha":903,"x_min":19,"x_max":993,"o":"m 567 1000 q 800 934 715 1000 q 909 753 885 868 q 896 489 933 638 l 890 467 q 692 88 825 203 q 351 -28 558 -28 q 151 36 229 -28 q 46 213 72 100 q 56 471 19 325 l 61 493 q 254 881 129 763 q 567 1000 379 1000 m 364 433 q 345 335 350 372 q 346 271 340 299 q 400 261 371 261 q 505 319 457 261 q 583 508 553 378 l 588 526 q 606 630 603 592 q 606 701 610 668 q 581 707 593 704 q 553 710 568 710 q 447 647 494 710 q 368 451 399 583 l 364 433 m 801 1268 q 869 1278 843 1268 q 931 1321 896 1289 l 939 1321 q 947 1271 946 1297 q 942 1211 947 1244 q 918 1126 933 1157 q 876 1074 903 1094 q 831 1049 854 1056 q 781 1043 808 1043 q 682 1061 726 1043 q 595 1097 638 1079 q 504 1115 553 1115 q 435 1103 463 1115 q 375 1063 407 1090 l 367 1063 q 364 1172 356 1110 q 387 1256 371 1225 q 429 1307 403 1286 q 529 1340 471 1340 q 626 1322 582 1340 q 711 1286 669 1304 q 801 1268 753 1268 m 493 1586 q 541 1590 517 1589 q 583 1590 565 1590 q 677 1551 657 1590 q 676 1443 697 1513 l 660 1386 q 613 1381 638 1382 q 568 1381 588 1381 q 478 1413 499 1381 q 476 1521 457 1444 l 493 1586 m 789 1586 q 837 1590 813 1589 q 879 1590 861 1590 q 973 1551 953 1590 q 972 1443 993 1513 l 956 1386 q 908 1381 933 1382 q 864 1381 883 1381 q 774 1413 794 1381 q 772 1521 753 1444 l 789 1586 z "},"Ṑ":{"ha":903,"x_min":19,"x_max":961,"o":"m 567 1000 q 800 934 715 1000 q 909 753 885 868 q 896 489 933 638 l 890 467 q 692 88 825 203 q 351 -28 558 -28 q 151 36 229 -28 q 46 213 72 100 q 56 471 19 325 l 61 493 q 254 881 129 763 q 567 1000 379 1000 m 364 433 q 345 335 350 372 q 346 271 340 299 q 400 261 371 261 q 505 319 457 261 q 583 508 553 378 l 588 526 q 606 630 603 592 q 606 701 610 668 q 581 707 593 704 q 553 710 568 710 q 447 647 494 710 q 368 451 399 583 l 364 433 m 386 1296 l 861 1296 q 940 1261 919 1296 q 946 1176 961 1226 q 924 1119 935 1139 q 901 1083 913 1099 l 504 1083 q 381 1115 411 1083 q 364 1222 350 1146 q 386 1296 372 1267 m 733 1589 q 761 1468 740 1521 q 829 1354 782 1415 q 749 1339 794 1343 q 672 1335 703 1335 q 614 1340 639 1335 q 575 1354 589 1346 q 507 1420 532 1382 q 472 1508 482 1458 q 480 1540 469 1524 q 513 1564 490 1557 q 626 1585 565 1581 q 733 1589 686 1589 z "},"Ṓ":{"ha":903,"x_min":19,"x_max":978,"o":"m 567 1000 q 800 934 715 1000 q 909 753 885 868 q 896 489 933 638 l 890 467 q 692 88 825 203 q 351 -28 558 -28 q 151 36 229 -28 q 46 213 72 100 q 56 471 19 325 l 61 493 q 254 881 129 763 q 567 1000 379 1000 m 364 433 q 345 335 350 372 q 346 271 340 299 q 400 261 371 261 q 505 319 457 261 q 583 508 553 378 l 588 526 q 606 630 603 592 q 606 701 610 668 q 581 707 593 704 q 553 710 568 710 q 447 647 494 710 q 368 451 399 583 l 364 433 m 386 1296 l 861 1296 q 940 1261 919 1296 q 946 1176 961 1226 q 924 1119 935 1139 q 901 1083 913 1099 l 504 1083 q 381 1115 411 1083 q 364 1222 350 1146 q 386 1296 372 1267 m 733 1589 q 852 1584 794 1588 q 954 1564 910 1581 q 976 1540 975 1557 q 967 1508 978 1524 q 888 1412 926 1446 q 800 1354 849 1378 q 748 1340 782 1346 q 681 1335 714 1335 q 607 1339 650 1335 q 532 1354 564 1343 q 619 1428 585 1396 q 680 1499 654 1461 q 733 1589 706 1536 z "},"Ọ":{"ha":903,"x_min":19,"x_max":933,"o":"m 567 1000 q 800 934 715 1000 q 909 753 885 868 q 896 489 933 638 l 890 467 q 692 88 825 203 q 351 -28 558 -28 q 151 36 229 -28 q 46 213 72 100 q 56 471 19 325 l 61 493 q 254 881 129 763 q 567 1000 379 1000 m 364 433 q 345 335 350 372 q 346 271 340 299 q 400 261 371 261 q 505 319 457 261 q 583 508 553 378 l 588 526 q 606 630 603 592 q 606 701 610 668 q 581 707 593 704 q 553 710 568 710 q 447 647 494 710 q 368 451 399 583 l 364 433 m 200 -106 q 258 -99 228 -101 q 311 -97 288 -97 q 419 -131 392 -97 q 426 -243 446 -165 l 413 -299 q 356 -305 386 -303 q 303 -307 326 -307 q 194 -275 221 -307 q 189 -151 167 -243 l 200 -106 z "},"Ỏ":{"ha":903,"x_min":19,"x_max":933,"o":"m 567 1000 q 800 934 715 1000 q 909 753 885 868 q 896 489 933 638 l 890 467 q 692 88 825 203 q 351 -28 558 -28 q 151 36 229 -28 q 46 213 72 100 q 56 471 19 325 l 61 493 q 254 881 129 763 q 567 1000 379 1000 m 364 433 q 345 335 350 372 q 346 271 340 299 q 400 261 371 261 q 505 319 457 261 q 583 508 553 378 l 588 526 q 606 630 603 592 q 606 701 610 668 q 581 707 593 704 q 553 710 568 710 q 447 647 494 710 q 368 451 399 583 l 364 433 m 521 1089 q 547 1119 526 1110 q 608 1139 567 1129 q 672 1157 654 1150 q 690 1171 689 1164 l 690 1178 q 671 1180 682 1179 q 643 1181 660 1181 q 517 1158 582 1181 l 508 1158 q 499 1190 500 1172 q 500 1229 497 1207 q 557 1314 508 1282 q 613 1338 579 1329 q 693 1347 646 1347 q 801 1326 760 1347 q 860 1272 843 1304 q 869 1206 876 1239 l 868 1199 q 843 1145 863 1165 q 785 1104 824 1125 q 738 1074 751 1086 q 714 1044 724 1061 q 617 1035 667 1035 q 542 1049 569 1035 q 521 1089 515 1063 z "},"Ố":{"ha":903,"x_min":19,"x_max":1192,"o":"m 567 1000 q 800 934 715 1000 q 909 753 885 868 q 896 489 933 638 l 890 467 q 692 88 825 203 q 351 -28 558 -28 q 151 36 229 -28 q 46 213 72 100 q 56 471 19 325 l 61 493 q 254 881 129 763 q 567 1000 379 1000 m 364 433 q 345 335 350 372 q 346 271 340 299 q 400 261 371 261 q 505 319 457 261 q 583 508 553 378 l 588 526 q 606 630 603 592 q 606 701 610 668 q 581 707 593 704 q 553 710 568 710 q 447 647 494 710 q 368 451 399 583 l 364 433 m 597 1335 q 633 1339 613 1338 q 663 1340 653 1340 q 735 1332 706 1340 q 799 1288 765 1324 q 865 1199 835 1249 q 914 1083 894 1149 q 774 1044 838 1044 q 732 1057 746 1044 q 703 1094 718 1069 q 681 1128 693 1111 q 651 1163 669 1144 l 643 1163 q 570 1101 599 1131 q 524 1050 542 1072 l 515 1050 q 402 1059 440 1050 q 351 1082 364 1068 q 343 1113 339 1096 q 358 1147 346 1126 q 392 1190 369 1167 q 489 1272 432 1232 q 597 1335 546 1311 m 988 1539 q 1070 1535 1036 1539 q 1138 1519 1104 1531 q 1153 1432 1192 1501 q 1097 1358 1131 1392 q 1028 1306 1064 1325 q 983 1289 1006 1293 q 938 1285 961 1285 q 817 1307 875 1285 q 907 1407 868 1354 q 988 1539 946 1460 z "},"Ồ":{"ha":903,"x_min":19,"x_max":1015,"o":"m 567 1000 q 800 934 715 1000 q 909 753 885 868 q 896 489 933 638 l 890 467 q 692 88 825 203 q 351 -28 558 -28 q 151 36 229 -28 q 46 213 72 100 q 56 471 19 325 l 61 493 q 254 881 129 763 q 567 1000 379 1000 m 364 433 q 345 335 350 372 q 346 271 340 299 q 400 261 371 261 q 505 319 457 261 q 583 508 553 378 l 588 526 q 606 630 603 592 q 606 701 610 668 q 581 707 593 704 q 553 710 568 710 q 447 647 494 710 q 368 451 399 583 l 364 433 m 597 1335 q 633 1339 613 1338 q 663 1340 653 1340 q 735 1332 706 1340 q 799 1288 765 1324 q 865 1199 835 1249 q 914 1083 894 1149 q 774 1044 838 1044 q 732 1057 746 1044 q 703 1094 718 1069 q 681 1128 693 1111 q 651 1163 669 1144 l 643 1163 q 570 1101 599 1131 q 524 1050 542 1072 l 515 1050 q 402 1059 440 1050 q 351 1082 364 1068 q 343 1113 339 1096 q 358 1147 346 1126 q 392 1190 369 1167 q 489 1272 432 1232 q 597 1335 546 1311 m 961 1536 q 979 1407 967 1461 q 1015 1301 992 1353 q 965 1288 990 1292 q 910 1285 940 1285 q 867 1289 888 1285 q 831 1306 847 1293 q 782 1358 804 1325 q 756 1432 760 1392 q 765 1487 751 1464 q 814 1519 779 1510 q 880 1532 846 1528 q 961 1536 914 1536 z "},"Ổ":{"ha":903,"x_min":19,"x_max":1174,"o":"m 567 1000 q 800 934 715 1000 q 909 753 885 868 q 896 489 933 638 l 890 467 q 692 88 825 203 q 351 -28 558 -28 q 151 36 229 -28 q 46 213 72 100 q 56 471 19 325 l 61 493 q 254 881 129 763 q 567 1000 379 1000 m 364 433 q 345 335 350 372 q 346 271 340 299 q 400 261 371 261 q 505 319 457 261 q 583 508 553 378 l 588 526 q 606 630 603 592 q 606 701 610 668 q 581 707 593 704 q 553 710 568 710 q 447 647 494 710 q 368 451 399 583 l 364 433 m 597 1335 q 633 1339 613 1338 q 663 1340 653 1340 q 735 1332 706 1340 q 799 1288 765 1324 q 865 1199 835 1249 q 914 1083 894 1149 q 774 1044 838 1044 q 732 1057 746 1044 q 703 1094 718 1069 q 681 1128 693 1111 q 651 1163 669 1144 l 643 1163 q 570 1101 599 1131 q 524 1050 542 1072 l 515 1050 q 402 1059 440 1050 q 351 1082 364 1068 q 343 1113 339 1096 q 358 1147 346 1126 q 392 1190 369 1167 q 489 1272 432 1232 q 597 1335 546 1311 m 818 1314 q 844 1344 824 1335 q 906 1364 864 1354 q 969 1382 951 1375 q 988 1396 986 1389 l 988 1403 q 968 1405 979 1404 q 940 1406 957 1406 q 814 1383 879 1406 l 806 1383 q 796 1415 797 1397 q 797 1454 794 1432 q 854 1539 806 1507 q 910 1563 876 1554 q 990 1572 943 1572 q 1099 1551 1057 1572 q 1157 1497 1140 1529 q 1167 1431 1174 1464 l 1165 1424 q 1140 1370 1160 1390 q 1082 1329 1121 1350 q 1035 1299 1049 1311 q 1011 1269 1021 1286 q 914 1260 964 1260 q 840 1274 867 1260 q 818 1314 813 1288 z "},"Ỗ":{"ha":903,"x_min":19,"x_max":978,"o":"m 567 1000 q 800 934 715 1000 q 909 753 885 868 q 896 489 933 638 l 890 467 q 692 88 825 203 q 351 -28 558 -28 q 151 36 229 -28 q 46 213 72 100 q 56 471 19 325 l 61 493 q 254 881 129 763 q 567 1000 379 1000 m 364 433 q 345 335 350 372 q 346 271 340 299 q 400 261 371 261 q 505 319 457 261 q 583 508 553 378 l 588 526 q 606 630 603 592 q 606 701 610 668 q 581 707 593 704 q 553 710 568 710 q 447 647 494 710 q 368 451 399 583 l 364 433 m 597 1335 q 633 1339 613 1338 q 663 1340 653 1340 q 735 1332 706 1340 q 799 1288 765 1324 q 865 1199 835 1249 q 914 1083 894 1149 q 774 1044 838 1044 q 732 1057 746 1044 q 703 1094 718 1069 q 681 1128 693 1111 q 651 1163 669 1144 l 643 1163 q 570 1101 599 1131 q 524 1050 542 1072 l 515 1050 q 402 1059 440 1050 q 351 1082 364 1068 q 343 1113 339 1096 q 358 1147 346 1126 q 392 1190 369 1167 q 489 1272 432 1232 q 597 1335 546 1311 m 846 1546 q 902 1557 878 1546 q 961 1599 926 1568 l 969 1599 q 965 1489 978 1556 q 944 1422 958 1450 q 903 1374 929 1394 q 807 1340 861 1340 q 733 1358 765 1340 q 667 1394 701 1376 q 585 1413 633 1413 q 530 1399 554 1413 q 478 1360 506 1386 l 469 1360 q 475 1469 463 1406 q 496 1535 482 1507 q 536 1585 510 1564 q 631 1618 578 1618 q 710 1600 678 1618 q 774 1564 743 1582 q 846 1546 806 1546 z "},"Ộ":{"ha":903,"x_min":19,"x_max":933,"o":"m 199 -106 q 256 -99 226 -101 q 310 -97 286 -97 q 417 -131 390 -97 q 425 -243 444 -165 l 411 -299 q 355 -305 385 -303 q 301 -307 325 -307 q 192 -275 219 -307 q 188 -151 165 -243 l 199 -106 m 567 1000 q 800 934 715 1000 q 909 753 885 868 q 896 489 933 638 l 890 467 q 692 88 825 203 q 351 -28 558 -28 q 151 36 229 -28 q 46 213 72 100 q 56 471 19 325 l 61 493 q 254 881 129 763 q 567 1000 379 1000 m 364 433 q 345 335 350 372 q 346 271 340 299 q 400 261 371 261 q 505 319 457 261 q 583 508 553 378 l 588 526 q 606 630 603 592 q 606 701 610 668 q 581 707 593 704 q 553 710 568 710 q 447 647 494 710 q 368 451 399 583 l 364 433 m 597 1335 q 633 1339 613 1338 q 663 1340 653 1340 q 735 1332 706 1340 q 799 1288 765 1324 q 865 1199 835 1249 q 914 1083 894 1149 q 774 1044 838 1044 q 732 1057 746 1044 q 703 1094 718 1069 q 681 1128 693 1111 q 651 1163 669 1144 l 643 1163 q 570 1101 599 1131 q 524 1050 542 1072 l 515 1050 q 402 1059 440 1050 q 351 1082 364 1068 q 343 1113 339 1096 q 358 1147 346 1126 q 392 1190 369 1167 q 489 1272 432 1232 q 597 1335 546 1311 z "},"Ớ":{"ha":903,"x_min":19,"x_max":988,"o":"m 686 1313 q 769 1308 735 1313 q 836 1293 803 1304 q 851 1206 890 1275 q 796 1132 829 1165 q 726 1079 763 1099 q 682 1063 704 1067 q 636 1058 660 1058 q 515 1081 574 1058 q 606 1181 567 1128 q 686 1313 644 1233 m 567 1000 q 761 958 681 1000 q 776 1001 769 974 q 781 1047 782 1022 q 772 1096 779 1072 q 820 1106 796 1103 q 875 1108 844 1108 q 962 1087 936 1108 q 985 1025 988 1065 q 953 928 981 969 q 882 861 925 888 q 871 854 876 857 q 917 693 911 786 q 896 489 924 600 l 890 467 q 692 88 825 203 q 351 -28 558 -28 q 151 36 229 -28 q 46 213 72 100 q 56 471 19 325 l 61 493 q 254 881 129 763 q 567 1000 379 1000 m 364 433 q 345 335 350 372 q 346 271 340 299 q 400 261 371 261 q 505 319 457 261 q 583 508 553 378 l 588 526 q 606 630 603 592 q 606 701 610 668 q 581 707 593 704 q 553 710 568 710 q 447 647 494 710 q 368 451 399 583 l 364 433 z "},"Ờ":{"ha":903,"x_min":19,"x_max":988,"o":"m 660 1310 q 678 1181 665 1235 q 714 1075 690 1126 q 664 1062 689 1065 q 608 1058 639 1058 q 566 1063 586 1058 q 529 1079 546 1067 q 481 1132 503 1099 q 454 1206 458 1165 q 464 1260 450 1238 q 513 1293 478 1283 q 578 1306 544 1301 q 660 1310 613 1310 m 567 1000 q 761 958 681 1000 q 776 1001 769 974 q 781 1047 782 1022 q 772 1096 779 1072 q 820 1106 796 1103 q 875 1108 844 1108 q 962 1087 936 1108 q 985 1025 988 1065 q 953 928 981 969 q 882 861 925 888 q 871 854 876 857 q 917 693 911 786 q 896 489 924 600 l 890 467 q 692 88 825 203 q 351 -28 558 -28 q 151 36 229 -28 q 46 213 72 100 q 56 471 19 325 l 61 493 q 254 881 129 763 q 567 1000 379 1000 m 364 433 q 345 335 350 372 q 346 271 340 299 q 400 261 371 261 q 505 319 457 261 q 583 508 553 378 l 588 526 q 606 630 603 592 q 606 701 610 668 q 581 707 593 704 q 553 710 568 710 q 447 647 494 710 q 368 451 399 583 l 364 433 z "},"Ở":{"ha":903,"x_min":19,"x_max":988,"o":"m 521 1089 q 547 1119 526 1110 q 608 1139 567 1129 q 672 1157 654 1150 q 690 1171 689 1164 l 690 1178 q 671 1180 682 1179 q 643 1181 660 1181 q 517 1158 582 1181 l 508 1158 q 499 1190 500 1172 q 500 1229 497 1207 q 557 1314 508 1282 q 613 1338 579 1329 q 693 1347 646 1347 q 801 1326 760 1347 q 860 1272 843 1304 q 869 1206 876 1239 l 868 1199 q 843 1145 863 1165 q 785 1104 824 1125 q 738 1074 751 1086 q 714 1044 724 1061 q 617 1035 667 1035 q 542 1049 569 1035 q 521 1089 515 1063 m 567 1000 q 761 958 681 1000 q 776 1001 769 974 q 781 1047 782 1022 q 772 1096 779 1072 q 820 1106 796 1103 q 875 1108 844 1108 q 962 1087 936 1108 q 985 1025 988 1065 q 953 928 981 969 q 882 861 925 888 q 871 854 876 857 q 917 693 911 786 q 896 489 924 600 l 890 467 q 692 88 825 203 q 351 -28 558 -28 q 151 36 229 -28 q 46 213 72 100 q 56 471 19 325 l 61 493 q 254 881 129 763 q 567 1000 379 1000 m 364 433 q 345 335 350 372 q 346 271 340 299 q 400 261 371 261 q 505 319 457 261 q 583 508 553 378 l 588 526 q 606 630 603 592 q 606 701 610 668 q 581 707 593 704 q 553 710 568 710 q 447 647 494 710 q 368 451 399 583 l 364 433 z "},"Ỡ":{"ha":903,"x_min":19,"x_max":988,"o":"m 650 1251 q 706 1263 682 1251 q 765 1304 731 1274 l 774 1304 q 769 1194 782 1261 q 748 1128 763 1156 q 707 1079 733 1100 q 611 1046 665 1046 q 538 1064 569 1046 q 472 1100 506 1082 q 389 1118 438 1118 q 334 1105 358 1118 q 282 1065 310 1092 l 274 1065 q 279 1175 267 1111 q 300 1241 286 1213 q 340 1290 314 1269 q 435 1324 382 1324 q 515 1306 482 1324 q 578 1269 547 1288 q 650 1251 610 1251 m 567 1000 q 761 958 681 1000 q 776 1001 769 974 q 781 1047 782 1022 q 772 1096 779 1072 q 820 1106 796 1103 q 875 1108 844 1108 q 962 1087 936 1108 q 985 1025 988 1065 q 953 928 981 969 q 882 861 925 888 q 871 854 876 857 q 917 693 911 786 q 896 489 924 600 l 890 467 q 692 88 825 203 q 351 -28 558 -28 q 151 36 229 -28 q 46 213 72 100 q 56 471 19 325 l 61 493 q 254 881 129 763 q 567 1000 379 1000 m 364 433 q 345 335 350 372 q 346 271 340 299 q 400 261 371 261 q 505 319 457 261 q 583 508 553 378 l 588 526 q 606 630 603 592 q 606 701 610 668 q 581 707 593 704 q 553 710 568 710 q 447 647 494 710 q 368 451 399 583 l 364 433 z "},"Ợ":{"ha":903,"x_min":19,"x_max":988,"o":"m 567 1000 q 761 958 681 1000 q 776 1001 769 974 q 781 1047 782 1022 q 772 1096 779 1072 q 820 1106 796 1103 q 875 1108 844 1108 q 962 1087 936 1108 q 985 1025 988 1065 q 953 928 981 969 q 882 861 925 888 q 871 854 876 857 q 917 693 911 786 q 896 489 924 600 l 890 467 q 692 88 825 203 q 351 -28 558 -28 q 151 36 229 -28 q 46 213 72 100 q 56 471 19 325 l 61 493 q 254 881 129 763 q 567 1000 379 1000 m 364 433 q 345 335 350 372 q 346 271 340 299 q 400 261 371 261 q 505 319 457 261 q 583 508 553 378 l 588 526 q 606 630 603 592 q 606 701 610 668 q 581 707 593 704 q 553 710 568 710 q 447 647 494 710 q 368 451 399 583 l 364 433 m 199 -106 q 256 -99 226 -101 q 310 -97 286 -97 q 417 -131 390 -97 q 425 -243 444 -165 l 411 -299 q 355 -305 385 -303 q 301 -307 325 -307 q 192 -275 219 -307 q 188 -151 165 -243 l 199 -106 z "},"P":{"ha":833,"x_min":29,"x_max":951,"o":"m 346 0 q 282 -8 321 -4 q 210 -11 243 -11 q 65 38 101 -11 q 40 160 29 86 q 83 326 54 249 q 144 484 113 403 q 192 667 175 565 q 188 667 190 667 q 125 715 140 667 q 143 893 110 764 q 171 972 154 939 q 366 994 267 988 q 531 1000 465 1000 q 872 626 951 1000 l 868 607 q 789 383 842 483 q 670 223 736 282 q 536 164 604 164 q 389 268 431 164 l 381 265 q 362 200 371 233 q 347 133 353 167 q 341 67 342 101 q 346 0 340 32 m 476 539 q 465 505 471 522 q 454 471 460 488 q 467 469 460 469 q 513 490 490 469 q 549 564 535 511 l 556 589 q 563 638 563 610 q 556 685 563 667 q 483 694 531 694 q 478 694 481 694 l 472 688 q 476 539 507 644 z "},"Q":{"ha":903,"x_min":19,"x_max":933,"o":"m 567 1000 q 800 934 715 1000 q 909 753 885 868 q 896 489 933 638 l 890 467 q 778 190 849 297 q 610 31 708 83 l 611 26 q 651 0 619 0 q 706 18 679 0 l 711 18 q 707 -37 710 -10 q 697 -89 704 -64 q 604 -264 669 -206 q 506 -306 558 -306 q 416 -265 451 -306 q 361 -161 381 -225 q 343 -28 344 -103 q 147 40 224 -25 q 44 215 69 104 q 56 471 19 326 l 61 493 q 254 881 129 763 q 567 1000 379 1000 m 364 433 q 345 335 350 372 q 346 271 340 299 q 400 261 371 261 q 505 319 457 261 q 583 508 553 378 l 588 526 q 606 630 603 592 q 606 701 610 668 q 581 707 593 704 q 553 710 568 710 q 447 647 494 710 q 368 451 399 583 l 364 433 z "},"R":{"ha":833,"x_min":-6,"x_max":888,"o":"m 311 0 q 253 -10 285 -6 q 188 -14 221 -14 q 19 154 -6 -14 q 51 289 31 228 q 94 408 71 350 q 138 528 117 465 q 172 667 158 590 q 165 667 168 667 q 119 705 128 667 q 128 828 110 743 q 149 908 136 868 q 174 972 161 947 q 314 992 235 983 q 489 1000 393 1000 q 728 949 636 1000 q 853 813 819 899 q 860 617 888 726 l 856 600 q 782 451 836 521 q 657 333 728 381 q 686 290 671 301 q 724 278 701 278 q 771 292 747 278 l 776 292 q 773 226 776 256 q 758 151 769 197 q 689 15 736 63 q 589 -28 646 -28 q 491 8 531 -28 q 436 104 451 43 q 421 180 426 140 q 414 258 415 219 q 373 263 394 260 q 339 274 351 267 l 328 268 q 316 217 321 243 q 308 163 311 192 q 305 74 304 115 q 311 0 306 33 m 428 539 q 419 511 424 525 q 447 510 432 510 q 510 537 483 510 q 547 615 538 564 l 549 622 q 549 686 556 657 q 472 694 515 694 q 428 694 450 694 l 424 688 q 428 539 458 644 z "},"Ŕ":{"ha":833,"x_min":-6,"x_max":888,"o":"m 311 0 q 253 -10 285 -6 q 188 -14 221 -14 q 19 154 -6 -14 q 51 289 31 228 q 94 408 71 350 q 138 528 117 465 q 172 667 158 590 q 165 667 168 667 q 119 705 128 667 q 128 828 110 743 q 149 908 136 868 q 174 972 161 947 q 314 992 235 983 q 489 1000 393 1000 q 728 949 636 1000 q 853 813 819 899 q 860 617 888 726 l 856 600 q 782 451 836 521 q 657 333 728 381 q 686 290 671 301 q 724 278 701 278 q 771 292 747 278 l 776 292 q 773 226 776 256 q 758 151 769 197 q 689 15 736 63 q 589 -28 646 -28 q 491 8 531 -28 q 436 104 451 43 q 421 180 426 140 q 414 258 415 219 q 373 263 394 260 q 339 274 351 267 l 328 268 q 316 217 321 243 q 308 163 311 192 q 305 74 304 115 q 311 0 306 33 m 428 539 q 419 511 424 525 q 447 510 432 510 q 510 537 483 510 q 547 615 538 564 l 549 622 q 549 686 556 657 q 472 694 515 694 q 428 694 450 694 l 424 688 q 428 539 458 644 m 629 1311 q 748 1306 690 1310 q 850 1286 806 1303 q 872 1263 871 1279 q 863 1231 874 1246 q 783 1134 822 1168 q 696 1076 744 1100 q 644 1063 678 1068 q 576 1057 610 1057 q 503 1061 546 1057 q 428 1076 460 1065 q 515 1151 481 1118 q 576 1221 550 1183 q 629 1311 601 1258 z "},"Ŗ":{"ha":833,"x_min":-6,"x_max":888,"o":"m 311 0 q 253 -10 285 -6 q 188 -14 221 -14 q 19 154 -6 -14 q 51 289 31 228 q 94 408 71 350 q 138 528 117 465 q 172 667 158 590 q 165 667 168 667 q 119 705 128 667 q 128 828 110 743 q 149 908 136 868 q 174 972 161 947 q 314 992 235 983 q 489 1000 393 1000 q 728 949 636 1000 q 853 813 819 899 q 860 617 888 726 l 856 600 q 782 451 836 521 q 657 333 728 381 q 686 290 671 301 q 724 278 701 278 q 771 292 747 278 l 776 292 q 773 226 776 256 q 758 151 769 197 q 689 15 736 63 q 589 -28 646 -28 q 491 8 531 -28 q 436 104 451 43 q 421 180 426 140 q 414 258 415 219 q 373 263 394 260 q 339 274 351 267 l 328 268 q 316 217 321 243 q 308 163 311 192 q 305 74 304 115 q 311 0 306 33 m 428 539 q 419 511 424 525 q 447 510 432 510 q 510 537 483 510 q 547 615 538 564 l 549 622 q 549 686 556 657 q 472 694 515 694 q 428 694 450 694 l 424 688 q 428 539 458 644 m 247 -94 q 319 -79 288 -83 q 401 -75 350 -75 q 501 -93 475 -75 q 521 -153 526 -111 q 486 -251 515 -206 q 414 -324 457 -296 q 350 -353 381 -346 q 263 -361 319 -361 q 167 -344 204 -361 q 201 -262 188 -299 q 226 -187 215 -226 q 247 -94 238 -149 z "},"Ř":{"ha":833,"x_min":-6,"x_max":932,"o":"m 674 1063 q 640 1060 660 1061 q 608 1058 619 1058 q 535 1066 565 1058 q 472 1107 506 1074 q 406 1191 436 1144 q 357 1297 376 1238 q 430 1325 397 1317 q 497 1333 463 1333 q 540 1322 525 1333 q 568 1288 554 1311 q 589 1256 578 1271 q 618 1224 600 1240 l 628 1224 q 701 1281 672 1253 q 747 1329 729 1308 l 756 1329 q 869 1321 831 1329 q 920 1299 908 1313 q 928 1271 932 1286 q 914 1239 925 1257 q 879 1197 903 1221 q 783 1122 839 1158 q 674 1063 726 1086 m 311 0 q 253 -10 285 -6 q 188 -14 221 -14 q 19 154 -6 -14 q 51 289 31 228 q 94 408 71 350 q 138 528 117 465 q 172 667 158 590 q 165 667 168 667 q 119 705 128 667 q 128 828 110 743 q 149 908 136 868 q 174 972 161 947 q 314 992 235 983 q 489 1000 393 1000 q 728 949 636 1000 q 853 813 819 899 q 860 617 888 726 l 856 600 q 782 451 836 521 q 657 333 728 381 q 686 290 671 301 q 724 278 701 278 q 771 292 747 278 l 776 292 q 773 226 776 256 q 758 151 769 197 q 689 15 736 63 q 589 -28 646 -28 q 491 8 531 -28 q 436 104 451 43 q 421 180 426 140 q 414 258 415 219 q 373 263 394 260 q 339 274 351 267 l 328 268 q 316 217 321 243 q 308 163 311 192 q 305 74 304 115 q 311 0 306 33 m 428 539 q 419 511 424 525 q 447 510 432 510 q 510 537 483 510 q 547 615 538 564 l 549 622 q 549 686 556 657 q 472 694 515 694 q 428 694 450 694 l 424 688 q 428 539 458 644 z "},"Ȑ":{"ha":833,"x_min":-6,"x_max":890,"o":"m 461 1313 q 489 1192 468 1244 q 557 1078 510 1139 q 476 1063 522 1067 q 400 1058 431 1058 q 342 1064 367 1058 q 303 1078 317 1069 q 235 1144 260 1106 q 200 1232 210 1182 q 208 1264 197 1247 q 240 1288 218 1281 q 353 1308 293 1304 q 461 1313 414 1313 m 794 1313 q 822 1192 801 1244 q 890 1078 843 1139 q 810 1063 856 1067 q 733 1058 764 1058 q 675 1064 700 1058 q 636 1078 650 1069 q 568 1144 593 1106 q 533 1232 543 1182 q 541 1264 531 1247 q 574 1288 551 1281 q 687 1308 626 1304 q 794 1313 747 1313 m 311 0 q 253 -10 285 -6 q 188 -14 221 -14 q 19 154 -6 -14 q 51 289 31 228 q 94 408 71 350 q 138 528 117 465 q 172 667 158 590 q 165 667 168 667 q 119 705 128 667 q 128 828 110 743 q 149 908 136 868 q 174 972 161 947 q 314 992 235 983 q 489 1000 393 1000 q 728 949 636 1000 q 853 813 819 899 q 860 617 888 726 l 856 600 q 782 451 836 521 q 657 333 728 381 q 686 290 671 301 q 724 278 701 278 q 771 292 747 278 l 776 292 q 773 226 776 256 q 758 151 769 197 q 689 15 736 63 q 589 -28 646 -28 q 491 8 531 -28 q 436 104 451 43 q 421 180 426 140 q 414 258 415 219 q 373 263 394 260 q 339 274 351 267 l 328 268 q 316 217 321 243 q 308 163 311 192 q 305 74 304 115 q 311 0 306 33 m 428 539 q 419 511 424 525 q 447 510 432 510 q 510 537 483 510 q 547 615 538 564 l 549 622 q 549 686 556 657 q 472 694 515 694 q 428 694 450 694 l 424 688 q 428 539 458 644 z "},"Ȓ":{"ha":833,"x_min":-6,"x_max":888,"o":"m 311 0 q 253 -10 285 -6 q 188 -14 221 -14 q 19 154 -6 -14 q 51 289 31 228 q 94 408 71 350 q 138 528 117 465 q 172 667 158 590 q 165 667 168 667 q 119 705 128 667 q 128 828 110 743 q 149 908 136 868 q 174 972 161 947 q 314 992 235 983 q 489 1000 393 1000 q 728 949 636 1000 q 853 813 819 899 q 860 617 888 726 l 856 600 q 782 451 836 521 q 657 333 728 381 q 686 290 671 301 q 724 278 701 278 q 771 292 747 278 l 776 292 q 773 226 776 256 q 758 151 769 197 q 689 15 736 63 q 589 -28 646 -28 q 491 8 531 -28 q 436 104 451 43 q 421 180 426 140 q 414 258 415 219 q 373 263 394 260 q 339 274 351 267 l 328 268 q 316 217 321 243 q 308 163 311 192 q 305 74 304 115 q 311 0 306 33 m 428 539 q 419 511 424 525 q 447 510 432 510 q 510 537 483 510 q 547 615 538 564 l 549 622 q 549 686 556 657 q 472 694 515 694 q 428 694 450 694 l 424 688 q 428 539 458 644 m 494 1083 q 410 1089 447 1083 q 353 1106 372 1094 q 343 1149 332 1117 q 448 1291 378 1250 q 618 1332 518 1332 l 626 1332 q 794 1281 732 1332 q 865 1149 856 1231 q 860 1124 868 1135 q 840 1107 853 1114 q 783 1088 814 1093 q 703 1083 751 1083 q 676 1139 697 1121 q 618 1161 656 1157 q 543 1141 572 1160 q 494 1083 514 1122 z "},"Ṛ":{"ha":833,"x_min":-6,"x_max":888,"o":"m 242 -106 q 299 -99 269 -101 q 353 -97 329 -97 q 460 -131 433 -97 q 468 -243 488 -165 l 454 -299 q 398 -305 428 -303 q 344 -307 368 -307 q 235 -275 263 -307 q 231 -151 208 -243 l 242 -106 m 311 0 q 253 -10 285 -6 q 188 -14 221 -14 q 19 154 -6 -14 q 51 289 31 228 q 94 408 71 350 q 138 528 117 465 q 172 667 158 590 q 165 667 168 667 q 119 705 128 667 q 128 828 110 743 q 149 908 136 868 q 174 972 161 947 q 314 992 235 983 q 489 1000 393 1000 q 728 949 636 1000 q 853 813 819 899 q 860 617 888 726 l 856 600 q 782 451 836 521 q 657 333 728 381 q 686 290 671 301 q 724 278 701 278 q 771 292 747 278 l 776 292 q 773 226 776 256 q 758 151 769 197 q 689 15 736 63 q 589 -28 646 -28 q 491 8 531 -28 q 436 104 451 43 q 421 180 426 140 q 414 258 415 219 q 373 263 394 260 q 339 274 351 267 l 328 268 q 316 217 321 243 q 308 163 311 192 q 305 74 304 115 q 311 0 306 33 m 428 539 q 419 511 424 525 q 447 510 432 510 q 510 537 483 510 q 547 615 538 564 l 549 622 q 549 686 556 657 q 472 694 515 694 q 428 694 450 694 l 424 688 q 428 539 458 644 z "},"Ṟ":{"ha":833,"x_min":-6,"x_max":888,"o":"m 129 -60 l 518 -60 q 605 -91 579 -60 q 617 -174 631 -122 q 594 -235 607 -208 q 565 -285 582 -261 l 236 -285 q 106 -245 136 -285 q 100 -129 75 -206 q 115 -90 107 -107 q 129 -60 122 -74 m 311 0 q 253 -10 285 -6 q 188 -14 221 -14 q 19 154 -6 -14 q 51 289 31 228 q 94 408 71 350 q 138 528 117 465 q 172 667 158 590 q 165 667 168 667 q 119 705 128 667 q 128 828 110 743 q 149 908 136 868 q 174 972 161 947 q 314 992 235 983 q 489 1000 393 1000 q 728 949 636 1000 q 853 813 819 899 q 860 617 888 726 l 856 600 q 782 451 836 521 q 657 333 728 381 q 686 290 671 301 q 724 278 701 278 q 771 292 747 278 l 776 292 q 773 226 776 256 q 758 151 769 197 q 689 15 736 63 q 589 -28 646 -28 q 491 8 531 -28 q 436 104 451 43 q 421 180 426 140 q 414 258 415 219 q 373 263 394 260 q 339 274 351 267 l 328 268 q 316 217 321 243 q 308 163 311 192 q 305 74 304 115 q 311 0 306 33 m 428 539 q 419 511 424 525 q 447 510 432 510 q 510 537 483 510 q 547 615 538 564 l 549 622 q 549 686 556 657 q 472 694 515 694 q 428 694 450 694 l 424 688 q 428 539 458 644 z "},"S":{"ha":833,"x_min":-7,"x_max":885,"o":"m 628 1000 q 825 922 754 1000 q 871 838 857 885 q 871 733 885 790 q 840 550 844 633 q 725 533 793 533 q 603 563 639 533 q 579 653 568 592 q 590 692 581 668 l 586 692 q 497 680 539 692 q 426 649 454 668 q 393 607 399 631 l 392 601 q 457 529 379 556 l 556 497 q 728 385 679 457 q 756 225 778 314 l 750 203 q 619 28 721 85 q 332 -28 517 -28 q 149 -10 219 -28 q 43 39 79 8 q 2 112 11 67 q 4 215 -7 157 q 18 269 8 238 q 40 332 28 301 q 67 379 53 363 l 75 379 q 190 295 126 325 q 339 265 253 265 q 417 267 381 265 q 481 275 454 269 l 481 279 q 404 353 481 328 l 347 371 q 142 484 194 419 q 114 643 90 549 l 117 654 q 183 788 135 725 q 300 899 231 851 q 453 973 369 946 q 628 1000 538 1000 z "},"Ś":{"ha":833,"x_min":-7,"x_max":904,"o":"m 628 1000 q 825 922 754 1000 q 871 838 857 885 q 871 733 885 790 q 840 550 844 633 q 725 533 793 533 q 603 563 639 533 q 579 653 568 592 q 590 692 581 668 l 586 692 q 497 680 539 692 q 426 649 454 668 q 393 607 399 631 l 392 601 q 457 529 379 556 l 556 497 q 728 385 679 457 q 756 225 778 314 l 750 203 q 619 28 721 85 q 332 -28 517 -28 q 149 -10 219 -28 q 43 39 79 8 q 2 112 11 67 q 4 215 -7 157 q 18 269 8 238 q 40 332 28 301 q 67 379 53 363 l 75 379 q 190 295 126 325 q 339 265 253 265 q 417 267 381 265 q 481 275 454 269 l 481 279 q 404 353 481 328 l 347 371 q 142 484 194 419 q 114 643 90 549 l 117 654 q 183 788 135 725 q 300 899 231 851 q 453 973 369 946 q 628 1000 538 1000 m 660 1311 q 778 1306 721 1310 q 881 1286 836 1303 q 903 1263 901 1279 q 893 1231 904 1246 q 814 1134 853 1168 q 726 1076 775 1100 q 674 1063 708 1068 q 607 1057 640 1057 q 533 1061 576 1057 q 458 1076 490 1065 q 546 1151 511 1118 q 606 1221 581 1183 q 660 1311 632 1258 z "},"Ŝ":{"ha":833,"x_min":-7,"x_max":908,"o":"m 628 1000 q 825 922 754 1000 q 871 838 857 885 q 871 733 885 790 q 840 550 844 633 q 725 533 793 533 q 603 563 639 533 q 579 653 568 592 q 590 692 581 668 l 586 692 q 497 680 539 692 q 426 649 454 668 q 393 607 399 631 l 392 601 q 457 529 379 556 l 556 497 q 728 385 679 457 q 756 225 778 314 l 750 203 q 619 28 721 85 q 332 -28 517 -28 q 149 -10 219 -28 q 43 39 79 8 q 2 112 11 67 q 4 215 -7 157 q 18 269 8 238 q 40 332 28 301 q 67 379 53 363 l 75 379 q 190 295 126 325 q 339 265 253 265 q 417 267 381 265 q 481 275 454 269 l 481 279 q 404 353 481 328 l 347 371 q 142 484 194 419 q 114 643 90 549 l 117 654 q 183 788 135 725 q 300 899 231 851 q 453 973 369 946 q 628 1000 538 1000 m 592 1333 q 627 1338 607 1336 q 657 1339 647 1339 q 730 1331 700 1339 q 793 1286 760 1322 q 859 1197 829 1247 q 908 1082 889 1147 q 768 1043 832 1043 q 726 1056 740 1043 q 697 1093 713 1068 q 676 1126 688 1110 q 646 1161 664 1143 l 638 1161 q 565 1100 593 1129 q 518 1049 536 1071 l 510 1049 q 397 1058 435 1049 q 346 1081 358 1067 q 338 1111 333 1094 q 352 1145 340 1125 q 386 1189 364 1165 q 483 1270 426 1231 q 592 1333 540 1310 z "},"Ş":{"ha":833,"x_min":-7,"x_max":885,"o":"m 503 -208 q 431 -322 489 -290 q 286 -354 372 -354 q 142 -318 185 -354 q 107 -210 99 -282 q 119 -170 110 -185 q 142 -146 128 -156 l 150 -146 q 191 -160 168 -156 q 240 -164 214 -164 q 287 -159 268 -164 q 307 -136 306 -154 q 295 -103 310 -118 q 240 -89 281 -89 q 216 -83 219 -89 q 217 -64 213 -76 q 231 -24 224 -43 q 117 -1 163 -17 q 43 39 71 15 q 2 112 11 67 q 4 215 -7 157 q 18 269 8 238 q 40 332 28 301 q 67 379 53 363 l 75 379 q 190 295 126 325 q 339 265 253 265 q 417 267 381 265 q 481 275 454 269 l 481 279 q 404 353 481 328 l 347 371 q 142 484 194 419 q 114 643 90 549 l 117 654 q 183 788 135 725 q 300 899 231 851 q 453 973 369 946 q 628 1000 538 1000 q 825 922 754 1000 q 871 838 857 885 q 871 733 885 790 q 840 550 844 633 q 725 533 793 533 q 603 563 639 533 q 579 653 568 592 q 590 692 581 668 l 586 692 q 497 680 539 692 q 426 649 454 668 q 393 607 399 631 l 392 601 q 457 529 379 556 l 556 497 q 728 385 679 457 q 756 225 778 314 l 750 203 q 626 33 722 89 q 358 -28 531 -24 q 354 -40 356 -35 l 350 -57 q 481 -90 444 -57 q 503 -208 518 -122 z "},"Š":{"ha":833,"x_min":-7,"x_max":963,"o":"m 628 1000 q 825 922 754 1000 q 871 838 857 885 q 871 733 885 790 q 840 550 844 633 q 725 533 793 533 q 603 563 639 533 q 579 653 568 592 q 590 692 581 668 l 586 692 q 497 680 539 692 q 426 649 454 668 q 393 607 399 631 l 392 601 q 457 529 379 556 l 556 497 q 728 385 679 457 q 756 225 778 314 l 750 203 q 619 28 721 85 q 332 -28 517 -28 q 149 -10 219 -28 q 43 39 79 8 q 2 112 11 67 q 4 215 -7 157 q 18 269 8 238 q 40 332 28 301 q 67 379 53 363 l 75 379 q 190 295 126 325 q 339 265 253 265 q 417 267 381 265 q 481 275 454 269 l 481 279 q 404 353 481 328 l 347 371 q 142 484 194 419 q 114 643 90 549 l 117 654 q 183 788 135 725 q 300 899 231 851 q 453 973 369 946 q 628 1000 538 1000 m 704 1063 q 670 1060 690 1061 q 639 1058 650 1058 q 566 1066 596 1058 q 503 1107 536 1074 q 437 1191 467 1144 q 388 1297 407 1238 q 460 1325 428 1317 q 528 1333 493 1333 q 570 1322 556 1333 q 599 1288 585 1311 q 619 1256 608 1271 q 649 1224 631 1240 l 658 1224 q 731 1281 703 1253 q 778 1329 760 1308 l 786 1329 q 899 1321 861 1329 q 950 1299 938 1313 q 958 1271 963 1286 q 944 1239 956 1257 q 910 1197 933 1221 q 813 1122 869 1158 q 704 1063 757 1086 z "},"Ș":{"ha":833,"x_min":-7,"x_max":885,"o":"m 628 1000 q 825 922 754 1000 q 871 838 857 885 q 871 733 885 790 q 840 550 844 633 q 725 533 793 533 q 603 563 639 533 q 579 653 568 592 q 590 692 581 668 l 586 692 q 497 680 539 692 q 426 649 454 668 q 393 607 399 631 l 392 601 q 457 529 379 556 l 556 497 q 728 385 679 457 q 756 225 778 314 l 750 203 q 619 28 721 85 q 332 -28 517 -28 q 149 -10 219 -28 q 43 39 79 8 q 2 112 11 67 q 4 215 -7 157 q 18 269 8 238 q 40 332 28 301 q 67 379 53 363 l 75 379 q 190 295 126 325 q 339 265 253 265 q 417 267 381 265 q 481 275 454 269 l 481 279 q 404 353 481 328 l 347 371 q 142 484 194 419 q 114 643 90 549 l 117 654 q 183 788 135 725 q 300 899 231 851 q 453 973 369 946 q 628 1000 538 1000 m 196 -94 q 267 -79 236 -83 q 350 -75 299 -75 q 449 -93 424 -75 q 469 -153 475 -111 q 435 -251 464 -206 q 363 -324 406 -296 q 299 -353 329 -346 q 211 -361 268 -361 q 115 -344 153 -361 q 150 -262 136 -299 q 175 -187 164 -226 q 196 -94 186 -149 z "},"Ṡ":{"ha":833,"x_min":-7,"x_max":885,"o":"m 472 1314 q 551 1324 514 1321 q 640 1328 589 1328 q 810 1275 763 1328 q 835 1138 857 1222 l 822 1090 q 740 1076 782 1081 q 654 1071 699 1071 q 487 1117 540 1071 q 460 1265 433 1164 l 472 1314 m 628 1000 q 825 922 754 1000 q 871 838 857 885 q 871 733 885 790 q 840 550 844 633 q 725 533 793 533 q 603 563 639 533 q 579 653 568 592 q 590 692 581 668 l 586 692 q 497 680 539 692 q 426 649 454 668 q 393 607 399 631 l 392 601 q 457 529 379 556 l 556 497 q 728 385 679 457 q 756 225 778 314 l 750 203 q 619 28 721 85 q 332 -28 517 -28 q 149 -10 219 -28 q 43 39 79 8 q 2 112 11 67 q 4 215 -7 157 q 18 269 8 238 q 40 332 28 301 q 67 379 53 363 l 75 379 q 190 295 126 325 q 339 265 253 265 q 417 267 381 265 q 481 275 454 269 l 481 279 q 404 353 481 328 l 347 371 q 142 484 194 419 q 114 643 90 549 l 117 654 q 183 788 135 725 q 300 899 231 851 q 453 973 369 946 q 628 1000 538 1000 z "},"Ṣ":{"ha":833,"x_min":-7,"x_max":885,"o":"m 190 -106 q 248 -99 218 -101 q 301 -97 278 -97 q 409 -131 382 -97 q 417 -243 436 -165 l 403 -299 q 347 -305 376 -303 q 293 -307 317 -307 q 184 -275 211 -307 q 179 -151 157 -243 l 190 -106 m 628 1000 q 825 922 754 1000 q 871 838 857 885 q 871 733 885 790 q 840 550 844 633 q 725 533 793 533 q 603 563 639 533 q 579 653 568 592 q 590 692 581 668 l 586 692 q 497 680 539 692 q 426 649 454 668 q 393 607 399 631 l 392 601 q 457 529 379 556 l 556 497 q 728 385 679 457 q 756 225 778 314 l 750 203 q 619 28 721 85 q 332 -28 517 -28 q 149 -10 219 -28 q 43 39 79 8 q 2 112 11 67 q 4 215 -7 157 q 18 269 8 238 q 40 332 28 301 q 67 379 53 363 l 75 379 q 190 295 126 325 q 339 265 253 265 q 417 267 381 265 q 481 275 454 269 l 481 279 q 404 353 481 328 l 347 371 q 142 484 194 419 q 114 643 90 549 l 117 654 q 183 788 135 725 q 300 899 231 851 q 453 973 369 946 q 628 1000 538 1000 z "},"Ṥ":{"ha":833,"x_min":-7,"x_max":1038,"o":"m 229 1317 q 308 1327 271 1324 q 397 1331 346 1331 q 567 1278 519 1331 q 592 1140 614 1225 l 579 1093 q 497 1078 539 1083 q 411 1074 456 1074 q 244 1120 297 1074 q 217 1268 190 1167 l 229 1317 m 628 1000 q 825 922 754 1000 q 871 838 857 885 q 871 733 885 790 q 840 550 844 633 q 725 533 793 533 q 603 563 639 533 q 579 653 568 592 q 590 692 581 668 l 586 692 q 497 680 539 692 q 426 649 454 668 q 393 607 399 631 l 392 601 q 457 529 379 556 l 556 497 q 728 385 679 457 q 756 225 778 314 l 750 203 q 619 28 721 85 q 332 -28 517 -28 q 149 -10 219 -28 q 43 39 79 8 q 2 112 11 67 q 4 215 -7 157 q 18 269 8 238 q 40 332 28 301 q 67 379 53 363 l 75 379 q 190 295 126 325 q 339 265 253 265 q 417 267 381 265 q 481 275 454 269 l 481 279 q 404 353 481 328 l 347 371 q 142 484 194 419 q 114 643 90 549 l 117 654 q 183 788 135 725 q 300 899 231 851 q 453 973 369 946 q 628 1000 538 1000 m 793 1313 q 912 1308 854 1311 q 1014 1288 969 1304 q 1036 1264 1035 1281 q 1026 1232 1038 1247 q 947 1135 986 1169 q 860 1078 908 1101 q 808 1064 842 1069 q 740 1058 774 1058 q 667 1063 710 1058 q 592 1078 624 1067 q 678 1152 644 1119 q 739 1222 713 1185 q 793 1313 765 1260 z "},"Ṧ":{"ha":833,"x_min":-7,"x_max":963,"o":"m 547 1608 q 626 1619 589 1615 q 715 1622 664 1622 q 885 1569 838 1622 q 910 1432 932 1517 l 897 1385 q 815 1370 857 1375 q 729 1365 774 1365 q 562 1412 615 1365 q 535 1560 508 1458 l 547 1608 m 628 1000 q 825 922 754 1000 q 871 838 857 885 q 871 733 885 790 q 840 550 844 633 q 725 533 793 533 q 603 563 639 533 q 579 653 568 592 q 590 692 581 668 l 586 692 q 497 680 539 692 q 426 649 454 668 q 393 607 399 631 l 392 601 q 457 529 379 556 l 556 497 q 728 385 679 457 q 756 225 778 314 l 750 203 q 619 28 721 85 q 332 -28 517 -28 q 149 -10 219 -28 q 43 39 79 8 q 2 112 11 67 q 4 215 -7 157 q 18 269 8 238 q 40 332 28 301 q 67 379 53 363 l 75 379 q 190 295 126 325 q 339 265 253 265 q 417 267 381 265 q 481 275 454 269 l 481 279 q 404 353 481 328 l 347 371 q 142 484 194 419 q 114 643 90 549 l 117 654 q 183 788 135 725 q 300 899 231 851 q 453 973 369 946 q 628 1000 538 1000 m 704 1063 q 670 1060 690 1061 q 639 1058 650 1058 q 566 1066 596 1058 q 503 1107 536 1074 q 437 1191 467 1144 q 388 1297 407 1238 q 460 1325 428 1317 q 528 1333 493 1333 q 570 1322 556 1333 q 599 1288 585 1311 q 619 1256 608 1271 q 649 1224 631 1240 l 658 1224 q 731 1281 703 1253 q 778 1329 760 1308 l 786 1329 q 900 1321 861 1329 q 951 1299 939 1313 q 958 1271 963 1286 q 944 1239 956 1257 q 910 1197 933 1221 q 813 1122 869 1158 q 704 1063 757 1086 z "},"Ṩ":{"ha":833,"x_min":-7,"x_max":885,"o":"m 472 1314 q 551 1324 514 1321 q 640 1328 589 1328 q 810 1275 763 1328 q 835 1138 857 1222 l 822 1090 q 740 1076 782 1081 q 654 1071 699 1071 q 487 1117 540 1071 q 460 1265 433 1164 l 472 1314 m 190 -106 q 248 -99 218 -101 q 301 -97 278 -97 q 409 -131 382 -97 q 417 -243 436 -165 l 403 -299 q 347 -305 376 -303 q 293 -307 317 -307 q 184 -275 211 -307 q 179 -151 157 -243 l 190 -106 m 628 1000 q 825 922 754 1000 q 871 838 857 885 q 871 733 885 790 q 840 550 844 633 q 725 533 793 533 q 603 563 639 533 q 579 653 568 592 q 590 692 581 668 l 586 692 q 497 680 539 692 q 426 649 454 668 q 393 607 399 631 l 392 601 q 457 529 379 556 l 556 497 q 728 385 679 457 q 756 225 778 314 l 750 203 q 619 28 721 85 q 332 -28 517 -28 q 149 -10 219 -28 q 43 39 79 8 q 2 112 11 67 q 4 215 -7 157 q 18 269 8 238 q 40 332 28 301 q 67 379 53 363 l 75 379 q 190 295 126 325 q 339 265 253 265 q 417 267 381 265 q 481 275 454 269 l 481 279 q 404 353 481 328 l 347 371 q 142 484 194 419 q 114 643 90 549 l 117 654 q 183 788 135 725 q 300 899 231 851 q 453 973 369 946 q 628 1000 538 1000 z "},"T":{"ha":833,"x_min":106,"x_max":935,"o":"m 493 0 q 354 -14 419 -14 q 228 33 268 -14 q 201 167 188 81 q 233 304 214 242 q 274 425 253 367 q 314 546 294 483 q 346 685 333 608 q 150 874 106 685 q 188 972 165 944 l 800 972 q 908 927 882 972 q 911 786 935 882 q 893 730 906 757 q 865 685 881 703 l 614 685 l 607 676 q 628 625 625 653 q 618 549 631 597 q 579 416 601 479 q 537 288 557 353 q 503 147 517 222 q 493 0 488 69 z "},"Ţ":{"ha":833,"x_min":104,"x_max":935,"o":"m 493 0 q 368 -14 426 -12 q 360 -40 363 -31 l 356 -57 q 487 -90 450 -57 q 508 -208 524 -122 q 436 -322 494 -290 q 292 -354 378 -354 q 147 -318 190 -354 q 113 -210 104 -282 q 124 -170 115 -185 q 147 -146 133 -156 l 156 -146 q 197 -160 174 -156 q 246 -164 219 -164 q 292 -159 274 -164 q 313 -136 311 -154 q 301 -103 315 -118 q 246 -89 286 -89 q 222 -83 225 -89 q 222 -64 218 -76 q 250 13 235 -24 q 201 167 185 58 q 233 304 214 242 q 274 425 253 367 q 314 546 294 483 q 346 685 333 608 q 150 874 106 685 q 188 972 165 944 l 800 972 q 908 927 882 972 q 911 786 935 882 q 893 730 906 757 q 865 685 881 703 l 614 685 l 607 676 q 628 625 625 653 q 618 549 631 597 q 579 416 601 479 q 537 288 557 353 q 503 147 517 222 q 493 0 488 69 z "},"Ť":{"ha":833,"x_min":106,"x_max":935,"o":"m 672 1063 q 638 1060 658 1061 q 607 1058 618 1058 q 534 1066 564 1058 q 471 1107 504 1074 q 405 1191 435 1144 q 356 1297 375 1238 q 428 1325 396 1317 q 496 1333 461 1333 q 538 1322 524 1333 q 567 1288 553 1311 q 588 1256 576 1271 q 617 1224 599 1240 l 626 1224 q 699 1281 671 1253 q 746 1329 728 1308 l 754 1329 q 868 1321 829 1329 q 919 1299 907 1313 q 926 1271 931 1286 q 913 1239 924 1257 q 878 1197 901 1221 q 781 1122 838 1158 q 672 1063 725 1086 m 493 0 q 354 -14 419 -14 q 228 33 268 -14 q 201 167 188 81 q 233 304 214 242 q 274 425 253 367 q 314 546 294 483 q 346 685 333 608 q 150 874 106 685 q 188 972 165 944 l 800 972 q 908 927 882 972 q 911 786 935 882 q 893 730 906 757 q 865 685 881 703 l 614 685 l 607 676 q 628 625 625 653 q 618 549 631 597 q 579 416 601 479 q 537 288 557 353 q 503 147 517 222 q 493 0 488 69 z "},"Ț":{"ha":833,"x_min":106,"x_max":935,"o":"m 493 0 q 354 -14 419 -14 q 228 33 268 -14 q 201 167 188 81 q 233 304 214 242 q 274 425 253 367 q 314 546 294 483 q 346 685 333 608 q 150 874 106 685 q 188 972 165 944 l 800 972 q 908 927 882 972 q 911 786 935 882 q 893 730 906 757 q 865 685 881 703 l 614 685 l 607 676 q 628 625 625 653 q 618 549 631 597 q 579 416 601 479 q 537 288 557 353 q 503 147 517 222 q 493 0 488 69 m 219 -78 q 276 -68 246 -71 q 346 -65 307 -65 q 436 -82 411 -65 q 454 -137 461 -99 q 410 -241 444 -189 q 340 -322 376 -293 q 301 -342 322 -336 q 240 -347 279 -347 q 167 -340 199 -347 q 110 -315 136 -333 q 176 -207 150 -258 q 219 -78 201 -156 z "},"Ṭ":{"ha":833,"x_min":106,"x_max":935,"o":"m 196 -106 q 253 -99 224 -101 q 307 -97 283 -97 q 415 -131 388 -97 q 422 -243 442 -165 l 408 -299 q 352 -305 382 -303 q 299 -307 322 -307 q 190 -275 217 -307 q 185 -151 163 -243 l 196 -106 m 493 0 q 354 -14 419 -14 q 228 33 268 -14 q 201 167 188 81 q 233 304 214 242 q 274 425 253 367 q 314 546 294 483 q 346 685 333 608 q 150 874 106 685 q 188 972 165 944 l 800 972 q 908 927 882 972 q 911 786 935 882 q 893 730 906 757 q 865 685 881 703 l 614 685 l 607 676 q 628 625 625 653 q 618 549 631 597 q 579 416 601 479 q 537 288 557 353 q 503 147 517 222 q 493 0 488 69 z "},"Ṯ":{"ha":833,"x_min":31,"x_max":935,"o":"m 85 -60 l 474 -60 q 560 -91 535 -60 q 572 -174 586 -122 q 550 -235 563 -208 q 521 -285 538 -261 l 192 -285 q 61 -245 92 -285 q 56 -129 31 -206 q 70 -90 63 -107 q 85 -60 78 -74 m 493 0 q 354 -14 419 -14 q 228 33 268 -14 q 201 167 188 81 q 233 304 214 242 q 274 425 253 367 q 314 546 294 483 q 346 685 333 608 q 150 874 106 685 q 188 972 165 944 l 800 972 q 908 927 882 972 q 911 786 935 882 q 893 730 906 757 q 865 685 881 703 l 614 685 l 607 676 q 628 625 625 653 q 618 549 631 597 q 579 416 601 479 q 537 288 557 353 q 503 147 517 222 q 493 0 488 69 z "},"U":{"ha":903,"x_min":8,"x_max":972,"o":"m 199 -14 q 122 11 158 -14 q 58 77 85 36 q 20 167 32 118 q 18 263 8 215 q 65 438 36 349 q 122 624 94 528 q 164 821 150 719 q 175 908 171 871 q 179 972 179 946 q 238 981 203 976 q 307 986 272 986 q 460 928 411 986 q 485 764 508 871 q 313 275 435 529 q 326 272 318 274 q 343 269 333 269 q 528 378 439 269 q 589 570 556 471 q 646 772 622 669 q 667 976 669 874 q 724 983 690 981 q 806 986 757 986 q 929 941 886 986 q 960 822 972 896 q 919 637 943 719 q 867 478 894 554 q 815 319 840 401 q 771 136 790 238 q 765 63 765 101 q 768 -4 765 25 q 721 -12 749 -10 q 669 -14 693 -14 q 490 158 496 -14 l 481 161 q 338 26 413 67 q 199 -14 264 -14 z "},"Ù":{"ha":903,"x_min":8,"x_max":972,"o":"m 199 -14 q 122 11 158 -14 q 58 77 85 36 q 20 167 32 118 q 18 263 8 215 q 65 438 36 349 q 122 624 94 528 q 164 821 150 719 q 175 908 171 871 q 179 972 179 946 q 238 981 203 976 q 307 986 272 986 q 460 928 411 986 q 485 764 508 871 q 313 275 435 529 q 326 272 318 274 q 343 269 333 269 q 528 378 439 269 q 589 570 556 471 q 646 772 622 669 q 667 976 669 874 q 724 983 690 981 q 806 986 757 986 q 929 941 886 986 q 960 822 972 896 q 919 637 943 719 q 867 478 894 554 q 815 319 840 401 q 771 136 790 238 q 765 63 765 101 q 768 -4 765 25 q 721 -12 749 -10 q 669 -14 693 -14 q 490 158 496 -14 l 481 161 q 338 26 413 67 q 199 -14 264 -14 m 661 1313 q 689 1192 668 1244 q 757 1078 710 1139 q 676 1063 722 1067 q 600 1058 631 1058 q 542 1064 567 1058 q 503 1078 517 1069 q 435 1144 460 1106 q 400 1232 410 1182 q 408 1264 397 1247 q 440 1288 418 1281 q 553 1308 493 1304 q 661 1313 614 1313 z "},"Ú":{"ha":903,"x_min":8,"x_max":972,"o":"m 199 -14 q 122 11 158 -14 q 58 77 85 36 q 20 167 32 118 q 18 263 8 215 q 65 438 36 349 q 122 624 94 528 q 164 821 150 719 q 175 908 171 871 q 179 972 179 946 q 238 981 203 976 q 307 986 272 986 q 460 928 411 986 q 485 764 508 871 q 313 275 435 529 q 326 272 318 274 q 343 269 333 269 q 528 378 439 269 q 589 570 556 471 q 646 772 622 669 q 667 976 669 874 q 724 983 690 981 q 806 986 757 986 q 929 941 886 986 q 960 822 972 896 q 919 637 943 719 q 867 478 894 554 q 815 319 840 401 q 771 136 790 238 q 765 63 765 101 q 768 -4 765 25 q 721 -12 749 -10 q 669 -14 693 -14 q 490 158 496 -14 l 481 161 q 338 26 413 67 q 199 -14 264 -14 m 661 1313 q 780 1308 722 1311 q 882 1288 838 1304 q 904 1264 903 1281 q 894 1232 906 1247 q 815 1135 854 1169 q 728 1078 776 1101 q 676 1064 710 1069 q 608 1058 642 1058 q 535 1063 578 1058 q 460 1078 492 1067 q 547 1152 513 1119 q 608 1222 582 1185 q 661 1313 633 1260 z "},"Û":{"ha":903,"x_min":8,"x_max":972,"o":"m 199 -14 q 122 11 158 -14 q 58 77 85 36 q 20 167 32 118 q 18 263 8 215 q 65 438 36 349 q 122 624 94 528 q 164 821 150 719 q 175 908 171 871 q 179 972 179 946 q 238 981 203 976 q 307 986 272 986 q 460 928 411 986 q 485 764 508 871 q 313 275 435 529 q 326 272 318 274 q 343 269 333 269 q 528 378 439 269 q 589 570 556 471 q 646 772 622 669 q 667 976 669 874 q 724 983 690 981 q 806 986 757 986 q 929 941 886 986 q 960 822 972 896 q 919 637 943 719 q 867 478 894 554 q 815 319 840 401 q 771 136 790 238 q 765 63 765 101 q 768 -4 765 25 q 721 -12 749 -10 q 669 -14 693 -14 q 490 158 496 -14 l 481 161 q 338 26 413 67 q 199 -14 264 -14 m 593 1335 q 628 1339 608 1338 q 658 1340 649 1340 q 731 1332 701 1340 q 794 1288 761 1324 q 860 1199 831 1249 q 910 1083 890 1149 q 769 1044 833 1044 q 728 1057 742 1044 q 699 1094 714 1069 q 677 1128 689 1111 q 647 1163 665 1144 l 639 1163 q 566 1101 594 1131 q 519 1050 538 1072 l 511 1050 q 398 1059 436 1050 q 347 1082 360 1068 q 339 1113 335 1096 q 353 1147 342 1126 q 388 1190 365 1167 q 485 1272 428 1232 q 593 1335 542 1311 z "},"Ü":{"ha":903,"x_min":8,"x_max":972,"o":"m 199 -14 q 122 11 158 -14 q 58 77 85 36 q 20 167 32 118 q 18 263 8 215 q 65 438 36 349 q 122 624 94 528 q 164 821 150 719 q 175 908 171 871 q 179 972 179 946 q 238 981 203 976 q 307 986 272 986 q 460 928 411 986 q 485 764 508 871 q 313 275 435 529 q 326 272 318 274 q 343 269 333 269 q 528 378 439 269 q 589 570 556 471 q 646 772 622 669 q 667 976 669 874 q 724 983 690 981 q 806 986 757 986 q 929 941 886 986 q 960 822 972 896 q 919 637 943 719 q 867 478 894 554 q 815 319 840 401 q 771 136 790 238 q 765 63 765 101 q 768 -4 765 25 q 721 -12 749 -10 q 669 -14 693 -14 q 490 158 496 -14 l 481 161 q 338 26 413 67 q 199 -14 264 -14 m 417 1297 q 465 1301 440 1300 q 507 1301 489 1301 q 601 1263 581 1301 q 600 1154 621 1224 l 583 1097 q 536 1092 561 1093 q 492 1092 511 1092 q 401 1124 422 1092 q 400 1232 381 1156 l 417 1297 m 713 1297 q 760 1301 736 1300 q 803 1301 785 1301 q 897 1263 876 1301 q 896 1154 917 1224 l 879 1097 q 832 1092 857 1093 q 788 1092 807 1092 q 697 1124 718 1092 q 696 1232 676 1156 l 713 1297 z "},"Ũ":{"ha":903,"x_min":8,"x_max":972,"o":"m 199 -14 q 122 11 158 -14 q 58 77 85 36 q 20 167 32 118 q 18 263 8 215 q 65 438 36 349 q 122 624 94 528 q 164 821 150 719 q 175 908 171 871 q 179 972 179 946 q 238 981 203 976 q 307 986 272 986 q 460 928 411 986 q 485 764 508 871 q 313 275 435 529 q 326 272 318 274 q 343 269 333 269 q 528 378 439 269 q 589 570 556 471 q 646 772 622 669 q 667 976 669 874 q 724 983 690 981 q 806 986 757 986 q 929 941 886 986 q 960 822 972 896 q 919 637 943 719 q 867 478 894 554 q 815 319 840 401 q 771 136 790 238 q 765 63 765 101 q 768 -4 765 25 q 721 -12 749 -10 q 669 -14 693 -14 q 490 158 496 -14 l 481 161 q 338 26 413 67 q 199 -14 264 -14 m 797 1268 q 865 1278 839 1268 q 926 1321 892 1289 l 935 1321 q 942 1271 942 1297 q 938 1211 943 1244 q 914 1126 929 1157 q 872 1074 899 1094 q 827 1049 850 1056 q 776 1043 804 1043 q 678 1061 722 1043 q 591 1097 633 1079 q 500 1115 549 1115 q 431 1103 458 1115 q 371 1063 403 1090 l 363 1063 q 360 1172 351 1110 q 383 1256 367 1225 q 425 1307 399 1286 q 525 1340 467 1340 q 622 1322 578 1340 q 707 1286 665 1304 q 797 1268 749 1268 z "},"Ū":{"ha":903,"x_min":8,"x_max":972,"o":"m 199 -14 q 122 11 158 -14 q 58 77 85 36 q 20 167 32 118 q 18 263 8 215 q 65 438 36 349 q 122 624 94 528 q 164 821 150 719 q 175 908 171 871 q 179 972 179 946 q 238 981 203 976 q 307 986 272 986 q 460 928 411 986 q 485 764 508 871 q 313 275 435 529 q 326 272 318 274 q 343 269 333 269 q 528 378 439 269 q 589 570 556 471 q 646 772 622 669 q 667 976 669 874 q 724 983 690 981 q 806 986 757 986 q 929 941 886 986 q 960 822 972 896 q 919 637 943 719 q 867 478 894 554 q 815 319 840 401 q 771 136 790 238 q 765 63 765 101 q 768 -4 765 25 q 721 -12 749 -10 q 669 -14 693 -14 q 490 158 496 -14 l 481 161 q 338 26 413 67 q 199 -14 264 -14 m 382 1296 l 857 1296 q 936 1261 915 1296 q 942 1176 957 1226 q 919 1119 931 1139 q 897 1083 908 1099 l 500 1083 q 376 1115 407 1083 q 360 1222 346 1146 q 382 1296 368 1267 z "},"Ŭ":{"ha":903,"x_min":8,"x_max":972,"o":"m 199 -14 q 122 11 158 -14 q 58 77 85 36 q 20 167 32 118 q 18 263 8 215 q 65 438 36 349 q 122 624 94 528 q 164 821 150 719 q 175 908 171 871 q 179 972 179 946 q 238 981 203 976 q 307 986 272 986 q 460 928 411 986 q 485 764 508 871 q 313 275 435 529 q 326 272 318 274 q 343 269 333 269 q 528 378 439 269 q 589 570 556 471 q 646 772 622 669 q 667 976 669 874 q 724 983 690 981 q 806 986 757 986 q 929 941 886 986 q 960 822 972 896 q 919 637 943 719 q 867 478 894 554 q 815 319 840 401 q 771 136 790 238 q 765 63 765 101 q 768 -4 765 25 q 721 -12 749 -10 q 669 -14 693 -14 q 490 158 496 -14 l 481 161 q 338 26 413 67 q 199 -14 264 -14 m 775 1319 q 860 1314 824 1319 q 917 1297 897 1308 q 926 1254 938 1286 q 822 1112 892 1153 q 651 1071 751 1071 l 643 1071 q 476 1122 538 1071 q 404 1254 414 1174 q 410 1280 403 1269 q 429 1296 417 1290 q 488 1315 457 1310 q 567 1319 519 1319 q 594 1264 574 1282 q 651 1242 614 1246 q 726 1262 697 1243 q 775 1319 756 1281 z "},"Ů":{"ha":903,"x_min":8,"x_max":972,"o":"m 199 -14 q 122 11 158 -14 q 58 77 85 36 q 20 167 32 118 q 18 263 8 215 q 65 438 36 349 q 122 624 94 528 q 164 821 150 719 q 175 908 171 871 q 179 972 179 946 q 238 981 203 976 q 307 986 272 986 q 460 928 411 986 q 485 764 508 871 q 313 275 435 529 q 326 272 318 274 q 343 269 333 269 q 528 378 439 269 q 589 570 556 471 q 646 772 622 669 q 667 976 669 874 q 724 983 690 981 q 806 986 757 986 q 929 941 886 986 q 960 822 972 896 q 919 637 943 719 q 867 478 894 554 q 815 319 840 401 q 771 136 790 238 q 765 63 765 101 q 768 -4 765 25 q 721 -12 749 -10 q 669 -14 693 -14 q 490 158 496 -14 l 481 161 q 338 26 413 67 q 199 -14 264 -14 m 674 1432 q 810 1401 757 1432 q 885 1322 864 1371 q 889 1214 906 1272 l 886 1204 q 802 1086 864 1124 q 638 1049 740 1049 q 464 1103 519 1049 q 428 1257 408 1158 l 429 1264 q 505 1385 444 1338 q 674 1432 565 1432 m 679 1315 q 624 1297 647 1315 q 594 1243 601 1278 l 593 1235 q 590 1206 590 1218 q 639 1189 607 1189 q 692 1202 671 1189 q 719 1246 714 1215 l 721 1253 q 715 1308 728 1286 q 698 1314 707 1313 q 679 1315 689 1315 z "},"Ű":{"ha":903,"x_min":8,"x_max":1072,"o":"m 481 1311 q 599 1306 542 1310 q 701 1286 657 1303 q 724 1263 722 1279 q 714 1231 725 1246 q 635 1134 674 1168 q 547 1076 596 1100 q 495 1063 529 1068 q 428 1057 461 1057 q 354 1061 397 1057 q 279 1076 311 1065 q 366 1151 332 1118 q 426 1221 400 1183 q 481 1311 453 1258 m 828 1311 q 947 1306 889 1310 q 1049 1286 1004 1303 q 1071 1263 1069 1279 q 1061 1231 1072 1246 q 982 1134 1021 1168 q 894 1076 943 1100 q 842 1063 876 1068 q 775 1057 808 1057 q 701 1061 744 1057 q 626 1076 658 1065 q 713 1151 679 1118 q 774 1221 747 1183 q 828 1311 800 1258 m 199 -14 q 122 11 158 -14 q 58 77 85 36 q 20 167 32 118 q 18 263 8 215 q 65 438 36 349 q 122 624 94 528 q 164 821 150 719 q 175 908 171 871 q 179 972 179 946 q 238 981 203 976 q 307 986 272 986 q 460 928 411 986 q 485 764 508 871 q 313 275 435 529 q 326 272 318 274 q 343 269 333 269 q 528 378 439 269 q 589 570 556 471 q 646 772 622 669 q 667 976 669 874 q 724 983 690 981 q 806 986 757 986 q 929 941 886 986 q 960 822 972 896 q 919 637 943 719 q 867 478 894 554 q 815 319 840 401 q 771 136 790 238 q 765 63 765 101 q 768 -4 765 25 q 721 -12 749 -10 q 669 -14 693 -14 q 490 158 496 -14 l 481 161 q 338 26 413 67 q 199 -14 264 -14 z "},"Ų":{"ha":903,"x_min":8,"x_max":972,"o":"m 199 -14 q 122 11 158 -14 q 58 77 85 36 q 20 167 32 118 q 18 263 8 215 q 65 438 36 349 q 122 624 94 528 q 164 821 150 719 q 175 908 171 871 q 179 972 179 946 q 238 981 203 976 q 307 986 272 986 q 460 928 411 986 q 485 764 508 871 q 313 275 435 529 q 326 272 318 274 q 343 269 333 269 q 528 378 439 269 q 589 570 556 471 q 646 772 622 669 q 667 976 669 874 q 724 983 690 981 q 806 986 757 986 q 929 941 886 986 q 960 822 972 896 q 919 637 943 719 q 867 478 894 554 q 815 319 840 401 q 771 136 790 238 q 765 63 765 101 q 768 -4 765 25 q 742 -24 763 -21 q 660 -49 682 -35 q 633 -82 639 -62 q 640 -114 628 -104 q 675 -124 653 -124 q 736 -96 714 -124 l 744 -96 q 755 -142 753 -117 q 750 -200 757 -167 q 689 -312 736 -272 q 560 -351 642 -351 q 419 -310 471 -351 q 382 -167 368 -268 q 434 -55 392 -103 q 547 21 476 -7 q 490 158 493 64 l 481 161 q 338 26 413 67 q 199 -14 264 -14 z "},"Ư":{"ha":903,"x_min":8,"x_max":1119,"o":"m 199 -14 q 122 11 158 -14 q 58 77 85 36 q 20 167 32 118 q 18 263 8 215 q 65 438 36 349 q 122 624 94 528 q 164 821 150 719 q 175 908 171 871 q 179 972 179 946 q 238 981 203 976 q 307 986 272 986 q 460 928 411 986 q 485 764 508 871 q 313 275 435 529 q 326 272 318 274 q 343 269 333 269 q 528 378 439 269 q 589 570 556 471 q 646 772 622 669 q 667 976 669 874 q 724 983 690 981 q 806 986 757 986 q 897 965 858 986 q 908 1001 903 979 q 913 1047 914 1022 q 904 1096 911 1072 q 952 1106 928 1103 q 1007 1108 976 1108 q 1094 1087 1068 1108 q 1117 1025 1119 1065 q 1085 928 1113 969 q 1014 861 1057 888 q 961 835 989 846 q 960 822 961 829 q 919 637 943 719 q 867 478 894 554 q 815 319 840 401 q 771 136 790 238 q 765 63 765 101 q 768 -4 765 25 q 721 -12 749 -10 q 669 -14 693 -14 q 490 158 496 -14 l 481 161 q 338 26 413 67 q 199 -14 264 -14 z "},"Ȕ":{"ha":903,"x_min":8,"x_max":972,"o":"m 493 1314 q 521 1193 500 1246 q 589 1079 542 1140 q 508 1064 554 1068 q 432 1060 463 1060 q 374 1065 399 1060 q 335 1079 349 1071 q 267 1145 292 1107 q 232 1233 242 1183 q 240 1265 229 1249 q 272 1289 250 1282 q 385 1310 325 1306 q 493 1314 446 1314 m 826 1314 q 854 1193 833 1246 q 922 1079 875 1140 q 842 1064 888 1068 q 765 1060 796 1060 q 707 1065 732 1060 q 668 1079 682 1071 q 600 1145 625 1107 q 565 1233 575 1183 q 573 1265 563 1249 q 606 1289 583 1282 q 719 1310 658 1306 q 826 1314 779 1314 m 199 -14 q 122 11 158 -14 q 58 77 85 36 q 20 167 32 118 q 18 263 8 215 q 65 438 36 349 q 122 624 94 528 q 164 821 150 719 q 175 908 171 871 q 179 972 179 946 q 238 981 203 976 q 307 986 272 986 q 460 928 411 986 q 485 764 508 871 q 313 275 435 529 q 326 272 318 274 q 343 269 333 269 q 528 378 439 269 q 589 570 556 471 q 646 772 622 669 q 667 976 669 874 q 724 983 690 981 q 806 986 757 986 q 929 941 886 986 q 960 822 972 896 q 919 637 943 719 q 867 478 894 554 q 815 319 840 401 q 771 136 790 238 q 765 63 765 101 q 768 -4 765 25 q 721 -12 749 -10 q 669 -14 693 -14 q 490 158 496 -14 l 481 161 q 338 26 413 67 q 199 -14 264 -14 z "},"Ȗ":{"ha":903,"x_min":8,"x_max":972,"o":"m 199 -14 q 122 11 158 -14 q 58 77 85 36 q 20 167 32 118 q 18 263 8 215 q 65 438 36 349 q 122 624 94 528 q 164 821 150 719 q 175 908 171 871 q 179 972 179 946 q 238 981 203 976 q 307 986 272 986 q 460 928 411 986 q 485 764 508 871 q 313 275 435 529 q 326 272 318 274 q 343 269 333 269 q 528 378 439 269 q 589 570 556 471 q 646 772 622 669 q 667 976 669 874 q 724 983 690 981 q 806 986 757 986 q 929 941 886 986 q 960 822 972 896 q 919 637 943 719 q 867 478 894 554 q 815 319 840 401 q 771 136 790 238 q 765 63 765 101 q 768 -4 765 25 q 721 -12 749 -10 q 669 -14 693 -14 q 490 158 496 -14 l 481 161 q 338 26 413 67 q 199 -14 264 -14 m 525 1085 q 440 1090 478 1085 q 383 1107 403 1096 q 374 1150 363 1118 q 478 1292 408 1251 q 649 1333 549 1333 l 657 1333 q 824 1283 763 1333 q 896 1150 886 1232 q 891 1126 899 1136 q 871 1108 883 1115 q 813 1090 844 1094 q 733 1085 782 1085 q 707 1140 728 1122 q 649 1163 686 1158 q 574 1142 603 1161 q 525 1085 544 1124 z "},"Ṹ":{"ha":903,"x_min":8,"x_max":978,"o":"m 199 -14 q 122 11 158 -14 q 58 77 85 36 q 20 167 32 118 q 18 263 8 215 q 65 438 36 349 q 122 624 94 528 q 164 821 150 719 q 175 908 171 871 q 179 972 179 946 q 238 981 203 976 q 307 986 272 986 q 460 928 411 986 q 485 764 508 871 q 313 275 435 529 q 326 272 318 274 q 343 269 333 269 q 528 378 439 269 q 589 570 556 471 q 646 772 622 669 q 667 976 669 874 q 724 983 690 981 q 806 986 757 986 q 929 941 886 986 q 960 822 972 896 q 919 637 943 719 q 867 478 894 554 q 815 319 840 401 q 771 136 790 238 q 765 63 765 101 q 768 -4 765 25 q 721 -12 749 -10 q 669 -14 693 -14 q 490 158 496 -14 l 481 161 q 338 26 413 67 q 199 -14 264 -14 m 797 1268 q 865 1278 839 1268 q 926 1321 892 1289 l 935 1321 q 942 1271 942 1297 q 938 1211 943 1244 q 914 1126 929 1157 q 872 1074 899 1094 q 827 1049 850 1056 q 776 1043 804 1043 q 678 1061 722 1043 q 591 1097 633 1079 q 500 1115 549 1115 q 431 1103 458 1115 q 371 1063 403 1090 l 363 1063 q 360 1172 351 1110 q 383 1256 367 1225 q 425 1307 399 1286 q 525 1340 467 1340 q 622 1322 578 1340 q 707 1286 665 1304 q 797 1268 749 1268 m 733 1601 q 852 1597 794 1600 q 954 1576 910 1593 q 976 1553 975 1569 q 967 1521 978 1536 q 888 1424 926 1458 q 800 1367 849 1390 q 748 1353 782 1358 q 681 1347 714 1347 q 607 1351 650 1347 q 532 1367 564 1356 q 619 1441 585 1408 q 680 1511 654 1474 q 733 1601 706 1549 z "},"Ṻ":{"ha":903,"x_min":8,"x_max":985,"o":"m 199 -14 q 122 11 158 -14 q 58 77 85 36 q 20 167 32 118 q 18 263 8 215 q 65 438 36 349 q 122 624 94 528 q 164 821 150 719 q 175 908 171 871 q 179 972 179 946 q 238 981 203 976 q 307 986 272 986 q 460 928 411 986 q 485 764 508 871 q 313 275 435 529 q 326 272 318 274 q 343 269 333 269 q 528 378 439 269 q 589 570 556 471 q 646 772 622 669 q 667 976 669 874 q 724 983 690 981 q 806 986 757 986 q 929 941 886 986 q 960 822 972 896 q 919 637 943 719 q 867 478 894 554 q 815 319 840 401 q 771 136 790 238 q 765 63 765 101 q 768 -4 765 25 q 721 -12 749 -10 q 669 -14 693 -14 q 490 158 496 -14 l 481 161 q 338 26 413 67 q 199 -14 264 -14 m 382 1296 l 857 1296 q 936 1261 915 1296 q 942 1176 957 1226 q 919 1119 931 1139 q 897 1083 908 1099 l 500 1083 q 376 1115 407 1083 q 360 1222 346 1146 q 382 1296 368 1267 m 485 1574 q 533 1577 508 1576 q 575 1578 557 1578 q 669 1539 649 1578 q 668 1431 689 1500 l 651 1374 q 604 1369 629 1369 q 560 1368 579 1368 q 469 1400 490 1368 q 468 1508 449 1432 l 485 1574 m 781 1574 q 828 1577 804 1576 q 871 1578 853 1578 q 965 1539 944 1578 q 964 1431 985 1500 l 947 1374 q 900 1369 925 1369 q 856 1368 875 1368 q 765 1400 786 1368 q 764 1508 744 1432 l 781 1574 z "},"Ụ":{"ha":903,"x_min":8,"x_max":972,"o":"m 199 -14 q 122 11 158 -14 q 58 77 85 36 q 20 167 32 118 q 18 263 8 215 q 65 438 36 349 q 122 624 94 528 q 164 821 150 719 q 175 908 171 871 q 179 972 179 946 q 238 981 203 976 q 307 986 272 986 q 460 928 411 986 q 485 764 508 871 q 313 275 435 529 q 326 272 318 274 q 343 269 333 269 q 528 378 439 269 q 589 570 556 471 q 646 772 622 669 q 667 976 669 874 q 724 983 690 981 q 806 986 757 986 q 929 941 886 986 q 960 822 972 896 q 919 637 943 719 q 867 478 894 554 q 815 319 840 401 q 771 136 790 238 q 765 63 765 101 q 768 -4 765 25 q 721 -12 749 -10 q 669 -14 693 -14 q 490 158 496 -14 l 481 161 q 338 26 413 67 q 199 -14 264 -14 m 194 -106 q 252 -99 222 -101 q 306 -97 282 -97 q 413 -131 386 -97 q 421 -243 440 -165 l 407 -299 q 351 -305 381 -303 q 297 -307 321 -307 q 188 -275 215 -307 q 183 -151 161 -243 l 194 -106 z "},"Ủ":{"ha":903,"x_min":8,"x_max":972,"o":"m 199 -14 q 122 11 158 -14 q 58 77 85 36 q 20 167 32 118 q 18 263 8 215 q 65 438 36 349 q 122 624 94 528 q 164 821 150 719 q 175 908 171 871 q 179 972 179 946 q 238 981 203 976 q 307 986 272 986 q 460 928 411 986 q 485 764 508 871 q 313 275 435 529 q 326 272 318 274 q 343 269 333 269 q 528 378 439 269 q 589 570 556 471 q 646 772 622 669 q 667 976 669 874 q 724 983 690 981 q 806 986 757 986 q 929 941 886 986 q 960 822 972 896 q 919 637 943 719 q 867 478 894 554 q 815 319 840 401 q 771 136 790 238 q 765 63 765 101 q 768 -4 765 25 q 721 -12 749 -10 q 669 -14 693 -14 q 490 158 496 -14 l 481 161 q 338 26 413 67 q 199 -14 264 -14 m 521 1089 q 547 1119 526 1110 q 608 1139 567 1129 q 672 1157 654 1150 q 690 1171 689 1164 l 690 1178 q 671 1180 682 1179 q 643 1181 660 1181 q 517 1158 582 1181 l 508 1158 q 499 1190 500 1172 q 500 1229 497 1207 q 557 1314 508 1282 q 613 1338 579 1329 q 693 1347 646 1347 q 801 1326 760 1347 q 860 1272 843 1304 q 869 1206 876 1239 l 868 1199 q 843 1145 863 1165 q 785 1104 824 1125 q 738 1074 751 1086 q 714 1044 724 1061 q 617 1035 667 1035 q 542 1049 569 1035 q 521 1089 515 1063 z "},"Ứ":{"ha":903,"x_min":8,"x_max":1119,"o":"m 682 1313 q 765 1308 731 1313 q 832 1293 799 1304 q 847 1206 886 1275 q 792 1132 825 1165 q 722 1079 758 1099 q 678 1063 700 1067 q 632 1058 656 1058 q 511 1081 569 1058 q 601 1181 563 1128 q 682 1313 640 1233 m 199 -14 q 122 11 158 -14 q 58 77 85 36 q 20 167 32 118 q 18 263 8 215 q 65 438 36 349 q 122 624 94 528 q 164 821 150 719 q 175 908 171 871 q 179 972 179 946 q 238 981 203 976 q 307 986 272 986 q 460 928 411 986 q 485 764 508 871 q 313 275 435 529 q 326 272 318 274 q 343 269 333 269 q 528 378 439 269 q 589 570 556 471 q 646 772 622 669 q 667 976 669 874 q 724 983 690 981 q 806 986 757 986 q 897 965 858 986 q 908 1001 903 979 q 913 1047 914 1022 q 904 1096 911 1072 q 952 1106 928 1103 q 1007 1108 976 1108 q 1094 1087 1068 1108 q 1117 1025 1119 1065 q 1085 928 1113 969 q 1014 861 1057 888 q 961 835 989 846 q 960 822 961 829 q 919 637 943 719 q 867 478 894 554 q 815 319 840 401 q 771 136 790 238 q 765 63 765 101 q 768 -4 765 25 q 721 -12 749 -10 q 669 -14 693 -14 q 490 158 496 -14 l 481 161 q 338 26 413 67 q 199 -14 264 -14 z "},"Ừ":{"ha":903,"x_min":8,"x_max":1119,"o":"m 656 1310 q 674 1181 661 1235 q 710 1075 686 1126 q 660 1062 685 1065 q 604 1058 635 1058 q 562 1063 582 1058 q 525 1079 542 1067 q 476 1132 499 1099 q 450 1206 454 1165 q 460 1260 446 1238 q 508 1293 474 1283 q 574 1306 540 1301 q 656 1310 608 1310 m 199 -14 q 122 11 158 -14 q 58 77 85 36 q 20 167 32 118 q 18 263 8 215 q 65 438 36 349 q 122 624 94 528 q 164 821 150 719 q 175 908 171 871 q 179 972 179 946 q 238 981 203 976 q 307 986 272 986 q 460 928 411 986 q 485 764 508 871 q 313 275 435 529 q 326 272 318 274 q 343 269 333 269 q 528 378 439 269 q 589 570 556 471 q 646 772 622 669 q 667 976 669 874 q 724 983 690 981 q 806 986 757 986 q 897 965 858 986 q 908 1001 903 979 q 913 1047 914 1022 q 904 1096 911 1072 q 952 1106 928 1103 q 1007 1108 976 1108 q 1094 1087 1068 1108 q 1117 1025 1119 1065 q 1085 928 1113 969 q 1014 861 1057 888 q 961 835 989 846 q 960 822 961 829 q 919 637 943 719 q 867 478 894 554 q 815 319 840 401 q 771 136 790 238 q 765 63 765 101 q 768 -4 765 25 q 721 -12 749 -10 q 669 -14 693 -14 q 490 158 496 -14 l 481 161 q 338 26 413 67 q 199 -14 264 -14 z "},"Ử":{"ha":903,"x_min":8,"x_max":1119,"o":"m 521 1089 q 547 1119 526 1110 q 608 1139 567 1129 q 672 1157 654 1150 q 690 1171 689 1164 l 690 1178 q 671 1180 682 1179 q 643 1181 660 1181 q 517 1158 582 1181 l 508 1158 q 499 1190 500 1172 q 500 1229 497 1207 q 557 1314 508 1282 q 613 1338 579 1329 q 693 1347 646 1347 q 801 1326 760 1347 q 860 1272 843 1304 q 869 1206 876 1239 l 868 1199 q 843 1145 863 1165 q 785 1104 824 1125 q 738 1074 751 1086 q 714 1044 724 1061 q 617 1035 667 1035 q 542 1049 569 1035 q 521 1089 515 1063 m 199 -14 q 122 11 158 -14 q 58 77 85 36 q 20 167 32 118 q 18 263 8 215 q 65 438 36 349 q 122 624 94 528 q 164 821 150 719 q 175 908 171 871 q 179 972 179 946 q 238 981 203 976 q 307 986 272 986 q 460 928 411 986 q 485 764 508 871 q 313 275 435 529 q 326 272 318 274 q 343 269 333 269 q 528 378 439 269 q 589 570 556 471 q 646 772 622 669 q 667 976 669 874 q 724 983 690 981 q 806 986 757 986 q 897 965 858 986 q 908 1001 903 979 q 913 1047 914 1022 q 904 1096 911 1072 q 952 1106 928 1103 q 1007 1108 976 1108 q 1094 1087 1068 1108 q 1117 1025 1119 1065 q 1085 928 1113 969 q 1014 861 1057 888 q 961 835 989 846 q 960 822 961 829 q 919 637 943 719 q 867 478 894 554 q 815 319 840 401 q 771 136 790 238 q 765 63 765 101 q 768 -4 765 25 q 721 -12 749 -10 q 669 -14 693 -14 q 490 158 496 -14 l 481 161 q 338 26 413 67 q 199 -14 264 -14 z "},"Ữ":{"ha":903,"x_min":8,"x_max":1119,"o":"m 713 1251 q 769 1263 744 1251 q 828 1304 793 1274 l 836 1304 q 832 1194 844 1261 q 810 1128 825 1156 q 769 1079 796 1100 q 674 1046 728 1046 q 600 1064 632 1046 q 534 1100 568 1082 q 451 1118 500 1118 q 397 1105 421 1118 q 344 1065 372 1092 l 336 1065 q 342 1175 329 1111 q 363 1241 349 1213 q 403 1290 376 1269 q 497 1324 444 1324 q 577 1306 544 1324 q 641 1269 610 1288 q 713 1251 672 1251 m 199 -14 q 122 11 158 -14 q 58 77 85 36 q 20 167 32 118 q 18 263 8 215 q 65 438 36 349 q 122 624 94 528 q 164 821 150 719 q 175 908 171 871 q 179 972 179 946 q 238 981 203 976 q 307 986 272 986 q 460 928 411 986 q 485 764 508 871 q 313 275 435 529 q 326 272 318 274 q 343 269 333 269 q 528 378 439 269 q 589 570 556 471 q 646 772 622 669 q 667 976 669 874 q 724 983 690 981 q 806 986 757 986 q 897 965 858 986 q 908 1001 903 979 q 913 1047 914 1022 q 904 1096 911 1072 q 952 1106 928 1103 q 1007 1108 976 1108 q 1094 1087 1068 1108 q 1117 1025 1119 1065 q 1085 928 1113 969 q 1014 861 1057 888 q 961 835 989 846 q 960 822 961 829 q 919 637 943 719 q 867 478 894 554 q 815 319 840 401 q 771 136 790 238 q 765 63 765 101 q 768 -4 765 25 q 721 -12 749 -10 q 669 -14 693 -14 q 490 158 496 -14 l 481 161 q 338 26 413 67 q 199 -14 264 -14 z "},"Ự":{"ha":903,"x_min":8,"x_max":1119,"o":"m 199 -14 q 122 11 158 -14 q 58 77 85 36 q 20 167 32 118 q 18 263 8 215 q 65 438 36 349 q 122 624 94 528 q 164 821 150 719 q 175 908 171 871 q 179 972 179 946 q 238 981 203 976 q 307 986 272 986 q 460 928 411 986 q 485 764 508 871 q 313 275 435 529 q 326 272 318 274 q 343 269 333 269 q 528 378 439 269 q 589 570 556 471 q 646 772 622 669 q 667 976 669 874 q 724 983 690 981 q 806 986 757 986 q 897 965 858 986 q 908 1001 903 979 q 913 1047 914 1022 q 904 1096 911 1072 q 952 1106 928 1103 q 1007 1108 976 1108 q 1094 1087 1068 1108 q 1117 1025 1119 1065 q 1085 928 1113 969 q 1014 861 1057 888 q 961 835 989 846 q 960 822 961 829 q 919 637 943 719 q 867 478 894 554 q 815 319 840 401 q 771 136 790 238 q 765 63 765 101 q 768 -4 765 25 q 721 -12 749 -10 q 669 -14 693 -14 q 490 158 496 -14 l 481 161 q 338 26 413 67 q 199 -14 264 -14 m 193 -106 q 251 -99 221 -101 q 304 -97 281 -97 q 412 -131 385 -97 q 419 -243 439 -165 l 406 -299 q 349 -305 379 -303 q 296 -307 319 -307 q 187 -275 214 -307 q 182 -151 160 -243 l 193 -106 z "},"V":{"ha":903,"x_min":110,"x_max":1001,"o":"m 282 986 q 430 941 388 986 q 458 810 472 896 q 426 582 438 676 q 415 416 415 488 q 425 281 414 344 l 438 279 q 576 540 507 374 q 713 974 646 706 q 762 983 733 979 q 817 986 790 986 q 955 945 908 986 q 983 838 1001 904 q 767 310 899 521 q 483 -3 636 100 q 435 -11 460 -8 q 386 -14 410 -14 q 297 -1 347 -14 q 215 51 247 13 q 139 209 168 110 q 111 452 110 308 q 154 788 113 596 q 176 906 171 861 q 179 976 182 950 q 227 983 199 981 q 282 986 256 986 z "},"W":{"ha":1319,"x_min":72,"x_max":1392,"o":"m 174 972 q 233 987 204 982 q 301 992 261 992 q 437 934 399 992 q 447 772 475 876 q 383 503 408 624 q 354 292 357 383 l 363 290 q 535 594 461 422 q 649 972 610 767 l 719 972 q 852 950 811 972 q 901 891 893 928 q 900 810 908 854 q 860 530 871 654 q 863 294 850 406 l 871 293 q 1009 603 954 438 q 1090 972 1064 768 q 1147 985 1113 979 q 1224 992 1181 992 q 1357 944 1322 992 q 1367 794 1392 897 q 1290 542 1335 664 q 1194 315 1246 419 q 1091 129 1143 210 q 992 0 1039 49 q 937 -10 969 -6 q 864 -14 904 -14 q 787 -3 821 -14 q 722 38 753 7 q 667 156 688 72 q 649 361 646 240 l 642 363 q 524 151 588 242 q 396 0 460 61 q 338 -10 364 -6 q 275 -14 313 -14 q 103 83 153 -14 q 80 155 88 114 q 76 267 72 196 q 99 454 79 338 q 157 753 118 571 q 178 890 176 839 q 174 972 181 942 z "},"Ŵ":{"ha":1319,"x_min":72,"x_max":1392,"o":"m 174 972 q 233 987 204 982 q 301 992 261 992 q 437 934 399 992 q 447 772 475 876 q 383 503 408 624 q 354 292 357 383 l 363 290 q 535 594 461 422 q 649 972 610 767 l 719 972 q 852 950 811 972 q 901 891 893 928 q 900 810 908 854 q 860 530 871 654 q 863 294 850 406 l 871 293 q 1009 603 954 438 q 1090 972 1064 768 q 1147 985 1113 979 q 1224 992 1181 992 q 1357 944 1322 992 q 1367 794 1392 897 q 1290 542 1335 664 q 1194 315 1246 419 q 1091 129 1143 210 q 992 0 1039 49 q 937 -10 969 -6 q 864 -14 904 -14 q 787 -3 821 -14 q 722 38 753 7 q 667 156 688 72 q 649 361 646 240 l 642 363 q 524 151 588 242 q 396 0 460 61 q 338 -10 364 -6 q 275 -14 313 -14 q 103 83 153 -14 q 80 155 88 114 q 76 267 72 196 q 99 454 79 338 q 157 753 118 571 q 178 890 176 839 q 174 972 181 942 m 768 1333 q 803 1338 783 1336 q 833 1339 824 1339 q 906 1331 876 1339 q 969 1286 936 1322 q 1035 1197 1006 1247 q 1085 1082 1065 1147 q 944 1043 1008 1043 q 903 1056 917 1043 q 874 1093 889 1068 q 852 1126 864 1110 q 822 1161 840 1143 l 814 1161 q 741 1100 769 1129 q 694 1049 713 1071 l 686 1049 q 573 1058 611 1049 q 522 1081 535 1067 q 514 1111 510 1094 q 528 1145 517 1125 q 563 1189 540 1165 q 660 1270 603 1231 q 768 1333 717 1310 z "},"Ẁ":{"ha":1319,"x_min":72,"x_max":1392,"o":"m 174 972 q 233 987 204 982 q 301 992 261 992 q 437 934 399 992 q 447 772 475 876 q 383 503 408 624 q 354 292 357 383 l 363 290 q 535 594 461 422 q 649 972 610 767 l 719 972 q 852 950 811 972 q 901 891 893 928 q 900 810 908 854 q 860 530 871 654 q 863 294 850 406 l 871 293 q 1009 603 954 438 q 1090 972 1064 768 q 1147 985 1113 979 q 1224 992 1181 992 q 1357 944 1322 992 q 1367 794 1392 897 q 1290 542 1335 664 q 1194 315 1246 419 q 1091 129 1143 210 q 992 0 1039 49 q 937 -10 969 -6 q 864 -14 904 -14 q 787 -3 821 -14 q 722 38 753 7 q 667 156 688 72 q 649 361 646 240 l 642 363 q 524 151 588 242 q 396 0 460 61 q 338 -10 364 -6 q 275 -14 313 -14 q 103 83 153 -14 q 80 155 88 114 q 76 267 72 196 q 99 454 79 338 q 157 753 118 571 q 178 890 176 839 q 174 972 181 942 m 836 1311 q 864 1190 843 1243 q 932 1076 885 1138 q 851 1061 897 1065 q 775 1057 806 1057 q 717 1063 742 1057 q 678 1076 692 1068 q 610 1142 635 1104 q 575 1231 585 1181 q 583 1263 572 1246 q 615 1286 593 1279 q 728 1307 668 1303 q 836 1311 789 1311 z "},"Ẃ":{"ha":1319,"x_min":72,"x_max":1392,"o":"m 174 972 q 233 987 204 982 q 301 992 261 992 q 437 934 399 992 q 447 772 475 876 q 383 503 408 624 q 354 292 357 383 l 363 290 q 535 594 461 422 q 649 972 610 767 l 719 972 q 852 950 811 972 q 901 891 893 928 q 900 810 908 854 q 860 530 871 654 q 863 294 850 406 l 871 293 q 1009 603 954 438 q 1090 972 1064 768 q 1147 985 1113 979 q 1224 992 1181 992 q 1357 944 1322 992 q 1367 794 1392 897 q 1290 542 1335 664 q 1194 315 1246 419 q 1091 129 1143 210 q 992 0 1039 49 q 937 -10 969 -6 q 864 -14 904 -14 q 787 -3 821 -14 q 722 38 753 7 q 667 156 688 72 q 649 361 646 240 l 642 363 q 524 151 588 242 q 396 0 460 61 q 338 -10 364 -6 q 275 -14 313 -14 q 103 83 153 -14 q 80 155 88 114 q 76 267 72 196 q 99 454 79 338 q 157 753 118 571 q 178 890 176 839 q 174 972 181 942 m 836 1311 q 955 1306 897 1310 q 1057 1286 1013 1303 q 1079 1263 1078 1279 q 1069 1231 1081 1246 q 990 1134 1029 1168 q 903 1076 951 1100 q 851 1063 885 1068 q 783 1057 817 1057 q 710 1061 753 1057 q 635 1076 667 1065 q 722 1151 688 1118 q 783 1221 757 1183 q 836 1311 808 1258 z "},"Ẅ":{"ha":1319,"x_min":72,"x_max":1392,"o":"m 174 972 q 233 987 204 982 q 301 992 261 992 q 437 934 399 992 q 447 772 475 876 q 383 503 408 624 q 354 292 357 383 l 363 290 q 535 594 461 422 q 649 972 610 767 l 719 972 q 852 950 811 972 q 901 891 893 928 q 900 810 908 854 q 860 530 871 654 q 863 294 850 406 l 871 293 q 1009 603 954 438 q 1090 972 1064 768 q 1147 985 1113 979 q 1224 992 1181 992 q 1357 944 1322 992 q 1367 794 1392 897 q 1290 542 1335 664 q 1194 315 1246 419 q 1091 129 1143 210 q 992 0 1039 49 q 937 -10 969 -6 q 864 -14 904 -14 q 787 -3 821 -14 q 722 38 753 7 q 667 156 688 72 q 649 361 646 240 l 642 363 q 524 151 588 242 q 396 0 460 61 q 338 -10 364 -6 q 275 -14 313 -14 q 103 83 153 -14 q 80 155 88 114 q 76 267 72 196 q 99 454 79 338 q 157 753 118 571 q 178 890 176 839 q 174 972 181 942 m 592 1296 q 640 1299 615 1299 q 682 1300 664 1300 q 776 1261 756 1300 q 775 1153 796 1222 l 758 1096 q 711 1091 736 1092 q 667 1090 686 1090 q 576 1122 597 1090 q 575 1231 556 1154 l 592 1296 m 888 1296 q 935 1299 911 1299 q 978 1300 960 1300 q 1072 1261 1051 1300 q 1071 1153 1092 1222 l 1054 1096 q 1007 1091 1032 1092 q 963 1090 982 1090 q 872 1122 893 1090 q 871 1231 851 1154 l 888 1296 z "},"X":{"ha":833,"x_min":-53,"x_max":933,"o":"m 101 -14 q -10 16 29 -14 q -51 97 -50 46 q -14 210 -53 147 q 51 291 8 244 q 148 385 93 338 q 261 475 203 433 q 207 731 232 601 q 167 975 182 860 q 228 983 193 981 q 321 986 264 986 q 456 959 414 986 q 506 858 499 932 q 515 769 510 813 q 525 681 519 725 l 536 681 q 601 811 572 739 q 658 976 629 883 q 713 983 682 981 q 775 986 743 986 q 881 958 842 986 q 927 882 921 929 q 900 775 933 835 q 794 639 867 717 q 594 458 722 561 q 660 203 628 314 q 732 -1 693 93 q 660 -10 697 -7 q 579 -14 624 -14 q 449 8 489 -14 q 388 71 410 31 q 357 149 371 103 q 336 249 343 196 l 326 249 q 272 133 296 196 q 232 -4 247 69 q 169 -12 203 -10 q 101 -14 136 -14 z "},"Y":{"ha":903,"x_min":138,"x_max":1007,"o":"m 517 -4 q 381 -14 450 -14 q 247 21 286 -14 q 221 129 208 56 q 278 304 233 208 q 253 329 264 314 q 164 572 190 414 q 176 976 138 729 q 226 983 200 981 q 279 986 253 986 q 421 953 382 986 q 453 851 460 921 q 445 688 444 756 q 464 542 446 619 l 481 536 q 601 736 551 628 q 688 976 651 844 q 750 984 715 982 q 818 986 785 986 q 964 840 1007 986 q 813 538 917 678 q 567 286 708 397 q 546 217 556 251 q 529 153 536 183 q 515 72 519 113 q 517 -4 511 31 z "}}}
